<?xml version="1.0" encoding="UTF-8" standalone="no"?>
<!-- Created with Inkscape (http://www.inkscape.org/) -->

<svg
   xmlns:dc="http://purl.org/dc/elements/1.1/"
   xmlns:cc="http://creativecommons.org/ns#"
   xmlns:rdf="http://www.w3.org/1999/02/22-rdf-syntax-ns#"
   xmlns:svg="http://www.w3.org/2000/svg"
   xmlns="http://www.w3.org/2000/svg"
   xmlns:sodipodi="http://sodipodi.sourceforge.net/DTD/sodipodi-0.dtd"
   xmlns:inkscape="http://www.inkscape.org/namespaces/inkscape"
   width="253.51083"
   height="212.80048"
   id="svg4217"
   sodipodi:version="0.32"
   inkscape:version="0.48.4 r9939"
   sodipodi:docname="orc-logo.svg"
   inkscape:output_extension="org.inkscape.output.svg.inkscape"
   version="1.1">
  <defs
     id="defs4219" />
  <sodipodi:namedview
     id="base"
     pagecolor="#ffffff"
     bordercolor="#666666"
     borderopacity="1.0"
     gridtolerance="10000"
     guidetolerance="10"
     objecttolerance="10"
     inkscape:pageopacity="0.0"
     inkscape:pageshadow="2"
     inkscape:zoom="0.32"
     inkscape:cx="796.05603"
     inkscape:cy="-323.91575"
     inkscape:document-units="px"
     inkscape:current-layer="layer1"
     showgrid="false"
     inkscape:window-width="1678"
     inkscape:window-height="1026"
     inkscape:window-x="1050"
     inkscape:window-y="425"
     inkscape:window-maximized="0"
     fit-margin-top="1"
     fit-margin-right="1"
     fit-margin-bottom="1"
     fit-margin-left="1"
     units="mm" />
  <metadata
     id="metadata4222">
    <rdf:RDF>
      <cc:Work
         rdf:about="">
        <dc:format>image/svg+xml</dc:format>
        <dc:type
           rdf:resource="http://purl.org/dc/dcmitype/StillImage" />
        <dc:title />
      </cc:Work>
    </rdf:RDF>
  </metadata>
  <g
     inkscape:label="Layer 1"
     inkscape:groupmode="layer"
     id="layer1"
     transform="translate(-218.96697,-300.7712)">
    <path
       style="fill:#000000;fill-opacity:1;fill-rule:nonzero;stroke:none;stroke-width:5;marker:none;visibility:visible;display:inline;overflow:visible;enable-background:accumulate"
       d="m 406.78711,362.03015 3.4668,0.29297 0,-2.2461 -0.97657,-0.5371 -0.97656,-2.29493 -2.73437,0.48828 -0.39063,4.58985 1.61133,-0.29297 z"
       id="path3358"
       sodipodi:nodetypes="cccccccc"
       inkscape:connector-curvature="0" />
    <path
       style="fill:#000000;fill-opacity:1;fill-rule:nonzero;stroke:none;stroke-width:5;marker:none;visibility:visible;display:inline;overflow:visible;enable-background:accumulate"
       d="m 329.6875,358.61218 5.46875,-1.5625 1.5625,2.34375 -3.90624,3.90626 -3.12501,-4.68751 z"
       id="path3356"
       sodipodi:nodetypes="ccccc"
       inkscape:connector-curvature="0" />
    <flowRoot
       xml:space="preserve"
       id="flowRoot2441"
       style="font-size:16px;font-style:normal;font-variant:normal;font-weight:normal;font-stretch:normal;text-align:center;line-height:100%;writing-mode:lr-tb;text-anchor:middle;fill:#000000;fill-opacity:1;stroke:none;font-family:Gentium"><flowRegion
         id="flowRegion2443"><rect
           id="rect2445"
           width="338.08542"
           height="224.28543"
           x="51.928154"
           y="649.09033" /></flowRegion><flowPara
         id="flowPara2447" /></flowRoot>    <g
       style="font-size:16px;font-style:normal;font-variant:normal;font-weight:bold;font-stretch:normal;text-align:center;line-height:100%;writing-mode:lr-tb;text-anchor:middle;fill:#000000;fill-opacity:1;stroke:none;font-family:MgOpen Modata;-inkscape-font-specification:MgOpen Modata Bold"
       id="text2437">
      <path
         d="m 276.96028,393.17837 c 17.19993,1.1e-4 30.79992,6.00011 40.8,18 8.8999,10.80009 13.3499,24.10007 13.35,39.9 -10e-5,15.90004 -4.5001,29.40003 -13.5,40.5 -10.10008,12.3 -23.65007,18.45 -40.65,18.45 -17.20003,0 -30.80002,-6.05 -40.8,-18.15 -9.1,-10.99997 -13.65,-24.34996 -13.65,-40.05 0,-15.89993 4.55,-29.34992 13.65,-40.35 10.09998,-12.19989 23.69997,-18.29989 40.8,-18.3 m 0,92.7 c 11.29994,2e-5 19.39993,-5.89997 24.3,-17.7 4.49992,-10.99995 4.59992,-21.99994 0.3,-33 -4.60007,-11.79992 -12.65006,-17.69991 -24.15,-17.7 -8.90004,9e-5 -15.95003,3.60009 -21.15,10.8 -4.70002,6.40007 -7.05002,14.25006 -7.05,23.55 -2e-5,9.20005 2.34998,17.00004 7.05,23.4 5.09997,7.10002 11.99996,10.65002 20.7,10.65"
         style="font-size:150px;font-family:MgOpen Modata;-inkscape-font-specification:MgOpen Modata Bold"
         id="path3518"
         inkscape:connector-curvature="0" />
      <path
         d="m 341.74857,433.52837 c 0,-3.79992 1.09999,-6.69992 3.3,-8.7 1.89999,-1.79992 4.34999,-2.69991 7.35,-2.7 3.19998,9e-5 5.99998,0.90008 8.4,2.7 2.59997,2.10008 3.89997,4.70008 3.9,7.8 5.09997,-6.69992 11.49996,-10.04992 19.2,-10.05 2.79995,8e-5 5.24995,1.55008 7.35,4.65 2.19994,3.00008 3.29994,5.95007 3.3,8.85 -6e-5,4.30007 -2.60005,7.60006 -7.8,9.9 -4.80004,1.80006 -9.60004,3.60006 -14.4,5.4 -5.10003,2.60005 -7.65003,6.45005 -7.65,11.55 l 0,34.8 c -3e-5,3.80001 -1.20003,6.8 -3.6,9 -2.30002,2.2 -5.05002,3.3 -8.25,3.3 -3.10001,0 -5.65001,-1 -7.65,-3 -2.30001,-2.2 -3.45,-5.29999 -3.45,-9.3 l 0,-64.2"
         style="font-size:150px;font-family:MgOpen Modata;-inkscape-font-specification:MgOpen Modata Bold"
         id="path3520"
         inkscape:connector-curvature="0" />
      <path
         d="m 436.8345,422.12837 c 12.19995,9e-5 20.54994,2.10008 25.05,6.3 4.59994,4.10007 6.89993,8.20007 6.9,12.3 -7e-5,2.60006 -0.90007,4.75006 -2.7,6.45 -1.80006,1.70006 -3.80006,2.55006 -6,2.55 -0.90006,6e-5 -1.70006,-0.14994 -2.4,-0.45 -6.30005,-2.59994 -11.70004,-3.89994 -16.2,-3.9 -6.10003,6e-5 -10.95003,2.30006 -14.55,6.9 -3.20002,4.10005 -4.80002,9.05005 -4.8,14.85 -2e-5,5.30003 1.39998,9.75003 4.2,13.35 3.09997,4.10002 7.29997,6.15002 12.6,6.15 4.29996,2e-5 10.34995,-1.49998 18.15,-4.5 0.99994,-0.39997 1.99994,-0.59997 3,-0.6 2.39994,3e-5 4.44994,1.00002 6.15,3 1.79993,2.00002 2.69993,4.40002 2.7,7.2 -7e-5,4.00001 -1.90007,7.40001 -5.7,10.2 -3.00006,2.2 -7.10005,4.1 -12.3,5.7 -4.70004,1.5 -8.60004,2.25 -11.7,2.25 -13.30002,0 -23.70001,-4.45 -31.2,-13.35 -6.6,-7.89998 -9.9,-17.74997 -9.9,-29.55 0,-11.89995 3.35,-22.14994 10.05,-30.75 7.29999,-9.39992 16.84998,-14.09991 28.65,-14.1"
         style="font-size:150px;font-family:MgOpen Modata;-inkscape-font-specification:MgOpen Modata Bold"
         id="path3522"
         inkscape:connector-curvature="0" />
    </g>
    <path
       style="fill:#000000;fill-opacity:1;fill-rule:nonzero;stroke:#000000;stroke-width:2;stroke-linecap:butt;stroke-linejoin:miter;stroke-miterlimit:4;stroke-opacity:1;stroke-dasharray:none;stroke-dashoffset:0;marker:none;visibility:visible;display:inline;overflow:visible;enable-background:accumulate"
       d="M 322.28125,353.28125 319.75,355.4375 c 0,0 6.79545,3.22527 8.5,10.78125 1.21823,5.40017 -4.02611,14.59331 -7.15625,19.4375 -12.2215,7.76648 -19.75,19.65623 -19.75,19.65625 l 21,21 c 0,0 -1.10405,-24.29519 15.46875,-35.34375 7.83333,-4.47073 15.92432,-6.65699 23.8125,-8.21875 -10e-6,3e-5 14.70949,-1.3495 19.71875,2.5625 5.00926,3.91201 5.1875,9.4375 5.1875,9.4375 l 2.40625,-0.8125 c 0,2e-5 1.01127,-9.93334 -7.09375,-15 10.45693,-2.49647 19.49144,-6.7194 25.5625,-17.8125 l -1.09375,-1.09375 c -19.8192,22.25139 -46.09195,12.96246 -71.52344,19.76172 2.25351,-7.79459 3.42951,-16.77117 -12.50781,-26.51172 z"
       id="path2449"
       sodipodi:nodetypes="ccsccccssccccccc"
       inkscape:connector-curvature="0" />
    <path
       style="fill:#418d30;fill-opacity:1;fill-rule:nonzero;stroke:none;stroke-width:10;marker:none;visibility:visible;display:inline;overflow:visible;enable-background:accumulate"
       d="m 410.89125,305.77192 c -11.72155,9.51781 -21.92376,25.80533 -15.83806,41.13579 2.64254,5.02318 5.89917,12.39098 12.31437,12.75548 12.76121,-3.57407 22.20538,-17.50998 18.0294,-30.69325 -1.99767,-9.13216 -7.0254,-17.38052 -12.89854,-24.65543 -0.53573,0.48581 -1.07144,0.9716 -1.60717,1.45741 z"
       id="path2453"
       inkscape:connector-curvature="0" />
    <path
       style="fill:#418d30;fill-opacity:1;fill-rule:nonzero;stroke:none;stroke-width:10;marker:none;visibility:visible;display:inline;overflow:visible;enable-background:accumulate"
       d="m 301.01808,333.14515 c -7.83715,0.27336 -15.04976,3.86854 -21.5625,7.9375 6.09848,11.10474 17.59996,22.50544 31.25,19.9375 5.00017,-1.49677 13.7808,-4.84765 11.34375,-11.65625 -2.59888,-9.12966 -10.96943,-17.19379 -21.03125,-16.21875 z"
       id="path2455"
       inkscape:connector-curvature="0" />
    <path
       style="fill:#418d30;fill-opacity:1;fill-rule:nonzero;stroke:none;stroke-width:10;marker:none;visibility:visible;display:inline;overflow:visible;enable-background:accumulate"
       d="m 388.69967,389.24701 c -3.58511,1.23961 -3.61816,7.46762 -3.38444,11.29741 1.71536,12.2549 12.74952,16.88429 21.48893,19.12087 3.66137,2.11265 4.14056,-0.94587 3.6737,-4.71564 -0.45056,-13.05705 -9.13104,-25.60188 -20.24823,-25.58966 -0.50113,-0.11539 -1.0194,-0.18218 -1.52996,-0.11298 z"
       id="path2457"
       inkscape:connector-curvature="0" />
    <path
       style="fill:#418d30;fill-opacity:1;fill-rule:nonzero;stroke:none;stroke-width:10;marker:none;visibility:visible;display:inline;overflow:visible;enable-background:accumulate"
       d="m 369.25659,324.30591 c -17.07945,0.12046 -34.35155,12.9191 -35.625,30.5625 -1.62194,4.78359 3.29615,7.61955 7.40625,7.5 12.73743,1.81931 22.36526,-10.07291 26.09375,-20.8125 2.3371,-5.60593 3.59414,-11.58486 4.90625,-17.53125 -0.92708,0.0937 -1.85417,0.1875 -2.78125,0.28125 z"
       id="path2459"
       inkscape:connector-curvature="0" />
    <path
       style="fill:#418d30;fill-opacity:1;fill-rule:nonzero;stroke:none;stroke-width:10;marker:none;visibility:visible;display:inline;overflow:visible;enable-background:accumulate"
       d="m 420.35496,358.26688 c -4.46645,-0.0683 -12.32237,-0.82873 -12.29865,5.84184 -0.64346,10.54533 9.1322,18.0915 18.48857,18.69805 5.73551,0.96463 11.53635,0.6007 17.29246,0.19725 -2.57399,-11.87367 -11.01777,-23.75865 -23.48238,-24.73714 z"
       id="path2463"
       inkscape:connector-curvature="0" />
  </g>
</svg>
