<?xml version="1.0" encoding="UTF-8" standalone="no"?>
<!-- Created with Inkscape (http://www.inkscape.org/) -->
<svg
   xmlns:dc="http://purl.org/dc/elements/1.1/"
   xmlns:cc="http://creativecommons.org/ns#"
   xmlns:rdf="http://www.w3.org/1999/02/22-rdf-syntax-ns#"
   xmlns:svg="http://www.w3.org/2000/svg"
   xmlns="http://www.w3.org/2000/svg"
   xmlns:sodipodi="http://sodipodi.sourceforge.net/DTD/sodipodi-0.dtd"
   xmlns:inkscape="http://www.inkscape.org/namespaces/inkscape"
   id="svg2440"
   sodipodi:version="0.32"
   inkscape:version="0.46"
   width="750"
   height="500"
   version="1.0"
   sodipodi:docname="wire_logotype.svg"
   inkscape:output_extension="org.inkscape.output.svg.inkscape">
  <metadata
     id="metadata2445">
    <rdf:RDF>
      <cc:Work
         rdf:about="">
        <dc:format>image/svg+xml</dc:format>
        <dc:type
           rdf:resource="http://purl.org/dc/dcmitype/StillImage" />
      </cc:Work>
    </rdf:RDF>
  </metadata>
  <defs
     id="defs2443">
    <inkscape:perspective
       sodipodi:type="inkscape:persp3d"
       inkscape:vp_x="0 : 526.18109 : 1"
       inkscape:vp_y="0 : 1000 : 0"
       inkscape:vp_z="744.09448 : 526.18109 : 1"
       inkscape:persp3d-origin="372.04724 : 350.78739 : 1"
       id="perspective2447" />
  </defs>
  <sodipodi:namedview
     inkscape:window-height="812"
     inkscape:window-width="986"
     inkscape:pageshadow="2"
     inkscape:pageopacity="0.0"
     guidetolerance="10.0"
     gridtolerance="10.0"
     objecttolerance="10.0"
     borderopacity="1.0"
     bordercolor="#666666"
     pagecolor="#ffffff"
     id="base"
     showgrid="false"
     inkscape:zoom="1.0182338"
     inkscape:cx="144.27106"
     inkscape:cy="289.09714"
     inkscape:window-x="1338"
     inkscape:window-y="81"
     inkscape:current-layer="svg2440"
     inkscape:snap-global="false"
     showguides="true">
    <inkscape:grid
       type="xygrid"
       id="grid3361" />
  </sodipodi:namedview>
  <path
     style="opacity:1;fill:#b9b9b9;fill-opacity:1;fill-rule:nonzero;stroke:#000000;stroke-width:2;stroke-linecap:butt;stroke-linejoin:miter;marker:none;marker-start:none;marker-mid:none;stroke-miterlimit:4;stroke-dasharray:none;stroke-dashoffset:0;stroke-opacity:1;visibility:visible;display:inline;overflow:visible;enable-background:accumulate"
     d="M 140.97222,82.638889 L 140.97222,56.944439"
     id="path3581" />
  <path
     style="opacity:1;fill:none;fill-opacity:1;fill-rule:nonzero;stroke:#000000;stroke-width:2;stroke-linecap:butt;stroke-linejoin:miter;marker:none;marker-start:none;marker-mid:none;stroke-miterlimit:4;stroke-dasharray:none;stroke-dashoffset:0;stroke-opacity:1;visibility:visible;display:inline;overflow:visible;enable-background:accumulate"
     d="M 119.79167,160.41667 L 100.69445,179.51389"
     id="path3577" />
  <path
     style="opacity:1;fill:#b9b9b9;fill-opacity:1;fill-rule:nonzero;stroke:#000000;stroke-width:2;stroke-linecap:butt;stroke-linejoin:miter;marker:none;marker-start:none;marker-mid:none;stroke-miterlimit:4;stroke-dasharray:none;stroke-dashoffset:0;stroke-opacity:1;visibility:visible;display:inline;overflow:visible;enable-background:accumulate"
     d="M 287.5,159.72222 L 287.5,185.41667"
     id="path3575" />
  <path
     style="opacity:1;fill:#b9b9b9;fill-opacity:1;fill-rule:nonzero;stroke:#000000;stroke-width:2;stroke-linecap:butt;stroke-linejoin:miter;marker:none;marker-start:none;marker-mid:none;stroke-miterlimit:4;stroke-dasharray:none;stroke-dashoffset:0;stroke-opacity:1;visibility:visible;display:inline;overflow:visible;enable-background:accumulate"
     d="M 306.7295,159.21382 L 329.80868,136.13464"
     id="path3567" />
  <path
     style="opacity:1;fill:none;fill-opacity:1;fill-rule:nonzero;stroke:#000000;stroke-width:2;stroke-linecap:butt;stroke-linejoin:miter;marker:none;marker-start:none;marker-mid:none;stroke-miterlimit:4;stroke-dasharray:none;stroke-dashoffset:0;stroke-opacity:1;visibility:visible;display:inline;overflow:visible;enable-background:accumulate"
     d="M 100.69444,100 L 100.69444,139.58333 L 121.18056,160.06944 L 140.97223,160.06944 L 161.28473,139.75694 L 161.28473,99.305555 L 141.40625,79.427083 L 120.83334,79.427083 L 100.69444,100 z"
     id="path3473" />
  <path
     style="opacity:1;fill:none;fill-opacity:1;fill-rule:nonzero;stroke:#000000;stroke-width:2;stroke-linecap:butt;stroke-linejoin:miter;marker:none;marker-start:none;marker-mid:none;stroke-miterlimit:4;stroke-dasharray:none;stroke-dashoffset:0;stroke-opacity:1;visibility:visible;display:inline;overflow:visible;enable-background:accumulate"
     d="M 307.34278,79.861111 L 287.5,79.861111 L 267.01389,100.34722 L 267.01389,119.44444 L 267.01389,139.58333 L 286.97917,159.54861 L 306.94445,159.54861"
     id="path3475"
     sodipodi:nodetypes="ccccccc" />
  <path
     style="opacity:1;fill:none;fill-opacity:1;fill-rule:nonzero;stroke:#000000;stroke-width:2;stroke-linecap:butt;stroke-linejoin:miter;marker:none;marker-start:none;marker-mid:none;stroke-miterlimit:4;stroke-dasharray:none;stroke-dashoffset:0;stroke-opacity:1;visibility:visible;display:inline;overflow:visible;enable-background:accumulate"
     d="M 184.02778,159.02778 L 184.02778,79.861111 L 225,79.861111 L 244.79167,99.652778 L 244.79167,120.13889 L 203.47222,120.13889 L 243.75,160.41667"
     id="path3477" />
  <path
     style="opacity:1;fill:none;fill-opacity:1;fill-rule:nonzero;stroke:#000000;stroke-width:2;stroke-linecap:butt;stroke-linejoin:miter;marker:none;marker-start:none;marker-mid:none;stroke-miterlimit:4;stroke-dasharray:none;stroke-dashoffset:0;stroke-opacity:1;visibility:visible;display:inline;overflow:visible;enable-background:accumulate"
     d="M 161.80555,100 L 184.72222,100"
     id="path3481"
     sodipodi:nodetypes="cc" />
  <path
     style="opacity:1;fill:none;fill-opacity:1;fill-rule:nonzero;stroke:#000000;stroke-width:2;stroke-linecap:butt;stroke-linejoin:miter;marker:none;marker-start:none;marker-mid:none;stroke-miterlimit:4;stroke-dasharray:none;stroke-dashoffset:0;stroke-opacity:1;visibility:visible;display:inline;overflow:visible;enable-background:accumulate"
     d="M 245.13889,100 L 265.97222,100"
     id="path3485"
     sodipodi:nodetypes="cc" />
  <path
     style="opacity:1;fill:none;fill-opacity:1;fill-rule:nonzero;stroke:#000000;stroke-width:2;stroke-linecap:butt;stroke-linejoin:miter;marker:none;marker-start:none;marker-mid:none;stroke-miterlimit:4;stroke-dasharray:none;stroke-dashoffset:0;stroke-opacity:1;visibility:visible;display:inline;overflow:visible;enable-background:accumulate"
     d="M 225,79.861111 L 244.09722,60.763889"
     id="path3489" />
  <path
     style="opacity:1;fill:none;fill-opacity:1;fill-rule:nonzero;stroke:#000000;stroke-width:2;stroke-linecap:butt;stroke-linejoin:miter;marker:none;marker-start:none;marker-mid:none;stroke-miterlimit:4;stroke-dasharray:none;stroke-dashoffset:0;stroke-opacity:1;visibility:visible;display:inline;overflow:visible;enable-background:accumulate"
     d="M 100.69444,119.44444 L 77.083334,119.44444"
     id="path3493" />
  <path
     sodipodi:type="arc"
     style="opacity:1;fill:#ffffff;fill-opacity:1;fill-rule:nonzero;stroke:#000000;stroke-width:2;stroke-linecap:butt;stroke-linejoin:miter;marker:none;marker-start:none;marker-mid:none;stroke-miterlimit:4;stroke-dasharray:none;stroke-dashoffset:0;stroke-opacity:1;visibility:visible;display:inline;overflow:visible;enable-background:accumulate"
     id="path3497"
     sodipodi:cx="345.13889"
     sodipodi:cy="100"
     sodipodi:rx="9.7222223"
     sodipodi:ry="9.7222223"
     d="M 354.86111,100 A 9.7222223,9.7222223 0 1 1 335.41666,100 A 9.7222223,9.7222223 0 1 1 354.86111,100 z"
     transform="translate(-98.611108,-42.361111)" />
  <path
     sodipodi:type="arc"
     style="opacity:1;fill:#ffffff;fill-opacity:1;fill-rule:nonzero;stroke:#000000;stroke-width:2;stroke-linecap:butt;stroke-linejoin:miter;marker:none;marker-start:none;marker-mid:none;stroke-miterlimit:4;stroke-dasharray:none;stroke-dashoffset:0;stroke-opacity:1;visibility:visible;display:inline;overflow:visible;enable-background:accumulate"
     id="path3499"
     sodipodi:cx="345.13889"
     sodipodi:cy="100"
     sodipodi:rx="9.7222223"
     sodipodi:ry="9.7222223"
     d="M 354.86111,100 A 9.7222223,9.7222223 0 1 1 335.41666,100 A 9.7222223,9.7222223 0 1 1 354.86111,100 z"
     transform="translate(-270.83333,19.444444)" />
  <path
     style="opacity:1;fill:#ffffff;fill-opacity:1;fill-rule:nonzero;stroke:#000000;stroke-width:2;stroke-linecap:butt;stroke-linejoin:miter;marker:none;marker-start:none;marker-mid:none;stroke-miterlimit:4;stroke-dasharray:none;stroke-dashoffset:0;stroke-opacity:1;visibility:visible;display:inline;overflow:visible;enable-background:accumulate"
     d="M 183.33333,159.72222 L 183.33333,187.5"
     id="path3501" />
  <path
     sodipodi:type="arc"
     style="opacity:1;fill:#ffffff;fill-opacity:1;fill-rule:nonzero;stroke:#000000;stroke-width:2;stroke-linecap:butt;stroke-linejoin:miter;marker:none;marker-start:none;marker-mid:none;stroke-miterlimit:4;stroke-dasharray:none;stroke-dashoffset:0;stroke-opacity:1;visibility:visible;display:inline;overflow:visible;enable-background:accumulate"
     id="path3503"
     sodipodi:cx="345.13889"
     sodipodi:cy="100"
     sodipodi:rx="9.7222223"
     sodipodi:ry="9.7222223"
     d="M 354.86111,100 A 9.7222223,9.7222223 0 1 1 335.41666,100 A 9.7222223,9.7222223 0 1 1 354.86111,100 z"
     transform="translate(-161.80555,87.5)" />
  <path
     sodipodi:type="arc"
     style="opacity:1;fill:#b9b9b9;fill-opacity:1;fill-rule:nonzero;stroke:#000000;stroke-width:5;stroke-linecap:butt;stroke-linejoin:miter;marker:none;marker-start:none;marker-mid:none;stroke-miterlimit:4;stroke-dasharray:none;stroke-dashoffset:0;stroke-opacity:1;visibility:visible;display:inline;overflow:visible;enable-background:accumulate"
     id="path3363"
     sodipodi:cx="167.36111"
     sodipodi:cy="190.97223"
     sodipodi:rx="9.0277777"
     sodipodi:ry="9.0277777"
     d="M 176.38889,190.97223 A 9.0277777,9.0277777 0 1 1 158.33334,190.97223 A 9.0277777,9.0277777 0 1 1 176.38889,190.97223 z"
     transform="matrix(0.5,0,0,0.5,17.499998,4.5138855)" />
  <path
     sodipodi:type="arc"
     style="opacity:1;fill:#b9b9b9;fill-opacity:1;fill-rule:nonzero;stroke:#000000;stroke-width:5;stroke-linecap:butt;stroke-linejoin:miter;marker:none;marker-start:none;marker-mid:none;stroke-miterlimit:4;stroke-dasharray:none;stroke-dashoffset:0;stroke-opacity:1;visibility:visible;display:inline;overflow:visible;enable-background:accumulate"
     id="path3365"
     sodipodi:cx="167.36111"
     sodipodi:cy="190.97223"
     sodipodi:rx="9.0277777"
     sodipodi:ry="9.0277777"
     d="M 176.38889,190.97223 A 9.0277777,9.0277777 0 1 1 158.33334,190.97223 A 9.0277777,9.0277777 0 1 1 176.38889,190.97223 z"
     transform="matrix(0.5,0,0,0.5,37.499999,-15.486115)" />
  <path
     sodipodi:type="arc"
     style="opacity:1;fill:#b9b9b9;fill-opacity:1;fill-rule:nonzero;stroke:#000000;stroke-width:5;stroke-linecap:butt;stroke-linejoin:miter;marker:none;marker-start:none;marker-mid:none;stroke-miterlimit:4;stroke-dasharray:none;stroke-dashoffset:0;stroke-opacity:1;visibility:visible;display:inline;overflow:visible;enable-background:accumulate"
     id="path3367"
     sodipodi:cx="167.36111"
     sodipodi:cy="190.97223"
     sodipodi:rx="9.0277777"
     sodipodi:ry="9.0277777"
     d="M 176.38889,190.97223 A 9.0277777,9.0277777 0 1 1 158.33334,190.97223 A 9.0277777,9.0277777 0 1 1 176.38889,190.97223 z"
     transform="matrix(0.5,0,0,0.5,57.499999,-15.486115)" />
  <path
     sodipodi:type="arc"
     style="opacity:1;fill:#b9b9b9;fill-opacity:1;fill-rule:nonzero;stroke:#000000;stroke-width:5;stroke-linecap:butt;stroke-linejoin:miter;marker:none;marker-start:none;marker-mid:none;stroke-miterlimit:4;stroke-dasharray:none;stroke-dashoffset:0;stroke-opacity:1;visibility:visible;display:inline;overflow:visible;enable-background:accumulate"
     id="path3371"
     sodipodi:cx="167.36111"
     sodipodi:cy="190.97223"
     sodipodi:rx="9.0277777"
     sodipodi:ry="9.0277777"
     d="M 176.38889,190.97223 A 9.0277777,9.0277777 0 1 1 158.33334,190.97223 A 9.0277777,9.0277777 0 1 1 176.38889,190.97223 z"
     transform="matrix(0.5,0,0,0.5,77.499999,4.5138855)" />
  <path
     sodipodi:type="arc"
     style="opacity:1;fill:#b9b9b9;fill-opacity:1;fill-rule:nonzero;stroke:#000000;stroke-width:5;stroke-linecap:butt;stroke-linejoin:miter;marker:none;marker-start:none;marker-mid:none;stroke-miterlimit:4;stroke-dasharray:none;stroke-dashoffset:0;stroke-opacity:1;visibility:visible;display:inline;overflow:visible;enable-background:accumulate"
     id="path3373"
     sodipodi:cx="167.36111"
     sodipodi:cy="190.97223"
     sodipodi:rx="9.0277777"
     sodipodi:ry="9.0277777"
     d="M 176.38889,190.97223 A 9.0277777,9.0277777 0 1 1 158.33334,190.97223 A 9.0277777,9.0277777 0 1 1 176.38889,190.97223 z"
     transform="matrix(0.5,0,0,0.5,17.499998,24.513885)" />
  <path
     sodipodi:type="arc"
     style="opacity:1;fill:#b9b9b9;fill-opacity:1;fill-rule:nonzero;stroke:#000000;stroke-width:5;stroke-linecap:butt;stroke-linejoin:miter;marker:none;marker-start:none;marker-mid:none;stroke-miterlimit:4;stroke-dasharray:none;stroke-dashoffset:0;stroke-opacity:1;visibility:visible;display:inline;overflow:visible;enable-background:accumulate"
     id="path3375"
     sodipodi:cx="167.36111"
     sodipodi:cy="190.97223"
     sodipodi:rx="9.0277777"
     sodipodi:ry="9.0277777"
     d="M 176.38889,190.97223 A 9.0277777,9.0277777 0 1 1 158.33334,190.97223 A 9.0277777,9.0277777 0 1 1 176.38889,190.97223 z"
     transform="matrix(0.5,0,0,0.5,17.499998,44.513885)" />
  <path
     sodipodi:type="arc"
     style="opacity:1;fill:#b9b9b9;fill-opacity:1;fill-rule:nonzero;stroke:#000000;stroke-width:5;stroke-linecap:butt;stroke-linejoin:miter;marker:none;marker-start:none;marker-mid:none;stroke-miterlimit:4;stroke-dasharray:none;stroke-dashoffset:0;stroke-opacity:1;visibility:visible;display:inline;overflow:visible;enable-background:accumulate"
     id="path3377"
     sodipodi:cx="167.36111"
     sodipodi:cy="190.97223"
     sodipodi:rx="9.0277777"
     sodipodi:ry="9.0277777"
     d="M 176.38889,190.97223 A 9.0277777,9.0277777 0 1 1 158.33334,190.97223 A 9.0277777,9.0277777 0 1 1 176.38889,190.97223 z"
     transform="matrix(0.5,0,0,0.5,37.499999,64.513885)" />
  <path
     sodipodi:type="arc"
     style="opacity:1;fill:#b9b9b9;fill-opacity:1;fill-rule:nonzero;stroke:#000000;stroke-width:5;stroke-linecap:butt;stroke-linejoin:miter;marker:none;marker-start:none;marker-mid:none;stroke-miterlimit:4;stroke-dasharray:none;stroke-dashoffset:0;stroke-opacity:1;visibility:visible;display:inline;overflow:visible;enable-background:accumulate"
     id="path3379"
     sodipodi:cx="167.36111"
     sodipodi:cy="190.97223"
     sodipodi:rx="9.0277777"
     sodipodi:ry="9.0277777"
     d="M 176.38889,190.97223 A 9.0277777,9.0277777 0 1 1 158.33334,190.97223 A 9.0277777,9.0277777 0 1 1 176.38889,190.97223 z"
     transform="matrix(0.5,0,0,0.5,57.499999,64.513885)" />
  <path
     sodipodi:type="arc"
     style="opacity:1;fill:#b9b9b9;fill-opacity:1;fill-rule:nonzero;stroke:#000000;stroke-width:5;stroke-linecap:butt;stroke-linejoin:miter;marker:none;marker-start:none;marker-mid:none;stroke-miterlimit:4;stroke-dasharray:none;stroke-dashoffset:0;stroke-opacity:1;visibility:visible;display:inline;overflow:visible;enable-background:accumulate"
     id="path3383"
     sodipodi:cx="167.36111"
     sodipodi:cy="190.97223"
     sodipodi:rx="9.0277777"
     sodipodi:ry="9.0277777"
     d="M 176.38889,190.97223 A 9.0277777,9.0277777 0 1 1 158.33334,190.97223 A 9.0277777,9.0277777 0 1 1 176.38889,190.97223 z"
     transform="matrix(0.5,0,0,0.5,77.499999,24.513885)" />
  <path
     sodipodi:type="arc"
     style="opacity:1;fill:#b9b9b9;fill-opacity:1;fill-rule:nonzero;stroke:#000000;stroke-width:5;stroke-linecap:butt;stroke-linejoin:miter;marker:none;marker-start:none;marker-mid:none;stroke-miterlimit:4;stroke-dasharray:none;stroke-dashoffset:0;stroke-opacity:1;visibility:visible;display:inline;overflow:visible;enable-background:accumulate"
     id="path3385"
     sodipodi:cx="167.36111"
     sodipodi:cy="190.97223"
     sodipodi:rx="9.0277777"
     sodipodi:ry="9.0277777"
     d="M 176.38889,190.97223 A 9.0277777,9.0277777 0 1 1 158.33334,190.97223 A 9.0277777,9.0277777 0 1 1 176.38889,190.97223 z"
     transform="matrix(0.5,0,0,0.5,77.499999,44.513885)" />
  <path
     sodipodi:type="arc"
     style="opacity:1;fill:#b9b9b9;fill-opacity:1;fill-rule:nonzero;stroke:#000000;stroke-width:5;stroke-linecap:butt;stroke-linejoin:miter;marker:none;marker-start:none;marker-mid:none;stroke-miterlimit:4;stroke-dasharray:none;stroke-dashoffset:0;stroke-opacity:1;visibility:visible;display:inline;overflow:visible;enable-background:accumulate"
     id="path3387"
     sodipodi:cx="167.36111"
     sodipodi:cy="190.97223"
     sodipodi:rx="9.0277777"
     sodipodi:ry="9.0277777"
     d="M 176.38889,190.97223 A 9.0277777,9.0277777 0 1 1 158.33334,190.97223 A 9.0277777,9.0277777 0 1 1 176.38889,190.97223 z"
     transform="matrix(0.5,0,0,0.5,183.47223,4.5138855)" />
  <path
     sodipodi:type="arc"
     style="opacity:1;fill:#b9b9b9;fill-opacity:1;fill-rule:nonzero;stroke:#000000;stroke-width:5;stroke-linecap:butt;stroke-linejoin:miter;marker:none;marker-start:none;marker-mid:none;stroke-miterlimit:4;stroke-dasharray:none;stroke-dashoffset:0;stroke-opacity:1;visibility:visible;display:inline;overflow:visible;enable-background:accumulate"
     id="path3389"
     sodipodi:cx="167.36111"
     sodipodi:cy="190.97223"
     sodipodi:rx="9.0277777"
     sodipodi:ry="9.0277777"
     d="M 176.38889,190.97223 A 9.0277777,9.0277777 0 1 1 158.33334,190.97223 A 9.0277777,9.0277777 0 1 1 176.38889,190.97223 z"
     transform="matrix(0.5,0,0,0.5,203.47223,-15.486115)" />
  <path
     sodipodi:type="arc"
     style="opacity:1;fill:#b9b9b9;fill-opacity:1;fill-rule:nonzero;stroke:#000000;stroke-width:5;stroke-linecap:butt;stroke-linejoin:miter;marker:none;marker-start:none;marker-mid:none;stroke-miterlimit:4;stroke-dasharray:none;stroke-dashoffset:0;stroke-opacity:1;visibility:visible;display:inline;overflow:visible;enable-background:accumulate"
     id="path3391"
     sodipodi:cx="167.36111"
     sodipodi:cy="190.97223"
     sodipodi:rx="9.0277777"
     sodipodi:ry="9.0277777"
     d="M 176.38889,190.97223 A 9.0277777,9.0277777 0 1 1 158.33334,190.97223 A 9.0277777,9.0277777 0 1 1 176.38889,190.97223 z"
     transform="matrix(0.5,0,0,0.5,223.47222,-15.486115)" />
  <path
     sodipodi:type="arc"
     style="opacity:1;fill:#b9b9b9;fill-opacity:1;fill-rule:nonzero;stroke:#000000;stroke-width:5;stroke-linecap:butt;stroke-linejoin:miter;marker:none;marker-start:none;marker-mid:none;stroke-miterlimit:4;stroke-dasharray:none;stroke-dashoffset:0;stroke-opacity:1;visibility:visible;display:inline;overflow:visible;enable-background:accumulate"
     id="path3397"
     sodipodi:cx="167.36111"
     sodipodi:cy="190.97223"
     sodipodi:rx="9.0277777"
     sodipodi:ry="9.0277777"
     d="M 176.38889,190.97223 A 9.0277777,9.0277777 0 1 1 158.33334,190.97223 A 9.0277777,9.0277777 0 1 1 176.38889,190.97223 z"
     transform="matrix(0.5,0,0,0.5,183.47223,24.513885)" />
  <path
     sodipodi:type="arc"
     style="opacity:1;fill:#b9b9b9;fill-opacity:1;fill-rule:nonzero;stroke:#000000;stroke-width:5;stroke-linecap:butt;stroke-linejoin:miter;marker:none;marker-start:none;marker-mid:none;stroke-miterlimit:4;stroke-dasharray:none;stroke-dashoffset:0;stroke-opacity:1;visibility:visible;display:inline;overflow:visible;enable-background:accumulate"
     id="path3399"
     sodipodi:cx="167.36111"
     sodipodi:cy="190.97223"
     sodipodi:rx="9.0277777"
     sodipodi:ry="9.0277777"
     d="M 176.38889,190.97223 A 9.0277777,9.0277777 0 1 1 158.33334,190.97223 A 9.0277777,9.0277777 0 1 1 176.38889,190.97223 z"
     transform="matrix(0.5,0,0,0.5,183.47223,44.513885)" />
  <path
     sodipodi:type="arc"
     style="opacity:1;fill:#b9b9b9;fill-opacity:1;fill-rule:nonzero;stroke:#000000;stroke-width:5;stroke-linecap:butt;stroke-linejoin:miter;marker:none;marker-start:none;marker-mid:none;stroke-miterlimit:4;stroke-dasharray:none;stroke-dashoffset:0;stroke-opacity:1;visibility:visible;display:inline;overflow:visible;enable-background:accumulate"
     id="path3401"
     sodipodi:cx="167.36111"
     sodipodi:cy="190.97223"
     sodipodi:rx="9.0277777"
     sodipodi:ry="9.0277777"
     d="M 176.38889,190.97223 A 9.0277777,9.0277777 0 1 1 158.33334,190.97223 A 9.0277777,9.0277777 0 1 1 176.38889,190.97223 z"
     transform="matrix(0.5,0,0,0.5,203.47223,64.513885)" />
  <path
     sodipodi:type="arc"
     style="opacity:1;fill:#b9b9b9;fill-opacity:1;fill-rule:nonzero;stroke:#000000;stroke-width:5;stroke-linecap:butt;stroke-linejoin:miter;marker:none;marker-start:none;marker-mid:none;stroke-miterlimit:4;stroke-dasharray:none;stroke-dashoffset:0;stroke-opacity:1;visibility:visible;display:inline;overflow:visible;enable-background:accumulate"
     id="path3403"
     sodipodi:cx="167.36111"
     sodipodi:cy="190.97223"
     sodipodi:rx="9.0277777"
     sodipodi:ry="9.0277777"
     d="M 176.38889,190.97223 A 9.0277777,9.0277777 0 1 1 158.33334,190.97223 A 9.0277777,9.0277777 0 1 1 176.38889,190.97223 z"
     transform="matrix(0.5,0,0,0.5,223.47222,64.513885)" />
  <path
     sodipodi:type="arc"
     style="opacity:1;fill:#b9b9b9;fill-opacity:1;fill-rule:nonzero;stroke:#000000;stroke-width:5;stroke-linecap:butt;stroke-linejoin:miter;marker:none;marker-start:none;marker-mid:none;stroke-miterlimit:4;stroke-dasharray:none;stroke-dashoffset:0;stroke-opacity:1;visibility:visible;display:inline;overflow:visible;enable-background:accumulate"
     id="path3411"
     sodipodi:cx="167.36111"
     sodipodi:cy="190.97223"
     sodipodi:rx="9.0277777"
     sodipodi:ry="9.0277777"
     d="M 176.38889,190.97223 A 9.0277777,9.0277777 0 1 1 158.33334,190.97223 A 9.0277777,9.0277777 0 1 1 176.38889,190.97223 z"
     transform="matrix(0.5,0,0,0.5,100.83333,4.5138875)" />
  <path
     sodipodi:type="arc"
     style="opacity:1;fill:#b9b9b9;fill-opacity:1;fill-rule:nonzero;stroke:#000000;stroke-width:5;stroke-linecap:butt;stroke-linejoin:miter;marker:none;marker-start:none;marker-mid:none;stroke-miterlimit:4;stroke-dasharray:none;stroke-dashoffset:0;stroke-opacity:1;visibility:visible;display:inline;overflow:visible;enable-background:accumulate"
     id="path3413"
     sodipodi:cx="167.36111"
     sodipodi:cy="190.97223"
     sodipodi:rx="9.0277777"
     sodipodi:ry="9.0277777"
     d="M 176.38889,190.97223 A 9.0277777,9.0277777 0 1 1 158.33334,190.97223 A 9.0277777,9.0277777 0 1 1 176.38889,190.97223 z"
     transform="matrix(0.5,0,0,0.5,120.83333,-15.486114)" />
  <path
     sodipodi:type="arc"
     style="opacity:1;fill:#b9b9b9;fill-opacity:1;fill-rule:nonzero;stroke:#000000;stroke-width:5;stroke-linecap:butt;stroke-linejoin:miter;marker:none;marker-start:none;marker-mid:none;stroke-miterlimit:4;stroke-dasharray:none;stroke-dashoffset:0;stroke-opacity:1;visibility:visible;display:inline;overflow:visible;enable-background:accumulate"
     id="path3415"
     sodipodi:cx="167.36111"
     sodipodi:cy="190.97223"
     sodipodi:rx="9.0277777"
     sodipodi:ry="9.0277777"
     d="M 176.38889,190.97223 A 9.0277777,9.0277777 0 1 1 158.33334,190.97223 A 9.0277777,9.0277777 0 1 1 176.38889,190.97223 z"
     transform="matrix(0.5,0,0,0.5,140.83333,-15.486114)" />
  <path
     sodipodi:type="arc"
     style="opacity:1;fill:#b9b9b9;fill-opacity:1;fill-rule:nonzero;stroke:#000000;stroke-width:5;stroke-linecap:butt;stroke-linejoin:miter;marker:none;marker-start:none;marker-mid:none;stroke-miterlimit:4;stroke-dasharray:none;stroke-dashoffset:0;stroke-opacity:1;visibility:visible;display:inline;overflow:visible;enable-background:accumulate"
     id="path3421"
     sodipodi:cx="167.36111"
     sodipodi:cy="190.97223"
     sodipodi:rx="9.0277777"
     sodipodi:ry="9.0277777"
     d="M 176.38889,190.97223 A 9.0277777,9.0277777 0 1 1 158.33334,190.97223 A 9.0277777,9.0277777 0 1 1 176.38889,190.97223 z"
     transform="matrix(0.5,0,0,0.5,100.83333,24.513886)" />
  <path
     sodipodi:type="arc"
     style="opacity:1;fill:#b9b9b9;fill-opacity:1;fill-rule:nonzero;stroke:#000000;stroke-width:5;stroke-linecap:butt;stroke-linejoin:miter;marker:none;marker-start:none;marker-mid:none;stroke-miterlimit:4;stroke-dasharray:none;stroke-dashoffset:0;stroke-opacity:1;visibility:visible;display:inline;overflow:visible;enable-background:accumulate"
     id="path3423"
     sodipodi:cx="167.36111"
     sodipodi:cy="190.97223"
     sodipodi:rx="9.0277777"
     sodipodi:ry="9.0277777"
     d="M 176.38889,190.97223 A 9.0277777,9.0277777 0 1 1 158.33334,190.97223 A 9.0277777,9.0277777 0 1 1 176.38889,190.97223 z"
     transform="matrix(0.5,0,0,0.5,100.83333,44.513885)" />
  <path
     sodipodi:type="arc"
     style="opacity:1;fill:#b9b9b9;fill-opacity:1;fill-rule:nonzero;stroke:#000000;stroke-width:5;stroke-linecap:butt;stroke-linejoin:miter;marker:none;marker-start:none;marker-mid:none;stroke-miterlimit:4;stroke-dasharray:none;stroke-dashoffset:0;stroke-opacity:1;visibility:visible;display:inline;overflow:visible;enable-background:accumulate"
     id="path3431"
     sodipodi:cx="167.36111"
     sodipodi:cy="190.97223"
     sodipodi:rx="9.0277777"
     sodipodi:ry="9.0277777"
     d="M 176.38889,190.97223 A 9.0277777,9.0277777 0 1 1 158.33334,190.97223 A 9.0277777,9.0277777 0 1 1 176.38889,190.97223 z"
     transform="matrix(0.5,0,0,0.5,160.83333,4.5138855)" />
  <path
     sodipodi:type="arc"
     style="opacity:1;fill:#b9b9b9;fill-opacity:1;fill-rule:nonzero;stroke:#000000;stroke-width:5;stroke-linecap:butt;stroke-linejoin:miter;marker:none;marker-start:none;marker-mid:none;stroke-miterlimit:4;stroke-dasharray:none;stroke-dashoffset:0;stroke-opacity:1;visibility:visible;display:inline;overflow:visible;enable-background:accumulate"
     id="path3459"
     sodipodi:cx="167.36111"
     sodipodi:cy="190.97223"
     sodipodi:rx="9.0277777"
     sodipodi:ry="9.0277777"
     d="M 176.38889,190.97223 A 9.0277777,9.0277777 0 1 1 158.33334,190.97223 A 9.0277777,9.0277777 0 1 1 176.38889,190.97223 z"
     transform="matrix(0.5,0,0,0.5,100.83333,-15.486115)" />
  <path
     sodipodi:type="arc"
     style="opacity:1;fill:#b9b9b9;fill-opacity:1;fill-rule:nonzero;stroke:#000000;stroke-width:5;stroke-linecap:butt;stroke-linejoin:miter;marker:none;marker-start:none;marker-mid:none;stroke-miterlimit:4;stroke-dasharray:none;stroke-dashoffset:0;stroke-opacity:1;visibility:visible;display:inline;overflow:visible;enable-background:accumulate"
     id="path3461"
     sodipodi:cx="167.36111"
     sodipodi:cy="190.97223"
     sodipodi:rx="9.0277777"
     sodipodi:ry="9.0277777"
     d="M 176.38889,190.97223 A 9.0277777,9.0277777 0 1 1 158.33334,190.97223 A 9.0277777,9.0277777 0 1 1 176.38889,190.97223 z"
     transform="matrix(0.5,0,0,0.5,100.83333,64.513885)" />
  <path
     sodipodi:type="arc"
     style="opacity:1;fill:#b9b9b9;fill-opacity:1;fill-rule:nonzero;stroke:#000000;stroke-width:5;stroke-linecap:butt;stroke-linejoin:miter;marker:none;marker-start:none;marker-mid:none;stroke-miterlimit:4;stroke-dasharray:none;stroke-dashoffset:0;stroke-opacity:1;visibility:visible;display:inline;overflow:visible;enable-background:accumulate"
     id="path3463"
     sodipodi:cx="167.36111"
     sodipodi:cy="190.97223"
     sodipodi:rx="9.0277777"
     sodipodi:ry="9.0277777"
     d="M 176.38889,190.97223 A 9.0277777,9.0277777 0 1 1 158.33334,190.97223 A 9.0277777,9.0277777 0 1 1 176.38889,190.97223 z"
     transform="matrix(0.5,0,0,0.5,120.83333,24.513885)" />
  <path
     sodipodi:type="arc"
     style="opacity:1;fill:#b9b9b9;fill-opacity:1;fill-rule:nonzero;stroke:#000000;stroke-width:5;stroke-linecap:butt;stroke-linejoin:miter;marker:none;marker-start:none;marker-mid:none;stroke-miterlimit:4;stroke-dasharray:none;stroke-dashoffset:0;stroke-opacity:1;visibility:visible;display:inline;overflow:visible;enable-background:accumulate"
     id="path3465"
     sodipodi:cx="167.36111"
     sodipodi:cy="190.97223"
     sodipodi:rx="9.0277777"
     sodipodi:ry="9.0277777"
     d="M 176.38889,190.97223 A 9.0277777,9.0277777 0 1 1 158.33334,190.97223 A 9.0277777,9.0277777 0 1 1 176.38889,190.97223 z"
     transform="matrix(0.5,0,0,0.5,140.83333,24.513885)" />
  <path
     sodipodi:type="arc"
     style="opacity:1;fill:#b9b9b9;fill-opacity:1;fill-rule:nonzero;stroke:#000000;stroke-width:5;stroke-linecap:butt;stroke-linejoin:miter;marker:none;marker-start:none;marker-mid:none;stroke-miterlimit:4;stroke-dasharray:none;stroke-dashoffset:0;stroke-opacity:1;visibility:visible;display:inline;overflow:visible;enable-background:accumulate"
     id="path3467"
     sodipodi:cx="167.36111"
     sodipodi:cy="190.97223"
     sodipodi:rx="9.0277777"
     sodipodi:ry="9.0277777"
     d="M 176.38889,190.97223 A 9.0277777,9.0277777 0 1 1 158.33334,190.97223 A 9.0277777,9.0277777 0 1 1 176.38889,190.97223 z"
     transform="matrix(0.5,0,0,0.5,160.83333,24.513885)" />
  <path
     sodipodi:type="arc"
     style="opacity:1;fill:#b9b9b9;fill-opacity:1;fill-rule:nonzero;stroke:#000000;stroke-width:5;stroke-linecap:butt;stroke-linejoin:miter;marker:none;marker-start:none;marker-mid:none;stroke-miterlimit:4;stroke-dasharray:none;stroke-dashoffset:0;stroke-opacity:1;visibility:visible;display:inline;overflow:visible;enable-background:accumulate"
     id="path3469"
     sodipodi:cx="167.36111"
     sodipodi:cy="190.97223"
     sodipodi:rx="9.0277777"
     sodipodi:ry="9.0277777"
     d="M 176.38889,190.97223 A 9.0277777,9.0277777 0 1 1 158.33334,190.97223 A 9.0277777,9.0277777 0 1 1 176.38889,190.97223 z"
     transform="matrix(0.5,0,0,0.5,140.83333,44.513885)" />
  <path
     sodipodi:type="arc"
     style="opacity:1;fill:#b9b9b9;fill-opacity:1;fill-rule:nonzero;stroke:#000000;stroke-width:5;stroke-linecap:butt;stroke-linejoin:miter;marker:none;marker-start:none;marker-mid:none;stroke-miterlimit:4;stroke-dasharray:none;stroke-dashoffset:0;stroke-opacity:1;visibility:visible;display:inline;overflow:visible;enable-background:accumulate"
     id="path3471"
     sodipodi:cx="167.36111"
     sodipodi:cy="190.97223"
     sodipodi:rx="9.0277777"
     sodipodi:ry="9.0277777"
     d="M 176.38889,190.97223 A 9.0277777,9.0277777 0 1 1 158.33334,190.97223 A 9.0277777,9.0277777 0 1 1 176.38889,190.97223 z"
     transform="matrix(0.5,0,0,0.5,160.83333,64.513885)" />
  <path
     sodipodi:type="arc"
     style="opacity:1;fill:#ffffff;fill-opacity:1;fill-rule:nonzero;stroke:#000000;stroke-width:2;stroke-linecap:butt;stroke-linejoin:miter;marker:none;marker-start:none;marker-mid:none;stroke-miterlimit:4;stroke-dasharray:none;stroke-dashoffset:0;stroke-opacity:1;visibility:visible;display:inline;overflow:visible;enable-background:accumulate"
     id="path3495"
     sodipodi:cx="345.13889"
     sodipodi:cy="100"
     sodipodi:rx="9.7222223"
     sodipodi:ry="9.7222223"
     d="M 354.86111,100 A 9.7222223,9.7222223 0 1 1 335.41666,100 A 9.7222223,9.7222223 0 1 1 354.86111,100 z"
     transform="translate(-17.459817,38.330528)" />
  <path
     sodipodi:type="arc"
     style="opacity:1;fill:#ffffff;fill-opacity:1;fill-rule:nonzero;stroke:#000000;stroke-width:2;stroke-linecap:butt;stroke-linejoin:miter;marker:none;marker-start:none;marker-mid:none;stroke-miterlimit:4;stroke-dasharray:none;stroke-dashoffset:0;stroke-opacity:1;visibility:visible;display:inline;overflow:visible;enable-background:accumulate"
     id="path3573"
     sodipodi:cx="345.13889"
     sodipodi:cy="100"
     sodipodi:rx="9.7222223"
     sodipodi:ry="9.7222223"
     d="M 354.86111,100 A 9.7222223,9.7222223 0 1 1 335.41666,100 A 9.7222223,9.7222223 0 1 1 354.86111,100 z"
     transform="translate(-58.33333,88.888888)" />
  <path
     sodipodi:type="arc"
     style="opacity:1;fill:#ffffff;fill-opacity:1;fill-rule:nonzero;stroke:#000000;stroke-width:2;stroke-linecap:butt;stroke-linejoin:miter;marker:none;marker-start:none;marker-mid:none;stroke-miterlimit:4;stroke-dasharray:none;stroke-dashoffset:0;stroke-opacity:1;visibility:visible;display:inline;overflow:visible;enable-background:accumulate"
     id="path3579"
     sodipodi:cx="345.13889"
     sodipodi:cy="100"
     sodipodi:rx="9.7222223"
     sodipodi:ry="9.7222223"
     d="M 354.86111,100 A 9.7222223,9.7222223 0 1 1 335.41666,100 A 9.7222223,9.7222223 0 1 1 354.86111,100 z"
     transform="matrix(-1,0,0,-1,443.40278,282.63889)" />
  <path
     sodipodi:type="arc"
     style="opacity:1;fill:#ffffff;fill-opacity:1;fill-rule:nonzero;stroke:#000000;stroke-width:2;stroke-linecap:butt;stroke-linejoin:miter;marker:none;marker-start:none;marker-mid:none;stroke-miterlimit:4;stroke-dasharray:none;stroke-dashoffset:0;stroke-opacity:1;visibility:visible;display:inline;overflow:visible;enable-background:accumulate"
     id="path3583"
     sodipodi:cx="345.13889"
     sodipodi:cy="100"
     sodipodi:rx="9.7222223"
     sodipodi:ry="9.7222223"
     d="M 354.86111,100 A 9.7222223,9.7222223 0 1 1 335.41666,100 A 9.7222223,9.7222223 0 1 1 354.86111,100 z"
     transform="matrix(1,0,0,-1,-204.86111,153.47222)" />
</svg>
