<?xml version="1.0" encoding="UTF-8" standalone="no"?>
<!-- Created with Inkscape (http://www.inkscape.org/) -->
<svg
   xmlns:dc="http://purl.org/dc/elements/1.1/"
   xmlns:cc="http://creativecommons.org/ns#"
   xmlns:rdf="http://www.w3.org/1999/02/22-rdf-syntax-ns#"
   xmlns:svg="http://www.w3.org/2000/svg"
   xmlns="http://www.w3.org/2000/svg"
   xmlns:xlink="http://www.w3.org/1999/xlink"
   xmlns:sodipodi="http://sodipodi.sourceforge.net/DTD/sodipodi-0.dtd"
   xmlns:inkscape="http://www.inkscape.org/namespaces/inkscape"
   id="svg2405"
   sodipodi:version="0.32"
   inkscape:version="0.46"
   width="83"
   height="64"
   version="1.0"
   sodipodi:docname="document.svg"
   inkscape:output_extension="org.inkscape.output.svg.inkscape">
  <metadata
     id="metadata2410">
    <rdf:RDF>
      <cc:Work
         rdf:about="">
        <dc:format>image/svg+xml</dc:format>
        <dc:type
           rdf:resource="http://purl.org/dc/dcmitype/StillImage" />
      </cc:Work>
    </rdf:RDF>
  </metadata>
  <defs
     id="defs2408">
    <linearGradient
       inkscape:collect="always"
       id="linearGradient5018">
      <stop
         style="stop-color:#f4f4f4;stop-opacity:1;"
         offset="0"
         id="stop5020" />
      <stop
         style="stop-color:#f4f4f4;stop-opacity:0;"
         offset="1"
         id="stop5022" />
    </linearGradient>
    <linearGradient
       id="linearGradient4666">
      <stop
         style="stop-color:#9f9f9f;stop-opacity:1;"
         offset="0"
         id="stop4668" />
      <stop
         style="stop-color:#ffffff;stop-opacity:1;"
         offset="1"
         id="stop4670" />
    </linearGradient>
    <linearGradient
       id="linearGradient4650">
      <stop
         style="stop-color:#ffffff;stop-opacity:1;"
         offset="0"
         id="stop4652" />
      <stop
         style="stop-color:#d5d5d5;stop-opacity:1;"
         offset="1"
         id="stop4654" />
    </linearGradient>
    <linearGradient
       id="linearGradient3202">
      <stop
         style="stop-color:#ffffff;stop-opacity:1;"
         offset="0"
         id="stop3204" />
      <stop
         style="stop-color:#ffffff;stop-opacity:0;"
         offset="1"
         id="stop3206" />
    </linearGradient>
    <inkscape:perspective
       sodipodi:type="inkscape:persp3d"
       inkscape:vp_x="0 : 526.18109 : 1"
       inkscape:vp_y="0 : 1000 : 0"
       inkscape:vp_z="744.09448 : 526.18109 : 1"
       inkscape:persp3d-origin="372.04724 : 350.78739 : 1"
       id="perspective2412" />
    <filter
       inkscape:collect="always"
       id="filter4899"
       x="-0.2193366"
       width="1.4386732"
       y="-0.22491249"
       height="1.449825">
      <feGaussianBlur
         inkscape:collect="always"
         stdDeviation="1.2098713"
         id="feGaussianBlur4901" />
    </filter>
    <linearGradient
       inkscape:collect="always"
       xlink:href="#linearGradient4650"
       id="linearGradient4947"
       gradientUnits="userSpaceOnUse"
       x1="42.089626"
       y1="41.67128"
       x2="42.089626"
       y2="14.390466" />
    <linearGradient
       inkscape:collect="always"
       xlink:href="#linearGradient4666"
       id="linearGradient4949"
       gradientUnits="userSpaceOnUse"
       x1="53.286976"
       y1="17.138924"
       x2="50.165794"
       y2="20.260105" />
    <clipPath
       clipPathUnits="userSpaceOnUse"
       id="clipPath4968">
      <path
         sodipodi:nodetypes="ccsccscccc"
         id="path4970"
         d="M 24.335267,11.830714 L 43.460267,11.830714 C 44.284022,11.830714 45.198982,12.276974 45.897767,12.736964 C 46.596552,13.196954 47.085267,13.643214 47.085267,13.643214 L 53.741517,19.861964 C 53.741517,19.861964 54.441618,20.485193 55.147767,21.330714 C 55.853916,22.176235 56.522767,23.253751 56.522767,23.986964 L 56.522767,54.486964 L 24.022767,54.486964 L 24.335267,11.830714 z"
         style="opacity:1;fill:#bfbfbf;fill-opacity:1;fill-rule:nonzero;stroke:none;stroke-width:0.5;stroke-linecap:butt;stroke-linejoin:miter;marker:none;stroke-miterlimit:3.70000005;stroke-dasharray:none;stroke-dashoffset:0;stroke-opacity:1;visibility:visible;display:inline;overflow:visible;enable-background:accumulate" />
    </clipPath>
    <filter
       inkscape:collect="always"
       id="filter4990">
      <feGaussianBlur
         inkscape:collect="always"
         stdDeviation="0.19039063"
         id="feGaussianBlur4992" />
    </filter>
    <clipPath
       clipPathUnits="userSpaceOnUse"
       id="clipPath4998">
      <path
         style="opacity:1;fill:#bfbfbf;fill-opacity:1;fill-rule:nonzero;stroke:none;stroke-width:0.5;stroke-linecap:butt;stroke-linejoin:miter;marker:none;stroke-miterlimit:3.70000005;stroke-dasharray:none;stroke-dashoffset:0;stroke-opacity:1;visibility:visible;display:inline;overflow:visible;enable-background:accumulate"
         d="M 25.40625,8.6875 L 44.53125,8.6875 C 45.355005,8.6875 46.269965,9.13376 46.96875,9.59375 C 47.667535,10.05374 48.15625,10.5 48.15625,10.5 L 54.8125,16.71875 C 54.8125,16.71875 55.512601,17.341979 56.21875,18.1875 C 56.924899,19.033021 57.59375,20.110537 57.59375,20.84375 L 57.59375,51.34375 L 25.09375,51.34375 L 25.40625,8.6875 z"
         id="path5000"
         sodipodi:nodetypes="ccsccscccc" />
    </clipPath>
    <filter
       inkscape:collect="always"
       id="filter5014">
      <feGaussianBlur
         inkscape:collect="always"
         stdDeviation="1.1427646"
         id="feGaussianBlur5016" />
    </filter>
    <linearGradient
       inkscape:collect="always"
       xlink:href="#linearGradient5018"
       id="linearGradient5024"
       x1="25.09375"
       y1="30.015625"
       x2="47.445938"
       y2="30.015625"
       gradientUnits="userSpaceOnUse" />
    <linearGradient
       inkscape:collect="always"
       xlink:href="#linearGradient4650"
       id="linearGradient5059"
       gradientUnits="userSpaceOnUse"
       x1="42.089626"
       y1="41.67128"
       x2="42.089626"
       y2="14.390466" />
    <linearGradient
       inkscape:collect="always"
       xlink:href="#linearGradient5018"
       id="linearGradient5061"
       gradientUnits="userSpaceOnUse"
       x1="25.09375"
       y1="30.015625"
       x2="47.445938"
       y2="30.015625" />
    <linearGradient
       inkscape:collect="always"
       xlink:href="#linearGradient4666"
       id="linearGradient5063"
       gradientUnits="userSpaceOnUse"
       x1="53.286976"
       y1="17.138924"
       x2="50.165794"
       y2="20.260105" />
  </defs>
  <sodipodi:namedview
     inkscape:window-height="730"
     inkscape:window-width="1024"
     inkscape:pageshadow="2"
     inkscape:pageopacity="0.0"
     guidetolerance="10.0"
     gridtolerance="10.0"
     objecttolerance="10.0"
     borderopacity="1.0"
     bordercolor="#666666"
     pagecolor="#ffffff"
     id="base"
     showgrid="false"
     showguides="true"
     inkscape:guide-bbox="true"
     inkscape:zoom="3.3012048"
     inkscape:cx="28.982388"
     inkscape:cy="34.998593"
     inkscape:window-x="0"
     inkscape:window-y="20"
     inkscape:current-layer="svg2405" />
  <g
     style="display:inline"
     id="g5046"
     transform="translate(-5.3015684,-0.1354415)">
    <path
       sodipodi:nodetypes="cccccccc"
       id="path4911"
       d="M 25.696202,13.251722 L 45.083063,13.251722 C 46.903872,13.251722 48.86956,15.14497 48.86956,15.14497 L 55.533794,21.354824 C 55.533794,21.354824 58.411531,23.929642 58.411531,25.67143 L 58.411531,56.41778 L 25.393282,56.41778 L 25.696202,13.251722 z"
       style="opacity:0.98999999;fill:#868686;fill-opacity:1;fill-rule:nonzero;stroke:none;stroke-width:0.5;stroke-linecap:butt;stroke-linejoin:miter;marker:none;marker-start:none;marker-mid:none;marker-end:none;stroke-miterlimit:3.70000005;stroke-dasharray:none;stroke-dashoffset:0;stroke-opacity:1;visibility:visible;display:inline;overflow:visible;filter:url(#filter5014);enable-background:accumulate" />
    <path
       style="opacity:1;fill:url(#linearGradient5059);fill-opacity:1;fill-rule:nonzero;stroke:#bfbfbf;stroke-width:0.5;stroke-linecap:butt;stroke-linejoin:miter;marker:none;marker-start:none;marker-mid:none;marker-end:none;stroke-miterlimit:3.70000005;stroke-dasharray:none;stroke-dashoffset:0;stroke-opacity:1;visibility:visible;display:inline;overflow:visible;enable-background:accumulate"
       d="M 25.142336,12.42792 L 44.529197,12.42792 C 46.350006,12.42792 48.315694,14.321168 48.315694,14.321168 L 54.979928,20.531022 C 54.979928,20.531022 57.857665,23.10584 57.857665,24.847628 L 57.857665,55.593978 L 24.839416,55.593978 L 25.142336,12.42792 z"
       id="path3200"
       sodipodi:nodetypes="cccccccc" />
    <path
       clip-path="url(#clipPath4968)"
       transform="translate(1.0709829,0.8567864)"
       d="M 47.09375,11.84375 C 46.481068,11.954861 45.972137,12.380332 45.754204,12.963624 C 45.53627,13.546916 45.641528,14.201865 46.03125,14.6875 C 45.997812,14.645408 46.304153,15.062863 46.53125,15.40625 C 46.620203,15.540754 46.694024,15.650887 46.75,15.75 L 46.75,21.9375 C 46.746025,22.411124 46.932415,22.866505 47.26733,23.20142 C 47.602245,23.536335 48.057626,23.722725 48.53125,23.71875 L 55.21875,23.71875 C 54.870444,23.71875 55.14346,23.697062 55.375,23.84375 C 55.60654,23.990438 55.829869,24.185137 55.90625,24.25 C 56.573701,24.875754 57.608485,24.888333 58.29095,24.278989 C 58.973415,23.669645 59.077688,22.640052 58.53125,21.90625 C 58.017852,21.148202 57.428255,20.512289 56.96875,20.03125 C 56.738997,19.790731 56.551625,19.576873 56.40625,19.4375 C 56.280173,19.316628 56.210335,19.270733 56.1875,19.25 C 56.176953,19.239714 56.166536,19.229297 56.15625,19.21875 L 49.53125,13.03125 C 49.510625,13.020422 49.489787,13.010004 49.46875,13 C 49.46875,13 49.031354,12.587637 48.4375,12.15625 C 48.050458,11.87425 47.565509,11.761471 47.09375,11.84375 z"
       id="path4845"
       style="opacity:0.50244715;fill:#000000;fill-opacity:1;fill-rule:nonzero;stroke:none;stroke-width:0.5;stroke-linecap:butt;stroke-linejoin:miter;marker:none;marker-start:none;marker-mid:none;marker-end:none;stroke-miterlimit:3.70000005;stroke-dasharray:none;stroke-dashoffset:0;stroke-opacity:1;visibility:visible;display:inline;overflow:visible;filter:url(#filter4899);enable-background:accumulate"
       xlink:href="#path4674"
       inkscape:original="M 47.40625 13.59375 C 47.50245 13.71485 48.53125 15.0653 48.53125 15.5 L 48.53125 21.9375 L 55.21875 21.9375 C 55.90985 21.9375 56.8808 22.75195 57.0625 22.90625 C 56.2103 21.64795 54.96875 20.53135 54.96875 20.53125 L 48.3125 14.3125 C 48.3125 14.3125 47.92785 13.97265 47.40625 13.59375 z "
       inkscape:radius="1.7663102"
       sodipodi:type="inkscape:offset"
       inkscape:href="#path4674" />
    <path
       transform="translate(0.3029197,4)"
       clip-path="url(#clipPath4998)"
       style="opacity:1;fill:none;fill-opacity:1;fill-rule:nonzero;stroke:url(#linearGradient5061);stroke-width:1;stroke-linecap:butt;stroke-linejoin:miter;marker:none;stroke-miterlimit:3.70000005;stroke-dasharray:none;stroke-dashoffset:0;stroke-opacity:1;visibility:visible;display:inline;overflow:visible;filter:url(#filter4990);enable-background:accumulate"
       d="M 25.40625,8.6875 L 44.53125,8.6875 C 45.355005,8.6875 46.269965,9.13376 46.96875,9.59375 C 47.667535,10.05374 48.15625,10.5 48.15625,10.5 L 54.8125,16.71875 C 54.8125,16.71875 55.512601,17.341979 56.21875,18.1875 C 56.924899,19.033021 57.59375,20.110537 57.59375,20.84375 L 57.59375,51.34375 L 25.09375,51.34375 L 25.40625,8.6875 z"
       id="path4972"
       sodipodi:nodetypes="ccsccscccc" />
    <path
       id="path3190"
       d="M 47.40625,13.59375 C 47.502481,13.714858 48.531249,15.065338 48.53125,15.5 L 48.53125,21.9375 L 55.21875,21.9375 C 55.909855,21.9375 56.88081,22.751891 57.0625,22.90625 C 56.210283,21.647917 54.968751,20.531251 54.96875,20.53125 L 48.3125,14.3125 C 48.3125,14.3125 47.927832,13.972699 47.40625,13.59375 z"
       style="opacity:1;fill:url(#linearGradient5063);fill-opacity:1;fill-rule:nonzero;stroke:#bfbfbf;stroke-width:0.5;stroke-linecap:butt;stroke-linejoin:miter;marker:none;marker-start:none;marker-mid:none;marker-end:none;stroke-miterlimit:3.70000005;stroke-dasharray:none;stroke-dashoffset:0;stroke-opacity:1;visibility:visible;overflow:visible;enable-background:accumulate" />
  </g>
</svg>
