<?xml version="1.0" encoding="UTF-8" standalone="no"?>
<!-- Created with Inkscape (http://www.inkscape.org/) -->
<svg
   xmlns:dc="http://purl.org/dc/elements/1.1/"
   xmlns:cc="http://creativecommons.org/ns#"
   xmlns:rdf="http://www.w3.org/1999/02/22-rdf-syntax-ns#"
   xmlns:svg="http://www.w3.org/2000/svg"
   xmlns="http://www.w3.org/2000/svg"
   xmlns:sodipodi="http://sodipodi.sourceforge.net/DTD/sodipodi-0.dtd"
   xmlns:inkscape="http://www.inkscape.org/namespaces/inkscape"
   width="744.09448819"
   height="1052.3622047"
   id="svg4217"
   sodipodi:version="0.32"
   inkscape:version="0.46"
   sodipodi:docname="orc-app.svg"
   inkscape:output_extension="org.inkscape.output.svg.inkscape"
   inkscape:export-filename="/home/adrian/ut/orc/OrcJava/icons/orc-app.png"
   inkscape:export-xdpi="164.57001"
   inkscape:export-ydpi="164.57001">
  <defs
     id="defs4219">
    <linearGradient
       id="linearGradient5101">
      <stop
         style="stop-color:#000000;stop-opacity:1;"
         offset="0"
         id="stop5103" />
      <stop
         style="stop-color:#ffffff;stop-opacity:1;"
         offset="1"
         id="stop5105" />
    </linearGradient>
    <inkscape:perspective
       sodipodi:type="inkscape:persp3d"
       inkscape:vp_x="0 : 526.18109 : 1"
       inkscape:vp_y="0 : 1000 : 0"
       inkscape:vp_z="744.09448 : 526.18109 : 1"
       inkscape:persp3d-origin="372.04724 : 350.78739 : 1"
       id="perspective4225" />
    <clipPath
       clipPathUnits="userSpaceOnUse"
       id="clipPath3353">
      <path
         sodipodi:type="arc"
         style="opacity:1;fill:#ffffff;fill-opacity:1;fill-rule:nonzero;stroke:#000000;stroke-width:3.31791234;stroke-linecap:butt;stroke-linejoin:miter;marker:none;marker-start:none;marker-mid:none;marker-end:none;stroke-miterlimit:4;stroke-dasharray:none;stroke-dashoffset:0;stroke-opacity:1;visibility:visible;display:inline;overflow:visible;enable-background:accumulate"
         id="path3347"
         sodipodi:cx="-208.09143"
         sodipodi:cy="476.57523"
         sodipodi:rx="173.74623"
         sodipodi:ry="76.771591"
         d="M -34.3452,476.57523 A 173.74623,76.771591 0 1 1 -381.83766,476.57523 A 173.74623,76.771591 0 1 1 -34.3452,476.57523 z"
         transform="matrix(2.4134275,0,0,3.6461776,870.91924,-1189.382)" />
    </clipPath>
    <filter
       inkscape:collect="always"
       id="filter3235"
       x="-0.22017246"
       width="1.4403449"
       y="-0.26375209"
       height="1.5275042">
      <feGaussianBlur
         inkscape:collect="always"
         stdDeviation="22.607812"
         id="feGaussianBlur3237" />
    </filter>
    <filter
       inkscape:collect="always"
       id="filter3249"
       x="-0.11145772"
       width="1.2229154"
       y="-0.12996034"
       height="1.2599207">
      <feGaussianBlur
         inkscape:collect="always"
         stdDeviation="13.282045"
         id="feGaussianBlur3251" />
    </filter>
    <filter
       inkscape:collect="always"
       id="filter3464">
      <feGaussianBlur
         inkscape:collect="always"
         stdDeviation="6.9287843"
         id="feGaussianBlur3466" />
    </filter>
  </defs>
  <sodipodi:namedview
     id="base"
     pagecolor="#ffffff"
     bordercolor="#666666"
     borderopacity="1.0"
     gridtolerance="10000"
     guidetolerance="10"
     objecttolerance="10"
     inkscape:pageopacity="0.0"
     inkscape:pageshadow="2"
     inkscape:zoom="1.4437604"
     inkscape:cx="397.37868"
     inkscape:cy="608.21896"
     inkscape:document-units="px"
     inkscape:current-layer="layer1"
     showgrid="false"
     inkscape:window-width="1024"
     inkscape:window-height="750"
     inkscape:window-x="0"
     inkscape:window-y="0" />
  <metadata
     id="metadata4222">
    <rdf:RDF>
      <cc:Work
         rdf:about="">
        <dc:format>image/svg+xml</dc:format>
        <dc:type
           rdf:resource="http://purl.org/dc/dcmitype/StillImage" />
      </cc:Work>
    </rdf:RDF>
  </metadata>
  <g
     inkscape:label="Layer 1"
     inkscape:groupmode="layer"
     id="layer1">
    <rect
       style="opacity:1;fill:none;fill-opacity:1;fill-rule:nonzero;stroke:none;stroke-width:20;stroke-linecap:butt;stroke-linejoin:miter;marker:none;marker-start:none;marker-mid:none;marker-end:none;stroke-miterlimit:4;stroke-dasharray:none;stroke-dashoffset:0;stroke-opacity:1;visibility:visible;display:inline;overflow:visible;enable-background:accumulate"
       id="rect3450"
       width="280"
       height="280"
       x="208.56123"
       y="274.19315" />
    <path
       sodipodi:type="inkscape:offset"
       inkscape:radius="2.4397173"
       inkscape:original="M 412.5 304.3125 C 411.96428 304.79831 411.44198 305.29544 410.90625 305.78125 C 399.18471 315.29907 388.9768 331.57579 395.0625 346.90625 C 397.42682 351.40057 400.26754 357.75968 405.4375 359.3125 L 405.40625 359.53125 C 395.72359 370.30661 384.61744 373.42781 372.5625 374.71875 C 360.92503 375.96498 348.46518 375.48687 336.0625 378.5 C 336.98441 374.93912 337.63182 371.10052 336.3125 366.96875 C 335.80926 365.39274 335.04059 363.79289 333.9375 362.1875 L 335.46875 360.65625 C 336.99561 361.80779 339.0938 362.43135 341.03125 362.375 C 353.76868 364.19431 363.39651 352.30209 367.125 341.5625 C 369.4621 335.95657 370.71914 329.97764 372.03125 324.03125 C 371.10417 324.125 370.17708 324.21875 369.25 324.3125 C 352.17055 324.43296 334.89845 337.2316 333.625 354.875 C 333.29051 355.86151 333.24889 356.7505 333.40625 357.5625 L 330.65625 358.34375 C 328.64242 356.38841 326.06244 354.42379 322.8125 352.4375 L 322.4375 352.21875 C 322.52961 351.34253 322.43064 350.40349 322.0625 349.375 C 319.46363 340.24535 311.09307 332.18121 301.03125 333.15625 C 293.19411 333.42962 285.98149 337.02479 279.46875 341.09375 C 285.56724 352.1985 297.06871 363.59919 310.71875 361.03125 C 313.44843 360.21414 317.26963 358.80815 319.8125 356.625 C 321.294 357.46755 325.94562 360.51688 327.28125 366.4375 C 327.79577 368.71827 326.88931 372.25374 325.375 375.75 C 323.88421 379.19196 321.88221 382.61064 320.34375 385 C 313.11874 389.64803 307.59617 395.61148 304.21875 399.78125 C 296.44902 395.3905 287.37288 393.18757 276.96875 393.1875 C 259.86871 393.18761 246.25623 399.26886 236.15625 411.46875 C 227.05625 422.46884 222.5 435.94382 222.5 451.84375 C 222.5 467.54379 227.05625 480.87504 236.15625 491.875 C 246.15623 503.975 259.7687 510.03124 276.96875 510.03125 C 293.96868 510.03125 307.52491 503.89375 317.625 491.59375 C 326.6249 480.49378 331.12489 466.99379 331.125 451.09375 C 331.12492 439.29714 328.61749 428.88445 323.65625 419.875 C 324.52326 412.06477 327.60782 399.02024 338.3125 391.84375 C 338.33319 391.83194 338.3543 391.82428 338.375 391.8125 C 346.0224 387.46063 353.92894 385.29699 361.71875 383.75 C 361.71875 383.75 365.33117 383.41342 369.5625 383.5625 C 373.79383 383.71158 378.63231 384.46434 380.71875 386.09375 C 384.94627 389.39525 385.44036 393.67131 385.5 394.46875 C 385.17317 396.52891 385.20482 398.76683 385.3125 400.53125 C 387.02787 412.78614 398.07309 417.41967 406.8125 419.65625 C 410.47386 421.76891 410.93561 418.70727 410.46875 414.9375 C 410.01818 401.88045 401.33594 389.36278 390.21875 389.375 C 390.01029 389.327 389.80635 389.27489 389.59375 389.25 C 389.00481 386.20515 387.53079 382.30457 383.9375 379.34375 C 393.56151 376.78321 402.1316 372.40615 407.96875 362.125 L 408.34375 362.15625 C 408.16697 362.72546 408.05986 363.35189 408.0625 364.09375 C 407.41905 374.63907 417.17488 382.20595 426.53125 382.8125 C 432.26675 383.77714 438.08764 383.40345 443.84375 383 C 441.26976 371.12632 432.80836 359.25974 420.34375 358.28125 C 417.2313 358.23366 412.49719 357.84599 409.90625 359.875 L 409.28125 359.53125 L 409.09375 359.09375 C 420.96061 354.80043 429.39111 341.54866 425.40625 328.96875 C 423.40857 319.83659 418.37314 311.58741 412.5 304.3125 z M 277.40625 417.46875 C 288.90618 417.46884 296.96244 423.38758 301.5625 435.1875 C 305.86242 446.18756 305.74992 457.18754 301.25 468.1875 C 296.34993 479.98753 288.26867 485.87503 276.96875 485.875 C 268.2687 485.87502 261.34996 482.31878 256.25 475.21875 C 251.54997 468.81879 249.21873 461.0438 249.21875 451.84375 C 249.21872 442.54382 251.54997 434.68131 256.25 428.28125 C 261.44996 421.08134 268.50621 417.46885 277.40625 417.46875 z M 352.40625 422.125 C 349.40624 422.12509 346.96251 423.04384 345.0625 424.84375 C 342.8625 426.84383 341.75 429.73132 341.75 433.53125 L 341.75 497.71875 C 341.75 501.71876 342.88749 504.83124 345.1875 507.03125 C 347.18749 509.03125 349.74374 510.03124 352.84375 510.03125 C 356.04374 510.03125 358.79373 508.91876 361.09375 506.71875 C 363.49373 504.51875 364.68746 501.51876 364.6875 497.71875 L 364.6875 462.9375 C 364.68748 457.83755 367.24372 453.97507 372.34375 451.375 C 377.14371 449.57506 381.94996 447.76882 386.75 445.96875 C 391.94995 443.66881 394.56246 440.39382 394.5625 436.09375 C 394.56245 433.19382 393.44995 430.21883 391.25 427.21875 C 389.14995 424.11883 386.70621 422.59384 383.90625 422.59375 C 376.20622 422.59384 369.78746 425.92509 364.6875 432.625 C 364.68748 429.52508 363.41249 426.94383 360.8125 424.84375 C 358.41248 423.04384 355.60624 422.1251 352.40625 422.125 z M 436.84375 422.125 C 425.04372 422.12509 415.48748 426.81884 408.1875 436.21875 C 401.4875 444.81881 398.12501 455.06881 398.125 466.96875 C 398.125 478.76878 401.43123 488.63126 408.03125 496.53125 C 415.53123 505.43125 425.94998 509.87501 439.25 509.875 C 442.34996 509.875 446.23745 509.12501 450.9375 507.625 C 456.13744 506.025 460.24994 504.1375 463.25 501.9375 C 467.04993 499.13751 468.93742 495.71877 468.9375 491.71875 C 468.93743 488.91877 468.04994 486.53126 466.25 484.53125 C 464.54993 482.53128 462.49369 481.53126 460.09375 481.53125 C 459.09369 481.53128 458.09369 481.72504 457.09375 482.125 C 449.2937 485.12502 443.23745 486.62503 438.9375 486.625 C 433.63746 486.62502 429.44372 484.56878 426.34375 480.46875 C 423.54373 476.86878 422.12499 472.42505 422.125 467.125 C 422.12498 461.32505 423.73747 456.38129 426.9375 452.28125 C 430.53747 447.68131 435.39997 445.37507 441.5 445.375 C 445.99995 445.37506 451.38744 446.6813 457.6875 449.28125 C 458.38744 449.58131 459.19369 449.71881 460.09375 449.71875 C 462.29369 449.71881 464.29368 448.88755 466.09375 447.1875 C 467.89368 445.48756 468.78117 443.31882 468.78125 440.71875 C 468.78118 436.61882 466.47494 432.53757 461.875 428.4375 C 457.37494 424.23758 449.0437 422.1251 436.84375 422.125 z "
       style="fill:#000000;fill-opacity:1;fill-rule:nonzero;stroke:none;stroke-width:5;stroke-linecap:butt;stroke-linejoin:miter;marker:none;marker-start:none;marker-mid:none;marker-end:none;stroke-miterlimit:4;stroke-dasharray:none;stroke-dashoffset:0;stroke-opacity:1;visibility:visible;display:inline;overflow:visible;filter:url(#filter3464);enable-background:accumulate"
       id="path3322"
       d="M 412.25,301.875 C 411.7371,301.93266 411.25569,302.15148 410.875,302.5 C 410.34481,302.9808 409.85264,303.43934 409.375,303.875 C 409.3439,303.90336 409.31222,303.94066 409.28125,303.96875 C 403.19914,308.92968 397.52987,315.58517 394.09375,323.15625 C 390.63877,330.76889 389.45656,339.43728 392.78125,347.8125 C 392.81912,347.88752 392.86084,347.96053 392.90625,348.03125 C 394.78483,351.60223 397.0559,357.05099 401.46875,360.03125 C 392.79911,368.50645 383.21577,371.11364 372.3125,372.28125 C 361.98496,373.3872 350.64707,373.21211 339.0625,375.46875 C 339.52082,372.60594 339.68858,369.54961 338.625,366.21875 C 338.42476,365.59166 337.96286,364.97278 337.6875,364.34375 C 338.66788,364.61385 339.67355,364.7436 340.6875,364.75 L 340.6875,364.78125 C 340.75206,364.79047 340.81057,364.77266 340.875,364.78125 C 340.94899,364.78051 341.0198,364.81465 341.09375,364.8125 L 341.09375,364.78125 C 348.11325,365.63924 354.34269,362.81856 359.09375,358.46875 C 363.90266,354.06598 367.38131,348.18131 369.375,342.5 C 369.3901,342.45697 369.42257,342.418 369.4375,342.375 L 369.40625,342.375 C 371.82824,336.52407 373.10655,330.45265 374.40625,324.5625 C 374.58049,323.79654 374.37529,322.99353 373.85496,322.40506 C 373.33462,321.81658 372.56278,321.51461 371.78125,321.59375 C 370.85417,321.6875 369.92708,321.78125 369,321.875 L 369,321.90625 C 350.985,322.13986 333.03434,335.35974 331.3125,354.09375 C 331.29355,354.29994 331.20248,354.47999 331.1875,354.6875 C 331.11972,354.95134 331.07146,355.20674 331.03125,355.46875 C 329.22617,353.87516 327.15839,352.28512 324.65625,350.71875 C 324.58822,350.04823 324.63857,349.40528 324.40625,348.71875 C 324.40261,348.70598 324.37866,348.70027 324.375,348.6875 C 324.36053,348.64527 324.39012,348.60474 324.375,348.5625 L 324.34375,348.5625 C 321.43231,338.58193 312.27966,329.71014 300.9375,330.71875 C 300.88447,330.72347 300.83437,330.7136 300.78125,330.71875 L 300.78125,330.75 C 292.31735,331.09029 284.79689,334.90191 278.1875,339.03125 C 277.08704,339.71806 276.71636,341.14587 277.34375,342.28125 C 280.53493,348.09207 285.08518,353.95795 290.8125,358.15625 C 296.53982,362.35455 303.56417,364.86577 311.15625,363.4375 C 311.24063,363.42108 311.32408,363.40022 311.40625,363.375 C 313.76961,362.66754 316.86747,361.39366 319.625,359.5625 C 321.25836,360.66843 323.97727,362.85072 324.90625,366.96875 C 325.16631,368.12153 324.54203,371.50959 323.125,374.78125 C 321.77104,377.90729 319.93079,381.04929 318.46875,383.34375 C 311.93465,387.66134 307.04579,392.75658 303.625,396.8125 C 295.84643,392.81804 286.96697,390.75007 276.96875,390.75 C 259.2903,390.75011 244.81394,397.18369 234.28125,409.90625 C 224.81244,421.35216 220.0625,435.47774 220.0625,451.84375 C 220.0625,468.0158 224.81908,481.99976 234.28125,493.4375 C 244.71917,506.06741 259.19601,512.46874 276.96875,512.46875 C 294.55589,512.46875 308.97306,505.97608 319.5,493.15625 C 319.51051,493.14593 319.52093,493.13551 319.53125,493.125 C 328.89006,481.58238 333.56239,467.4541 333.5625,451.09375 C 333.56242,439.31318 331.06081,428.76715 326.1875,419.5625 C 327.09563,412.08371 330.11375,400.37266 339.53125,393.96875 C 339.55053,393.95564 339.57442,393.95056 339.59375,393.9375 C 346.88444,389.78862 354.45337,387.70972 362.09375,386.1875 C 362.23377,386.17478 365.49943,385.86015 369.46875,386 C 371.47271,386.0706 373.65299,386.28344 375.46875,386.65625 C 377.28451,387.02906 378.75292,387.66746 379.21875,388.03125 C 382.71355,390.76053 383.02922,394.21133 383.0625,394.65625 C 382.78418,396.8097 382.77114,398.98574 382.875,400.6875 C 382.88298,400.75038 382.8934,400.81293 382.90625,400.875 C 383.85774,407.67258 387.53303,412.55154 392,415.8125 C 396.39062,419.01772 401.50019,420.80994 405.96875,421.96875 C 406.995,422.51715 408.03099,422.88655 409.21875,422.78125 C 410.55223,422.66303 411.80977,421.66513 412.34375,420.65625 C 413.37298,418.71166 413.15152,416.82197 412.90625,414.84375 C 412.9037,414.76972 412.87804,414.69898 412.875,414.625 C 412.58927,407.66215 410.19363,400.93066 406.28125,395.78125 C 402.58389,390.91484 397.38775,387.52233 391.4375,387.09375 C 390.85888,384.95613 390.00791,382.66839 388.3125,380.4375 C 394.92329,378.22485 401.1233,374.85757 406.09375,368.96875 C 406.97809,372.89502 409.06341,376.3503 411.875,378.96875 C 415.77527,382.60108 420.93237,384.8229 426.125,385.21875 C 426.15563,385.22109 426.18811,385.21654 426.21875,385.21875 C 426.27184,385.22755 426.32192,385.24141 426.375,385.25 C 432.39153,386.22342 438.3141,385.83603 444,385.4375 C 444.71102,385.39018 445.36582,385.0344 445.79241,384.46361 C 446.21901,383.89281 446.37476,383.16406 446.21875,382.46875 C 444.85014,376.15542 441.94214,369.87921 437.625,364.9375 C 433.30786,359.99579 427.48773,356.38984 420.53125,355.84375 C 420.47918,355.84208 420.42707,355.84208 420.375,355.84375 C 420.06552,355.83902 419.54218,355.82966 419.1875,355.8125 C 426.75918,349.13288 430.92039,338.68394 427.78125,328.4375 C 427.76703,328.37249 427.73326,328.31491 427.71875,328.25 C 427.71655,328.24017 427.72095,328.22858 427.71875,328.21875 C 425.57184,318.64212 420.37095,310.16957 414.40625,302.78125 C 413.88856,302.13191 413.07614,301.79045 412.25,301.875 L 412.25,301.875 z M 352.40625,419.6875 C 348.90817,419.6876 345.73232,420.82937 343.375,423.0625 C 340.61312,425.5734 339.3125,429.25514 339.3125,433.53125 L 339.3125,497.71875 C 339.3125,502.18128 340.65974,506.06448 343.5,508.78125 C 345.94745,511.22872 349.21908,512.46874 352.84375,512.46875 C 356.60919,512.46875 360.07615,511.05622 362.78125,508.46875 C 365.69856,505.79452 367.12495,502.02969 367.125,497.71875 L 367.125,462.9375 C 367.12498,458.65279 368.91461,455.86833 373.4375,453.5625 C 378.15542,451.79319 382.87805,450.01844 387.59375,448.25 C 387.64654,448.23097 387.69865,448.21012 387.75,448.1875 C 393.45704,445.66328 396.99995,441.38198 397,436.09375 C 396.99994,432.56988 395.64158,429.08528 393.21875,425.78125 C 390.83417,422.26133 387.59202,420.15637 383.90625,420.15625 C 377.04627,420.15633 370.98814,422.81872 366,427.65625 C 365.18706,425.88343 363.97464,424.25481 362.34375,422.9375 C 362.32307,422.92679 362.30223,422.91637 362.28125,422.90625 C 359.46975,420.79775 356.07317,419.68761 352.40625,419.6875 z M 436.84375,419.6875 C 424.39676,419.68759 413.94131,424.81494 406.25,434.71875 C 399.21562,443.74801 395.68751,454.60923 395.6875,466.96875 C 395.6875,479.2245 399.17271,489.7347 406.15625,498.09375 C 414.11582,507.53913 425.40655,512.31251 439.25,512.3125 C 442.74346,512.3125 446.84064,511.48437 451.6875,509.9375 C 457.05734,508.28522 461.36666,506.34148 464.6875,503.90625 C 468.94033,500.77254 471.3749,496.48623 471.375,491.71875 C 471.37492,488.40327 470.24152,485.32747 468.0625,482.90625 C 465.99361,480.4724 463.17141,479.09376 460.09375,479.09375 C 458.77861,479.09379 457.45593,479.36765 456.1875,479.875 C 448.52805,482.82094 442.67005,484.18753 438.9375,484.1875 C 434.26848,484.18752 430.97949,482.56869 428.28125,479 C 428.28132,478.98958 428.28132,478.97917 428.28125,478.96875 C 425.83338,475.82153 424.56249,471.98966 424.5625,467.125 C 424.56248,461.77724 426.01565,457.44479 428.875,453.78125 C 432.06175,449.70931 436.01488,447.81256 441.5,447.8125 C 445.52784,447.81255 450.63695,449.00848 456.75,451.53125 C 457.82545,451.99229 458.94512,452.15633 460.09375,452.15625 C 462.9083,452.15633 465.61397,451.01561 467.78125,448.96875 C 470.04319,446.83247 471.21865,443.87395 471.21875,440.71875 C 471.21866,435.70394 468.39789,430.99065 463.5,426.625 C 458.20019,421.67867 449.32532,419.6876 436.84375,419.6875 z M 277.40625,419.90625 C 288.06908,419.90633 294.93104,424.90348 299.28125,436.0625 C 303.37513,446.53546 303.2895,456.7644 299,467.25 C 294.35406,478.43806 287.42124,483.43753 276.96875,483.4375 C 268.93354,483.43752 262.93396,480.34564 258.21875,473.78125 C 253.84889,467.83088 251.65623,460.63166 251.65625,451.84375 C 251.65622,442.95154 253.85516,435.66068 258.21875,429.71875 C 263.03214,423.05409 269.16638,419.90634 277.40625,419.90625 z"
       transform="translate(4,4)" />
    <path
       style="fill:#ffffff;fill-opacity:1;fill-rule:nonzero;stroke:none;stroke-width:5;stroke-linecap:butt;stroke-linejoin:miter;marker:none;marker-start:none;marker-mid:none;marker-end:none;stroke-miterlimit:4;stroke-dasharray:none;stroke-dashoffset:0;stroke-opacity:1;visibility:visible;display:inline;overflow:visible;enable-background:accumulate"
       d="M 322.1875 352.0625 L 321.625 352.53125 L 319.09375 354.6875 L 317.9375 355.6875 L 319.3125 356.34375 C 319.3125 356.34375 325.68881 359.37848 327.28125 366.4375 C 327.79577 368.71827 326.88931 372.25374 325.375 375.75 C 323.88421 379.19196 321.88221 382.61064 320.34375 385 C 308.03914 392.91587 300.5 404.78125 300.5 404.78125 L 300.0625 405.46875 L 300.625 406.03125 L 321.625 427.03125 L 323.46875 428.84375 L 323.34375 426.28125 C 323.34375 426.28125 322.38058 402.52461 338.3125 391.84375 C 338.33319 391.83194 338.3543 391.82428 338.375 391.8125 C 346.0224 387.46063 353.92894 385.29699 361.71875 383.75 C 361.71875 383.75 365.33117 383.41342 369.5625 383.5625 C 373.79383 383.71158 378.63231 384.46434 380.71875 386.09375 C 385.37707 389.73169 385.53125 394.78125 385.53125 394.78125 L 385.5625 396.125 L 386.84375 395.6875 L 389.25 394.875 L 389.875 394.6875 L 389.9375 394.03125 C 389.9375 394.03125 390.75702 384.96293 383.9375 379.34375 C 393.56151 376.78321 402.1316 372.40615 407.96875 362.125 L 410.25 362.3125 L 410.25 360.0625 L 409.28125 359.53125 L 408.3125 357.25 L 405.5625 357.71875 L 405.40625 359.53125 C 395.72359 370.30661 384.61744 373.42781 372.5625 374.71875 C 360.92503 375.96498 348.46518 375.48687 336.0625 378.5 C 336.98441 374.93912 337.63182 371.10052 336.3125 366.96875 C 335.80926 365.39274 335.04059 363.79289 333.9375 362.1875 L 336.71875 359.40625 L 335.15625 357.0625 L 330.65625 358.34375 C 328.64242 356.38841 326.06244 354.42379 322.8125 352.4375 L 322.1875 352.0625 z "
       id="path3358" />
    <text
       xml:space="preserve"
       style="font-size:16px;font-style:normal;font-variant:normal;font-weight:bold;font-stretch:normal;text-align:center;line-height:100%;writing-mode:lr-tb;text-anchor:middle;fill:#ffffff;fill-opacity:1;stroke:none;stroke-width:1px;stroke-linecap:butt;stroke-linejoin:miter;stroke-opacity:1;font-family:MgOpen Modata;-inkscape-font-specification:MgOpen Modata Bold"
       x="349.95169"
       y="508.07837"
       id="text2437"
       sodipodi:linespacing="100%"><tspan
         sodipodi:role="line"
         id="tspan2439"
         x="349.95169"
         y="508.07837"
         style="font-size:150px;font-style:normal;font-variant:normal;font-weight:bold;font-stretch:normal;font-family:MgOpen Modata;-inkscape-font-specification:MgOpen Modata Bold;fill:#ffffff;fill-opacity:1">Orc</tspan></text>
    <path
       style="fill:#7eff7e;fill-opacity:1;fill-rule:nonzero;stroke:none;stroke-width:10;stroke-linecap:butt;stroke-linejoin:miter;marker:none;marker-start:none;marker-mid:none;marker-end:none;stroke-miterlimit:4;stroke-dasharray:none;stroke-dashoffset:0;stroke-opacity:1;visibility:visible;overflow:visible;enable-background:accumulate"
       d="M 410.89125,305.77192 C 399.1697,315.28973 388.96749,331.57725 395.05319,346.90771 C 397.69573,351.93089 400.95236,359.29869 407.36756,359.66319 C 420.12877,356.08912 429.57294,342.15321 425.39696,328.96994 C 423.39929,319.83778 418.37156,311.58942 412.49842,304.31451 C 411.96269,304.80032 411.42698,305.28611 410.89125,305.77192 z"
       id="path2453" />
    <path
       style="fill:#7eff7e;fill-opacity:1;fill-rule:nonzero;stroke:none;stroke-width:10;stroke-linecap:butt;stroke-linejoin:miter;marker:none;marker-start:none;marker-mid:none;marker-end:none;stroke-miterlimit:4;stroke-dasharray:none;stroke-dashoffset:0;stroke-opacity:1;visibility:visible;overflow:visible;enable-background:accumulate"
       d="M 301.01808,333.14515 C 293.18093,333.41851 285.96832,337.01369 279.45558,341.08265 C 285.55406,352.18739 297.05554,363.58809 310.70558,361.02015 C 315.70575,359.52338 324.48638,356.1725 322.04933,349.3639 C 319.45045,340.23424 311.0799,332.17011 301.01808,333.14515 z"
       id="path2455" />
    <path
       style="fill:#7eff7e;fill-opacity:1;fill-rule:nonzero;stroke:none;stroke-width:10;stroke-linecap:butt;stroke-linejoin:miter;marker:none;marker-start:none;marker-mid:none;marker-end:none;stroke-miterlimit:4;stroke-dasharray:none;stroke-dashoffset:0;stroke-opacity:1;visibility:visible;overflow:visible;enable-background:accumulate"
       d="M 388.69967,389.24701 C 385.11456,390.48662 385.08151,396.71463 385.31523,400.54442 C 387.03059,412.79932 398.06475,417.42871 406.80416,419.66529 C 410.46553,421.77794 410.94472,418.71942 410.47786,414.94965 C 410.0273,401.8926 401.34682,389.34777 390.22963,389.35999 C 389.7285,389.2446 389.21023,389.17781 388.69967,389.24701 z"
       id="path2457" />
    <path
       style="fill:#7eff7e;fill-opacity:1;fill-rule:nonzero;stroke:none;stroke-width:10;stroke-linecap:butt;stroke-linejoin:miter;marker:none;marker-start:none;marker-mid:none;marker-end:none;stroke-miterlimit:4;stroke-dasharray:none;stroke-dashoffset:0;stroke-opacity:1;visibility:visible;overflow:visible;enable-background:accumulate"
       d="M 369.25659,324.30591 C 352.17714,324.42637 334.90504,337.22501 333.63159,354.86841 C 332.00965,359.652 336.92774,362.48796 341.03784,362.36841 C 353.77527,364.18772 363.4031,352.2955 367.13159,341.55591 C 369.46869,335.94998 370.72573,329.97105 372.03784,324.02466 C 371.11076,324.11841 370.18367,324.21216 369.25659,324.30591 z"
       id="path2459" />
    <path
       style="fill:#7eff7e;fill-opacity:1;fill-rule:nonzero;stroke:none;stroke-width:10;stroke-linecap:butt;stroke-linejoin:miter;marker:none;marker-start:none;marker-mid:none;marker-end:none;stroke-miterlimit:4;stroke-dasharray:none;stroke-dashoffset:0;stroke-opacity:1;visibility:visible;overflow:visible;enable-background:accumulate"
       d="M 420.35496,358.26688 C 415.88851,358.19858 408.03259,357.43815 408.05631,364.10872 C 407.41285,374.65405 417.18851,382.20022 426.54488,382.80677 C 432.28039,383.7714 438.08123,383.40747 443.83734,383.00402 C 441.26335,371.13035 432.81957,359.24537 420.35496,358.26688 z"
       id="path2463" />
  </g>
</svg>
