<?xml version="1.0" encoding="UTF-8" standalone="no"?>
<!-- Created with Inkscape (http://www.inkscape.org/) -->
<svg
   xmlns:dc="http://purl.org/dc/elements/1.1/"
   xmlns:cc="http://creativecommons.org/ns#"
   xmlns:rdf="http://www.w3.org/1999/02/22-rdf-syntax-ns#"
   xmlns:svg="http://www.w3.org/2000/svg"
   xmlns="http://www.w3.org/2000/svg"
   xmlns:sodipodi="http://sodipodi.sourceforge.net/DTD/sodipodi-0.dtd"
   xmlns:inkscape="http://www.inkscape.org/namespaces/inkscape"
   width="280.00128"
   height="280"
   id="svg4217"
   sodipodi:version="0.32"
   inkscape:version="0.46"
   sodipodi:docname="orc-app.svg"
   inkscape:output_extension="org.inkscape.output.svg.inkscape"
   inkscape:export-filename="/home/adrian/tmp/orc-app_128x128.png"
   inkscape:export-xdpi="41.139999"
   inkscape:export-ydpi="41.139999"
   version="1.0">
  <defs
     id="defs4219">
    <linearGradient
       id="linearGradient5101">
      <stop
         style="stop-color:#000000;stop-opacity:1;"
         offset="0"
         id="stop5103" />
      <stop
         style="stop-color:#ffffff;stop-opacity:1;"
         offset="1"
         id="stop5105" />
    </linearGradient>
    <inkscape:perspective
       sodipodi:type="inkscape:persp3d"
       inkscape:vp_x="0 : 526.18109 : 1"
       inkscape:vp_y="0 : 1000 : 0"
       inkscape:vp_z="744.09448 : 526.18109 : 1"
       inkscape:persp3d-origin="372.04724 : 350.78739 : 1"
       id="perspective4225" />
    <clipPath
       clipPathUnits="userSpaceOnUse"
       id="clipPath3353">
      <path
         sodipodi:type="arc"
         style="opacity:1;fill:#ffffff;fill-opacity:1;fill-rule:nonzero;stroke:#000000;stroke-width:3.31791234;stroke-linecap:butt;stroke-linejoin:miter;marker:none;marker-start:none;marker-mid:none;marker-end:none;stroke-miterlimit:4;stroke-dasharray:none;stroke-dashoffset:0;stroke-opacity:1;visibility:visible;display:inline;overflow:visible;enable-background:accumulate"
         id="path3347"
         sodipodi:cx="-208.09143"
         sodipodi:cy="476.57523"
         sodipodi:rx="173.74623"
         sodipodi:ry="76.771591"
         d="M -34.3452,476.57523 A 173.74623,76.771591 0 1 1 -381.83766,476.57523 A 173.74623,76.771591 0 1 1 -34.3452,476.57523 z"
         transform="matrix(2.4134275,0,0,3.6461776,870.91924,-1189.382)" />
    </clipPath>
    <filter
       inkscape:collect="always"
       id="filter3216">
      <feGaussianBlur
         inkscape:collect="always"
         stdDeviation="5.7223572"
         id="feGaussianBlur3218" />
    </filter>
  </defs>
  <sodipodi:namedview
     id="base"
     pagecolor="#ffffff"
     bordercolor="#666666"
     borderopacity="1.0"
     gridtolerance="10000"
     guidetolerance="10"
     objecttolerance="10"
     inkscape:pageopacity="0.0"
     inkscape:pageshadow="2"
     inkscape:zoom="1.0208928"
     inkscape:cx="48.720644"
     inkscape:cy="148.49442"
     inkscape:document-units="px"
     inkscape:current-layer="layer1"
     showgrid="false"
     inkscape:window-width="1024"
     inkscape:window-height="750"
     inkscape:window-x="0"
     inkscape:window-y="0" />
  <metadata
     id="metadata4222">
    <rdf:RDF>
      <cc:Work
         rdf:about="">
        <dc:format>image/svg+xml</dc:format>
        <dc:type
           rdf:resource="http://purl.org/dc/dcmitype/StillImage" />
      </cc:Work>
    </rdf:RDF>
  </metadata>
  <g
     inkscape:label="Layer 1"
     inkscape:groupmode="layer"
     id="layer1"
     transform="translate(-208.56123,-274.1875)">
    <path
       sodipodi:type="inkscape:offset"
       inkscape:radius="6.5161591"
       inkscape:original="M 412.5 304.3125 C 411.96428 304.79831 411.44198 305.29544 410.90625 305.78125 C 399.18471 315.29907 388.9768 331.57579 395.0625 346.90625 C 397.42682 351.40057 400.26754 357.75968 405.4375 359.3125 L 405.40625 359.53125 C 395.72359 370.30661 384.61744 373.42781 372.5625 374.71875 C 360.92503 375.96498 348.46518 375.48687 336.0625 378.5 C 336.98441 374.93912 337.63182 371.10052 336.3125 366.96875 C 335.80926 365.39274 335.04059 363.79289 333.9375 362.1875 L 335.46875 360.65625 C 336.99561 361.80779 339.0938 362.43135 341.03125 362.375 C 353.76868 364.19431 363.39651 352.30209 367.125 341.5625 C 369.4621 335.95657 370.71914 329.97764 372.03125 324.03125 C 371.10417 324.125 370.17708 324.21875 369.25 324.3125 C 352.17055 324.43296 334.89845 337.2316 333.625 354.875 C 333.29051 355.86151 333.24889 356.7505 333.40625 357.5625 L 330.65625 358.34375 C 328.64242 356.38841 326.06244 354.42379 322.8125 352.4375 L 322.4375 352.21875 C 322.52961 351.34253 322.43064 350.40349 322.0625 349.375 C 319.46363 340.24535 311.09307 332.18121 301.03125 333.15625 C 293.19411 333.42962 285.98149 337.02479 279.46875 341.09375 C 285.56724 352.1985 297.06871 363.59919 310.71875 361.03125 C 313.44843 360.21414 317.26963 358.80815 319.8125 356.625 C 321.294 357.46755 325.94562 360.51688 327.28125 366.4375 C 327.79577 368.71827 326.88931 372.25374 325.375 375.75 C 323.88421 379.19196 321.88221 382.61064 320.34375 385 C 313.11874 389.64803 307.59617 395.61148 304.21875 399.78125 C 296.44902 395.3905 287.37288 393.18757 276.96875 393.1875 C 259.86871 393.18761 246.25623 399.26886 236.15625 411.46875 C 227.05625 422.46884 222.5 435.94382 222.5 451.84375 C 222.5 467.54379 227.05625 480.87504 236.15625 491.875 C 246.15623 503.975 259.7687 510.03124 276.96875 510.03125 C 293.96868 510.03125 307.52491 503.89375 317.625 491.59375 C 326.6249 480.49378 331.12489 466.99379 331.125 451.09375 C 331.12492 439.29714 328.61749 428.88445 323.65625 419.875 C 324.52326 412.06477 327.60782 399.02024 338.3125 391.84375 C 338.33319 391.83194 338.3543 391.82428 338.375 391.8125 C 346.0224 387.46063 353.92894 385.29699 361.71875 383.75 C 361.71875 383.75 365.33117 383.41342 369.5625 383.5625 C 373.79383 383.71158 378.63231 384.46434 380.71875 386.09375 C 384.94627 389.39525 385.44036 393.67131 385.5 394.46875 C 385.17317 396.52891 385.20482 398.76683 385.3125 400.53125 C 387.02787 412.78614 398.07309 417.41967 406.8125 419.65625 C 410.47386 421.76891 410.93561 418.70727 410.46875 414.9375 C 410.01818 401.88045 401.33594 389.36278 390.21875 389.375 C 390.01029 389.327 389.80635 389.27489 389.59375 389.25 C 389.00481 386.20515 387.53079 382.30457 383.9375 379.34375 C 393.56151 376.78321 402.1316 372.40615 407.96875 362.125 L 408.34375 362.15625 C 408.16697 362.72546 408.05986 363.35189 408.0625 364.09375 C 407.41905 374.63907 417.17488 382.20595 426.53125 382.8125 C 432.26675 383.77714 438.08764 383.40345 443.84375 383 C 441.26976 371.12632 432.80836 359.25974 420.34375 358.28125 C 417.2313 358.23366 412.49719 357.84599 409.90625 359.875 L 409.28125 359.53125 L 409.09375 359.09375 C 420.96061 354.80043 429.39111 341.54866 425.40625 328.96875 C 423.40857 319.83659 418.37314 311.58741 412.5 304.3125 z M 277.40625 417.46875 C 288.90618 417.46884 296.96244 423.38758 301.5625 435.1875 C 305.86242 446.18756 305.74992 457.18754 301.25 468.1875 C 296.34993 479.98753 288.26867 485.87503 276.96875 485.875 C 268.2687 485.87502 261.34996 482.31878 256.25 475.21875 C 251.54997 468.81879 249.21873 461.0438 249.21875 451.84375 C 249.21872 442.54382 251.54997 434.68131 256.25 428.28125 C 261.44996 421.08134 268.50621 417.46885 277.40625 417.46875 z M 352.40625 422.125 C 349.40624 422.12509 346.96251 423.04384 345.0625 424.84375 C 342.8625 426.84383 341.75 429.73132 341.75 433.53125 L 341.75 497.71875 C 341.75 501.71876 342.88749 504.83124 345.1875 507.03125 C 347.18749 509.03125 349.74374 510.03124 352.84375 510.03125 C 356.04374 510.03125 358.79373 508.91876 361.09375 506.71875 C 363.49373 504.51875 364.68746 501.51876 364.6875 497.71875 L 364.6875 462.9375 C 364.68748 457.83755 367.24372 453.97507 372.34375 451.375 C 377.14371 449.57506 381.94996 447.76882 386.75 445.96875 C 391.94995 443.66881 394.56246 440.39382 394.5625 436.09375 C 394.56245 433.19382 393.44995 430.21883 391.25 427.21875 C 389.14995 424.11883 386.70621 422.59384 383.90625 422.59375 C 376.20622 422.59384 369.78746 425.92509 364.6875 432.625 C 364.68748 429.52508 363.41249 426.94383 360.8125 424.84375 C 358.41248 423.04384 355.60624 422.1251 352.40625 422.125 z M 436.84375 422.125 C 425.04372 422.12509 415.48748 426.81884 408.1875 436.21875 C 401.4875 444.81881 398.12501 455.06881 398.125 466.96875 C 398.125 478.76878 401.43123 488.63126 408.03125 496.53125 C 415.53123 505.43125 425.94998 509.87501 439.25 509.875 C 442.34996 509.875 446.23745 509.12501 450.9375 507.625 C 456.13744 506.025 460.24994 504.1375 463.25 501.9375 C 467.04993 499.13751 468.93742 495.71877 468.9375 491.71875 C 468.93743 488.91877 468.04994 486.53126 466.25 484.53125 C 464.54993 482.53128 462.49369 481.53126 460.09375 481.53125 C 459.09369 481.53128 458.09369 481.72504 457.09375 482.125 C 449.2937 485.12502 443.23745 486.62503 438.9375 486.625 C 433.63746 486.62502 429.44372 484.56878 426.34375 480.46875 C 423.54373 476.86878 422.12499 472.42505 422.125 467.125 C 422.12498 461.32505 423.73747 456.38129 426.9375 452.28125 C 430.53747 447.68131 435.39997 445.37507 441.5 445.375 C 445.99995 445.37506 451.38744 446.6813 457.6875 449.28125 C 458.38744 449.58131 459.19369 449.71881 460.09375 449.71875 C 462.29369 449.71881 464.29368 448.88755 466.09375 447.1875 C 467.89368 445.48756 468.78117 443.31882 468.78125 440.71875 C 468.78118 436.61882 466.47494 432.53757 461.875 428.4375 C 457.37494 424.23758 449.0437 422.1251 436.84375 422.125 z "
       style="fill:#000000;fill-opacity:1;fill-rule:nonzero;stroke:none;stroke-width:3;stroke-linecap:butt;stroke-linejoin:miter;marker:none;marker-start:none;marker-mid:none;marker-end:none;stroke-miterlimit:4;stroke-dasharray:none;stroke-dashoffset:0;stroke-opacity:1;visibility:visible;display:inline;overflow:visible;enable-background:accumulate"
       id="path3231"
       d="M 412.4375,297.78125 C 410.83775,297.80537 409.30278,298.41713 408.125,299.5 C 407.61829,299.9595 407.21025,300.35249 406.8125,300.71875 C 406.72895,300.79569 406.6108,300.89661 406.53125,300.96875 C 400.08718,306.26296 394.10657,313.24669 390.375,321.46875 C 386.58831,329.81228 385.20439,339.75099 389,349.3125 C 389.08272,349.52562 389.1766,349.73424 389.28125,349.9375 C 390.58568,352.41709 392.3219,356.42021 395.3125,359.90625 C 388.37822,365.32796 380.93204,367.2801 371.875,368.25 C 363.35449,369.16244 353.69061,369.09035 343.46875,370.53125 C 343.43937,369.97981 343.41588,369.4416 343.34375,368.875 C 350.58537,368.91321 357.07248,365.86831 361.84375,361.5 C 367.21572,356.58172 370.91781,350.25038 373.125,344.0625 C 373.16958,343.93752 373.2379,343.81237 373.28125,343.6875 L 373.25,343.6875 C 375.7966,337.45429 377.12928,331.22463 378.40625,325.4375 C 378.85272,323.39585 378.29292,321.26394 376.90102,319.70501 C 375.50912,318.14607 373.45399,317.34928 371.375,317.5625 C 370.65623,317.63518 369.93753,317.70856 369.21875,317.78125 C 369.01044,317.80232 368.80206,317.82268 368.59375,317.84375 C 350.65318,318.23666 333.03203,330.04258 328.34375,347.8125 C 328.32459,347.74943 328.30135,347.6878 328.28125,347.625 L 328.34375,347.59375 C 328.30433,347.45529 328.22899,347.32563 328.1875,347.1875 C 324.7583,335.7705 314.28803,325.57833 300.8125,326.65625 C 300.8018,326.65711 300.79195,326.65538 300.78125,326.65625 C 300.65286,326.66669 300.53518,326.64376 300.40625,326.65625 L 300.40625,326.71875 C 290.90226,327.16413 282.81449,331.32454 276.03125,335.5625 C 273.09585,337.38656 272.09484,341.1849 273.75,344.21875 C 277.17832,350.46139 282.03836,356.76963 288.40625,361.4375 C 294.77414,366.10537 303.06377,369.10689 311.9375,367.4375 C 312.1588,367.39678 312.37784,367.34463 312.59375,367.28125 C 314.46111,366.72227 316.8118,365.92017 319.25,364.6875 C 319.96029,365.55504 320.64576,366.58175 320.9375,367.875 C 320.77238,367.14305 320.66074,370.25986 319.40625,373.15625 C 318.27455,375.76913 316.70027,378.43928 315.375,380.5625 C 309.9757,384.25889 305.94623,388.20226 302.65625,391.84375 C 294.938,388.43942 286.33275,386.65631 276.96875,386.65625 C 258.32385,386.65637 242.38069,393.71662 231.125,407.3125 C 221.03996,419.50331 215.96875,434.69898 215.96875,451.84375 C 215.96875,468.80448 221.0577,483.86203 231.125,496.03125 C 242.29466,509.54656 258.23912,516.56249 276.96875,516.5625 C 295.53704,516.5625 311.41609,509.40714 322.65625,495.71875 C 322.6667,495.70837 322.67712,495.69795 322.6875,495.6875 C 328.67338,488.30485 332.82601,479.86787 335.21875,470.59375 L 335.21875,497.71875 C 335.21875,502.9541 336.94456,508.16979 340.6875,511.75 C 343.88261,514.94512 348.34245,516.56249 352.84375,516.5625 C 357.55399,516.5625 362.21182,514.67238 365.59375,511.4375 C 369.37546,507.9709 371.2187,502.88338 371.21875,497.71875 L 371.21875,462.9375 C 371.21874,460.05584 371.7615,459.01744 375.1875,457.25 C 379.80225,455.51922 384.42221,453.79094 389.03125,452.0625 C 389.14698,452.02406 389.26161,451.98237 389.375,451.9375 C 391.17951,451.13937 392.83156,450.06643 394.34375,448.84375 C 392.54474,454.52445 391.59376,460.59731 391.59375,466.96875 C 391.59375,479.98595 395.4069,491.59268 403.03125,500.71875 C 403.04167,500.71877 403.05208,500.71877 403.0625,500.71875 C 411.78998,511.07539 424.49854,516.40626 439.25,516.40625 C 443.40095,516.40625 447.81408,515.4689 452.90625,513.84375 C 458.55996,512.10413 463.23694,510.01577 467.09375,507.1875 C 467.10417,507.18752 467.11458,507.18752 467.125,507.1875 C 472.13455,503.49619 475.46863,497.76855 475.46875,491.71875 C 475.46865,487.54194 473.90615,483.31251 471.09375,480.1875 C 468.40862,477.02871 464.3038,475.00002 460.09375,475 C 458.25216,475.00006 456.40455,475.37571 454.6875,476.0625 C 447.26299,478.91808 441.72199,480.09377 438.9375,480.09375 C 435.32284,480.09376 433.55824,479.21215 431.53125,476.53125 C 431.52095,476.51036 431.51053,476.48953 431.5,476.46875 C 429.64052,474.07802 428.65624,471.26219 428.65625,467.125 C 428.65623,462.5328 429.77238,459.21547 432.0625,456.28125 C 434.55881,453.09153 437.04231,451.9063 441.5,451.90625 C 444.73902,451.90629 449.38693,452.91868 455.1875,455.3125 C 456.89039,456.04252 458.52979,456.2501 460.09375,456.25 C 463.93524,456.2501 467.78166,454.56382 470.5625,451.9375 C 473.59639,449.07215 475.31237,444.8015 475.3125,440.71875 C 475.31239,434.1753 471.61449,428.37189 466.21875,423.5625 C 459.58267,417.36902 449.79588,415.59386 436.84375,415.59375 C 429.55535,415.59381 422.76863,417.37346 416.71875,420.625 C 417.60438,417.96925 417.17493,416.04217 416.9375,414.125 L 416.90625,414.125 C 416.52283,406.44488 413.93425,399.10766 409.53125,393.3125 C 405.87306,388.49764 400.67267,384.76535 394.59375,383.46875 C 394.47615,383.17058 394.3519,382.86418 394.21875,382.5625 C 397.87658,380.93746 401.41145,378.89383 404.65625,376.15625 C 405.89695,378.31326 407.34664,380.31041 409.09375,381.9375 C 413.61041,386.14388 419.40927,388.67232 425.4375,389.21875 L 425.4375,389.25 C 425.61979,389.28066 425.787,389.2529 425.96875,389.28125 C 426.02273,389.28967 426.07107,389.30428 426.125,389.3125 C 432.58132,390.29643 438.73418,389.89099 444.3125,389.5 C 446.1962,389.36556 447.92894,388.4206 449.06204,386.90981 C 450.19513,385.39902 450.61713,383.47099 450.21875,381.625 C 448.71377,374.6826 445.57385,367.83874 440.71875,362.28125 C 437.15668,358.20385 432.4999,354.83323 427.0625,353.0625 C 432.19057,345.86833 434.45909,336.75477 431.75,327.5625 L 431.78125,327.5625 C 431.74826,327.41169 431.69059,327.2752 431.65625,327.125 C 431.64654,327.08251 431.63482,327.04244 431.625,327 C 429.23711,316.6825 423.69019,307.80896 417.5625,300.21875 C 416.31622,298.66601 414.42849,297.76819 412.4375,297.78125 L 412.4375,297.78125 z M 369.34375,390.0625 C 371.16107,390.12653 373.11599,390.34642 374.625,390.65625 C 376.13401,390.96608 377.21766,391.60837 376.71875,391.21875 C 378.77239,392.82255 378.92139,394.51437 378.9375,394.75 C 378.69064,397.06473 378.70909,399.24299 378.8125,400.9375 C 378.8165,401.10451 378.82693,401.2713 378.84375,401.4375 C 379.72479,407.73181 382.78376,412.7628 386.5625,416.46875 C 385.69079,416.2869 384.82143,416.06253 383.90625,416.0625 C 377.6826,416.06257 371.89242,418.19491 366.875,421.75 C 366.25765,421.05243 365.62682,420.36327 364.90625,419.78125 C 364.84473,419.728 364.78222,419.67591 364.71875,419.625 C 361.21972,417.00088 356.85334,415.59389 352.40625,415.59375 C 348.07597,415.59388 343.71517,417.16803 340.59375,420.125 C 337.23989,423.17408 335.62673,427.55604 335.34375,432.125 C 334.17588,427.49898 332.48623,423.1283 330.40625,418.96875 C 331.40396,412.10543 334.32481,402.48832 341.78125,397.375 C 348.39556,393.64762 355.37506,391.71401 362.65625,390.25 C 362.9524,390.22416 365.77125,389.93663 369.34375,390.0625 z M 396,422.78125 C 398.95435,424.12756 401.84943,425.04179 404.53125,425.75 C 405.5628,426.27374 406.77728,426.62118 408.21875,426.71875 C 406.3905,428.39984 404.61491,430.17953 403.03125,432.21875 C 402.26183,433.20637 401.72349,434.31336 401.03125,435.34375 C 400.84708,431.05417 399.14024,426.9755 396.5,423.375 C 396.3546,423.16038 396.1541,422.98965 396,422.78125 z M 277.40625,424 C 286.6704,424.00007 291.56725,427.47434 295.5,437.5625 C 299.2496,447.15474 299.15668,456.09257 295.21875,465.71875 C 290.99742,475.88428 286.00529,479.34377 276.96875,479.34375 C 270.04441,479.34377 265.6036,477.07566 261.53125,471.40625 C 261.52087,471.3958 261.51045,471.38538 261.5,471.375 C 257.68181,466.17582 255.74998,459.94302 255.75,451.84375 C 255.74997,443.63279 257.69854,437.30147 261.5,432.125 C 261.51045,432.11462 261.52087,432.1042 261.53125,432.09375 C 265.69873,426.32341 270.26943,424.00008 277.40625,424 z" />
    <g
       id="g3220">
      <path
         transform="translate(6,6)"
         d="M 412.34375,302.90625 C 412.05036,302.94594 411.77698,303.07717 411.5625,303.28125 C 411.03257,303.76181 410.52941,304.234 410.03125,304.6875 C 410.01009,304.70676 409.9899,304.73082 409.96875,304.75 C 403.98381,309.62478 398.38964,316.19394 395.03125,323.59375 C 391.66032,331.0212 390.54463,339.36287 393.75,347.4375 C 393.76875,347.48018 393.78961,347.52189 393.8125,347.5625 C 395.88176,351.49595 398.50138,357.16218 403.28125,359.6875 C 394.13539,369.22587 383.86045,372.08589 372.40625,373.3125 C 361.54748,374.47534 349.7461,374.20423 337.8125,376.75 C 338.46857,373.61332 338.83387,370.21926 337.65625,366.53125 C 337.22643,365.18517 336.43935,363.85352 335.625,362.5 L 335.78125,362.34375 C 337.34361,363.21484 339.07089,363.76327 340.84375,363.75 L 340.84375,363.78125 C 340.91905,363.79201 340.98739,363.77139 341.0625,363.78125 C 347.8124,364.66717 353.77341,361.96032 358.40625,357.71875 C 363.07265,353.44645 366.49898,347.64654 368.4375,342.09375 C 368.44646,342.07225 368.45982,342.05276 368.46875,342.03125 C 370.85621,336.28209 372.10104,330.25886 373.40625,324.34375 C 373.5108,323.89775 373.39167,323.42878 373.08694,323.08675 C 372.78222,322.74471 372.33006,322.57244 371.875,322.625 C 370.99948,322.71354 370.12553,322.81771 369.25,322.90625 C 369.19844,322.91146 369.14531,322.90104 369.09375,322.90625 C 351.48338,323.10588 333.81457,336.17172 332.28125,354.4375 C 332.27131,354.55586 332.22732,354.66246 332.21875,354.78125 L 332.25,354.78125 C 332.08281,355.37035 332.1374,355.9101 332.125,356.46875 L 331,356.8125 C 329.03295,354.9904 326.65668,353.18522 323.71875,351.375 C 323.69701,350.60001 323.66071,349.82744 323.375,349 L 323.40625,349 C 323.39728,348.9685 323.3841,348.93772 323.375,348.90625 C 320.59286,339.27901 311.78172,330.7392 300.96875,331.75 C 300.94735,331.752 300.92766,331.74793 300.90625,331.75 C 292.69489,332.05418 285.29466,335.79782 278.71875,339.90625 C 278.09003,340.30807 277.88434,341.13083 278.25,341.78125 C 281.38109,347.48265 285.8725,353.23318 291.4375,357.3125 C 297.0025,361.39182 303.70142,363.77343 310.96875,362.40625 C 311.02138,362.39879 311.07355,362.38836 311.125,362.375 C 313.64014,361.62211 316.98591,360.30959 319.71875,358.3125 C 321.34483,359.32421 324.80602,361.87288 325.90625,366.75 C 326.27404,368.38034 325.55197,371.82075 324.09375,375.1875 C 322.67979,378.45206 320.74592,381.72666 319.25,384.0625 C 312.43555,388.52086 307.28729,393.94748 303.875,398.0625 C 296.0978,393.90742 287.13242,391.78132 276.96875,391.78125 C 259.53518,391.78136 245.41199,398.06122 235.0625,410.5625 C 225.74983,421.81966 221.09375,435.67507 221.09375,451.84375 C 221.09375,467.81597 225.75366,481.52885 235.0625,492.78125 C 245.31501,505.18681 259.43847,511.43749 276.96875,511.4375 C 294.30728,511.4375 308.37252,505.09975 318.71875,492.5 C 318.71887,492.48958 318.71887,492.47917 318.71875,492.46875 C 327.9256,481.11353 332.53114,467.25922 332.53125,451.09375 C 332.53117,439.31992 330.0245,428.83494 325.125,419.71875 C 326.01087,412.10045 329.04541,399.80126 339,393.0625 C 338.93421,393.10006 339.00347,393.04585 339.03125,393.03125 C 339.03813,393.02661 339.05561,393.03588 339.0625,393.03125 C 339.07487,393.02421 339.08138,393.00703 339.09375,393 C 346.49189,388.79746 354.18545,386.68499 361.84375,385.15625 C 361.85355,385.15429 361.8652,385.1582 361.875,385.15625 C 361.90367,385.1536 365.38813,384.82388 369.5,384.96875 C 371.55125,385.04102 373.76277,385.26748 375.65625,385.65625 C 377.54973,386.04502 379.13347,386.6328 379.84375,387.1875 C 383.64876,390.15904 384.04931,393.96833 384.09375,394.5625 L 384.125,394.5625 C 383.82455,396.69005 383.80062,398.89422 383.90625,400.625 C 383.90521,400.65624 383.90521,400.68751 383.90625,400.71875 C 384.81802,407.23261 388.29563,411.8623 392.59375,415 C 396.89187,418.1377 402.01089,419.8904 406.46875,421.03125 C 407.38329,421.51494 408.23752,421.82868 409.125,421.75 C 410.12715,421.66115 411.02063,420.94387 411.4375,420.15625 C 412.25319,418.61511 412.11149,416.81257 411.875,414.875 C 411.87356,414.83339 411.87659,414.7916 411.875,414.75 C 411.61517,407.96955 409.25661,401.39177 405.46875,396.40625 C 401.75236,391.51479 396.55573,388.19 390.65625,388.03125 C 390.0519,385.4825 388.87884,382.58934 386.5,379.96875 C 394.23875,377.61607 401.41337,373.87082 406.8125,366.5 C 407.21379,371.15473 409.38329,375.22884 412.59375,378.21875 C 416.34059,381.70819 421.33105,383.83385 426.3125,384.1875 C 426.35496,384.19051 426.39504,384.216 426.4375,384.21875 L 426.4375,384.1875 C 432.34329,385.1615 438.2162,384.80726 443.9375,384.40625 C 444.34934,384.37984 444.72881,384.17394 444.97546,383.84307 C 445.22211,383.5122 445.31105,383.08973 445.21875,382.6875 C 443.88469,376.53357 441.05583,370.41068 436.875,365.625 C 432.69417,360.83932 427.11864,357.39703 420.46875,356.875 C 420.43751,356.87396 420.40624,356.87396 420.375,356.875 C 419.22224,356.85737 417.65093,356.8242 416.125,356.84375 C 424.89309,350.60109 430.14902,339.50084 426.78125,328.65625 C 426.772,328.61399 426.75937,328.57347 426.75,328.53125 C 424.66629,319.14108 419.51988,310.77804 413.59375,303.4375 C 413.29581,303.05771 412.82396,302.85718 412.34375,302.90625 z M 277.40625,418.875 C 288.42349,418.87509 295.79401,424.25714 300.25,435.6875 C 304.43111,446.38362 304.31609,456.95288 299.9375,467.65625 C 295.18397,479.1034 287.78002,484.46878 276.96875,484.46875 C 268.65207,484.46877 262.28435,481.19742 257.40625,474.40625 C 257.396,474.39567 257.38558,474.38525 257.375,474.375 C 252.86535,468.23428 250.62498,460.80615 250.625,451.84375 C 250.62497,442.77892 252.86897,435.26089 257.375,429.125 C 257.37512,429.11458 257.37512,429.10417 257.375,429.09375 C 262.35205,422.20248 268.88688,418.8751 277.40625,418.875 z M 352.40625,420.71875 C 349.11904,420.71885 346.25746,421.76279 344.09375,423.8125 C 341.56975,426.10713 340.34375,429.45674 340.34375,433.53125 L 340.34375,497.71875 C 340.34375,501.98546 341.60722,505.56451 344.21875,508.0625 C 346.47676,510.32052 349.44121,511.43749 352.84375,511.4375 C 356.36979,511.4375 359.5289,510.17343 362.0625,507.75 C 364.76079,505.27655 366.09371,501.81337 366.09375,497.71875 L 366.09375,462.9375 C 366.09373,458.35157 368.17145,455.11028 372.84375,452.6875 C 372.86543,452.67937 372.88457,452.66438 372.90625,452.65625 C 372.92875,452.64468 372.94613,452.63653 372.96875,452.625 C 377.72608,450.84098 382.49393,449.06483 387.25,447.28125 C 387.27109,447.27135 387.29193,447.26093 387.3125,447.25 C 392.80485,444.82073 395.9687,440.96362 395.96875,436.09375 C 395.96869,432.83404 394.70347,429.55034 392.375,426.375 C 390.11088,423.03289 387.21699,421.18761 383.90625,421.1875 C 376.77807,421.18758 370.63034,424.14607 365.625,429.5625 C 364.98604,427.34221 363.67319,425.35389 361.6875,423.75 C 361.67725,423.73942 361.66683,423.729 361.65625,423.71875 C 359.01896,421.7409 355.87548,420.71886 352.40625,420.71875 z M 436.84375,420.71875 C 424.67066,420.71884 414.58813,425.65328 407.0625,435.34375 C 400.16969,444.1913 396.71876,454.8038 396.71875,466.96875 C 396.71875,479.03156 400.11633,489.2728 406.9375,497.4375 C 406.94792,497.43762 406.95833,497.43762 406.96875,497.4375 C 414.73374,506.65198 425.63662,511.28126 439.25,511.28125 C 442.57686,511.28125 446.59029,510.49578 451.375,508.96875 C 456.67291,507.33861 460.90872,505.39814 464.09375,503.0625 C 468.15483,500.07008 470.34366,496.16131 470.34375,491.71875 C 470.34367,488.62152 469.29978,485.83664 467.28125,483.59375 C 465.36851,481.3436 462.88448,480.12501 460.09375,480.125 C 458.91201,480.12504 457.71726,480.35061 456.5625,480.8125 C 448.84353,483.78134 442.91027,485.21878 438.9375,485.21875 C 434.00133,485.21877 430.33707,483.41865 427.46875,479.625 C 427.46887,479.61458 427.46887,479.60417 427.46875,479.59375 C 424.87179,476.25485 423.53124,472.174 423.53125,467.125 C 423.53123,461.5858 425.02767,457.00459 428.03125,453.15625 C 431.39295,448.86077 435.75454,446.78132 441.5,446.78125 C 445.72772,446.78131 450.96403,448.0383 457.15625,450.59375 C 458.07272,450.98664 459.05036,451.12507 460.09375,451.125 C 462.64809,451.12507 465.05069,450.11878 467.0625,448.21875 C 469.12884,446.2672 470.18741,443.63892 470.1875,440.71875 C 470.18742,436.09128 467.58425,431.62821 462.8125,427.375 C 457.85128,422.74468 449.20609,420.71885 436.84375,420.71875 z"
         id="path3322"
         style="opacity:0.8;fill:#000000;fill-opacity:1;fill-rule:nonzero;stroke:none;stroke-width:5;stroke-linecap:butt;stroke-linejoin:miter;marker:none;marker-start:none;marker-mid:none;marker-end:none;stroke-miterlimit:4;stroke-dasharray:none;stroke-dashoffset:0;stroke-opacity:1;visibility:visible;overflow:visible;filter:url(#filter3216);enable-background:accumulate"
         inkscape:original="M 412.5 304.3125 C 411.96428 304.79831 411.44198 305.29544 410.90625 305.78125 C 399.18471 315.29907 388.9768 331.57579 395.0625 346.90625 C 397.42682 351.40057 400.26754 357.75968 405.4375 359.3125 L 405.40625 359.53125 C 395.72359 370.30661 384.61744 373.42781 372.5625 374.71875 C 360.92503 375.96498 348.46518 375.48687 336.0625 378.5 C 336.98441 374.93912 337.63182 371.10052 336.3125 366.96875 C 335.80926 365.39274 335.04059 363.79289 333.9375 362.1875 L 335.46875 360.65625 C 336.99561 361.80779 339.0938 362.43135 341.03125 362.375 C 353.76868 364.19431 363.39651 352.30209 367.125 341.5625 C 369.4621 335.95657 370.71914 329.97764 372.03125 324.03125 C 371.10417 324.125 370.17708 324.21875 369.25 324.3125 C 352.17055 324.43296 334.89845 337.2316 333.625 354.875 C 333.29051 355.86151 333.24889 356.7505 333.40625 357.5625 L 330.65625 358.34375 C 328.64242 356.38841 326.06244 354.42379 322.8125 352.4375 L 322.4375 352.21875 C 322.52961 351.34253 322.43064 350.40349 322.0625 349.375 C 319.46363 340.24535 311.09307 332.18121 301.03125 333.15625 C 293.19411 333.42962 285.98149 337.02479 279.46875 341.09375 C 285.56724 352.1985 297.06871 363.59919 310.71875 361.03125 C 313.44843 360.21414 317.26963 358.80815 319.8125 356.625 C 321.294 357.46755 325.94562 360.51688 327.28125 366.4375 C 327.79577 368.71827 326.88931 372.25374 325.375 375.75 C 323.88421 379.19196 321.88221 382.61064 320.34375 385 C 313.11874 389.64803 307.59617 395.61148 304.21875 399.78125 C 296.44902 395.3905 287.37288 393.18757 276.96875 393.1875 C 259.86871 393.18761 246.25623 399.26886 236.15625 411.46875 C 227.05625 422.46884 222.5 435.94382 222.5 451.84375 C 222.5 467.54379 227.05625 480.87504 236.15625 491.875 C 246.15623 503.975 259.7687 510.03124 276.96875 510.03125 C 293.96868 510.03125 307.52491 503.89375 317.625 491.59375 C 326.6249 480.49378 331.12489 466.99379 331.125 451.09375 C 331.12492 439.29714 328.61749 428.88445 323.65625 419.875 C 324.52326 412.06477 327.60782 399.02024 338.3125 391.84375 C 338.33319 391.83194 338.3543 391.82428 338.375 391.8125 C 346.0224 387.46063 353.92894 385.29699 361.71875 383.75 C 361.71875 383.75 365.33117 383.41342 369.5625 383.5625 C 373.79383 383.71158 378.63231 384.46434 380.71875 386.09375 C 384.94627 389.39525 385.44036 393.67131 385.5 394.46875 C 385.17317 396.52891 385.20482 398.76683 385.3125 400.53125 C 387.02787 412.78614 398.07309 417.41967 406.8125 419.65625 C 410.47386 421.76891 410.93561 418.70727 410.46875 414.9375 C 410.01818 401.88045 401.33594 389.36278 390.21875 389.375 C 390.01029 389.327 389.80635 389.27489 389.59375 389.25 C 389.00481 386.20515 387.53079 382.30457 383.9375 379.34375 C 393.56151 376.78321 402.1316 372.40615 407.96875 362.125 L 408.34375 362.15625 C 408.16697 362.72546 408.05986 363.35189 408.0625 364.09375 C 407.41905 374.63907 417.17488 382.20595 426.53125 382.8125 C 432.26675 383.77714 438.08764 383.40345 443.84375 383 C 441.26976 371.12632 432.80836 359.25974 420.34375 358.28125 C 417.2313 358.23366 412.49719 357.84599 409.90625 359.875 L 409.28125 359.53125 L 409.09375 359.09375 C 420.96061 354.80043 429.39111 341.54866 425.40625 328.96875 C 423.40857 319.83659 418.37314 311.58741 412.5 304.3125 z M 277.40625 417.46875 C 288.90618 417.46884 296.96244 423.38758 301.5625 435.1875 C 305.86242 446.18756 305.74992 457.18754 301.25 468.1875 C 296.34993 479.98753 288.26867 485.87503 276.96875 485.875 C 268.2687 485.87502 261.34996 482.31878 256.25 475.21875 C 251.54997 468.81879 249.21873 461.0438 249.21875 451.84375 C 249.21872 442.54382 251.54997 434.68131 256.25 428.28125 C 261.44996 421.08134 268.50621 417.46885 277.40625 417.46875 z M 352.40625 422.125 C 349.40624 422.12509 346.96251 423.04384 345.0625 424.84375 C 342.8625 426.84383 341.75 429.73132 341.75 433.53125 L 341.75 497.71875 C 341.75 501.71876 342.88749 504.83124 345.1875 507.03125 C 347.18749 509.03125 349.74374 510.03124 352.84375 510.03125 C 356.04374 510.03125 358.79373 508.91876 361.09375 506.71875 C 363.49373 504.51875 364.68746 501.51876 364.6875 497.71875 L 364.6875 462.9375 C 364.68748 457.83755 367.24372 453.97507 372.34375 451.375 C 377.14371 449.57506 381.94996 447.76882 386.75 445.96875 C 391.94995 443.66881 394.56246 440.39382 394.5625 436.09375 C 394.56245 433.19382 393.44995 430.21883 391.25 427.21875 C 389.14995 424.11883 386.70621 422.59384 383.90625 422.59375 C 376.20622 422.59384 369.78746 425.92509 364.6875 432.625 C 364.68748 429.52508 363.41249 426.94383 360.8125 424.84375 C 358.41248 423.04384 355.60624 422.1251 352.40625 422.125 z M 436.84375 422.125 C 425.04372 422.12509 415.48748 426.81884 408.1875 436.21875 C 401.4875 444.81881 398.12501 455.06881 398.125 466.96875 C 398.125 478.76878 401.43123 488.63126 408.03125 496.53125 C 415.53123 505.43125 425.94998 509.87501 439.25 509.875 C 442.34996 509.875 446.23745 509.12501 450.9375 507.625 C 456.13744 506.025 460.24994 504.1375 463.25 501.9375 C 467.04993 499.13751 468.93742 495.71877 468.9375 491.71875 C 468.93743 488.91877 468.04994 486.53126 466.25 484.53125 C 464.54993 482.53128 462.49369 481.53126 460.09375 481.53125 C 459.09369 481.53128 458.09369 481.72504 457.09375 482.125 C 449.2937 485.12502 443.23745 486.62503 438.9375 486.625 C 433.63746 486.62502 429.44372 484.56878 426.34375 480.46875 C 423.54373 476.86878 422.12499 472.42505 422.125 467.125 C 422.12498 461.32505 423.73747 456.38129 426.9375 452.28125 C 430.53747 447.68131 435.39997 445.37507 441.5 445.375 C 445.99995 445.37506 451.38744 446.6813 457.6875 449.28125 C 458.38744 449.58131 459.19369 449.71881 460.09375 449.71875 C 462.29369 449.71881 464.29368 448.88755 466.09375 447.1875 C 467.89368 445.48756 468.78117 443.31882 468.78125 440.71875 C 468.78118 436.61882 466.47494 432.53757 461.875 428.4375 C 457.37494 424.23758 449.0437 422.1251 436.84375 422.125 z "
         inkscape:radius="1.4068061"
         sodipodi:type="inkscape:offset" />
      <path
         id="path3358"
         d="M 322.1875,352.0625 L 321.625,352.53125 L 319.09375,354.6875 L 317.9375,355.6875 L 319.3125,356.34375 C 319.3125,356.34375 325.68881,359.37848 327.28125,366.4375 C 327.79577,368.71827 326.88931,372.25374 325.375,375.75 C 323.88421,379.19196 321.88221,382.61064 320.34375,385 C 308.03914,392.91587 300.5,404.78125 300.5,404.78125 L 300.0625,405.46875 L 300.625,406.03125 L 321.625,427.03125 L 323.46875,428.84375 L 323.34375,426.28125 C 323.34375,426.28125 322.38058,402.52461 338.3125,391.84375 C 338.33319,391.83194 338.3543,391.82428 338.375,391.8125 C 346.0224,387.46063 353.92894,385.29699 361.71875,383.75 C 361.71875,383.75 365.33117,383.41342 369.5625,383.5625 C 373.79383,383.71158 378.63231,384.46434 380.71875,386.09375 C 385.37707,389.73169 385.53125,394.78125 385.53125,394.78125 L 385.5625,396.125 L 386.84375,395.6875 L 389.25,394.875 L 389.875,394.6875 L 389.9375,394.03125 C 389.9375,394.03125 390.75702,384.96293 383.9375,379.34375 C 393.56151,376.78321 402.1316,372.40615 407.96875,362.125 L 410.25,362.3125 L 410.25,360.0625 L 409.28125,359.53125 L 408.3125,357.25 L 405.5625,357.71875 L 405.40625,359.53125 C 395.72359,370.30661 384.61744,373.42781 372.5625,374.71875 C 360.92503,375.96498 348.46518,375.48687 336.0625,378.5 C 336.98441,374.93912 337.63182,371.10052 336.3125,366.96875 C 335.80926,365.39274 335.04059,363.79289 333.9375,362.1875 L 336.71875,359.40625 L 335.15625,357.0625 L 330.65625,358.34375 C 328.64242,356.38841 326.06244,354.42379 322.8125,352.4375 L 322.1875,352.0625 z"
         style="fill:#ffffff;fill-opacity:1;fill-rule:nonzero;stroke:none;stroke-width:5;stroke-linecap:butt;stroke-linejoin:miter;marker:none;marker-start:none;marker-mid:none;marker-end:none;stroke-miterlimit:4;stroke-dasharray:none;stroke-dashoffset:0;stroke-opacity:1;visibility:visible;display:inline;overflow:visible;enable-background:accumulate" />
      <text
         sodipodi:linespacing="100%"
         id="text2437"
         y="508.07837"
         x="349.95169"
         style="font-size:16px;font-style:normal;font-variant:normal;font-weight:bold;font-stretch:normal;text-align:center;line-height:100%;writing-mode:lr-tb;text-anchor:middle;fill:#ffffff;fill-opacity:1;stroke:none;stroke-width:1px;stroke-linecap:butt;stroke-linejoin:miter;stroke-opacity:1;font-family:MgOpen Modata;-inkscape-font-specification:MgOpen Modata Bold"
         xml:space="preserve"><tspan
           style="font-size:150px;font-style:normal;font-variant:normal;font-weight:bold;font-stretch:normal;fill:#ffffff;fill-opacity:1;font-family:MgOpen Modata;-inkscape-font-specification:MgOpen Modata Bold"
           y="508.07837"
           x="349.95169"
           id="tspan2439"
           sodipodi:role="line">Orc</tspan></text>
      <path
         id="path2453"
         d="M 410.89125,305.77192 C 399.1697,315.28973 388.96749,331.57725 395.05319,346.90771 C 397.69573,351.93089 400.95236,359.29869 407.36756,359.66319 C 420.12877,356.08912 429.57294,342.15321 425.39696,328.96994 C 423.39929,319.83778 418.37156,311.58942 412.49842,304.31451 C 411.96269,304.80032 411.42698,305.28611 410.89125,305.77192 z"
         style="fill:#7eff7e;fill-opacity:1;fill-rule:nonzero;stroke:none;stroke-width:10;stroke-linecap:butt;stroke-linejoin:miter;marker:none;marker-start:none;marker-mid:none;marker-end:none;stroke-miterlimit:4;stroke-dasharray:none;stroke-dashoffset:0;stroke-opacity:1;visibility:visible;overflow:visible;enable-background:accumulate" />
      <path
         id="path2455"
         d="M 301.01808,333.14515 C 293.18093,333.41851 285.96832,337.01369 279.45558,341.08265 C 285.55406,352.18739 297.05554,363.58809 310.70558,361.02015 C 315.70575,359.52338 324.48638,356.1725 322.04933,349.3639 C 319.45045,340.23424 311.0799,332.17011 301.01808,333.14515 z"
         style="fill:#7eff7e;fill-opacity:1;fill-rule:nonzero;stroke:none;stroke-width:10;stroke-linecap:butt;stroke-linejoin:miter;marker:none;marker-start:none;marker-mid:none;marker-end:none;stroke-miterlimit:4;stroke-dasharray:none;stroke-dashoffset:0;stroke-opacity:1;visibility:visible;overflow:visible;enable-background:accumulate" />
      <path
         id="path2457"
         d="M 388.69967,389.24701 C 385.11456,390.48662 385.08151,396.71463 385.31523,400.54442 C 387.03059,412.79932 398.06475,417.42871 406.80416,419.66529 C 410.46553,421.77794 410.94472,418.71942 410.47786,414.94965 C 410.0273,401.8926 401.34682,389.34777 390.22963,389.35999 C 389.7285,389.2446 389.21023,389.17781 388.69967,389.24701 z"
         style="fill:#7eff7e;fill-opacity:1;fill-rule:nonzero;stroke:none;stroke-width:10;stroke-linecap:butt;stroke-linejoin:miter;marker:none;marker-start:none;marker-mid:none;marker-end:none;stroke-miterlimit:4;stroke-dasharray:none;stroke-dashoffset:0;stroke-opacity:1;visibility:visible;overflow:visible;enable-background:accumulate" />
      <path
         id="path2459"
         d="M 369.25659,324.30591 C 352.17714,324.42637 334.90504,337.22501 333.63159,354.86841 C 332.00965,359.652 336.92774,362.48796 341.03784,362.36841 C 353.77527,364.18772 363.4031,352.2955 367.13159,341.55591 C 369.46869,335.94998 370.72573,329.97105 372.03784,324.02466 C 371.11076,324.11841 370.18367,324.21216 369.25659,324.30591 z"
         style="fill:#7eff7e;fill-opacity:1;fill-rule:nonzero;stroke:none;stroke-width:10;stroke-linecap:butt;stroke-linejoin:miter;marker:none;marker-start:none;marker-mid:none;marker-end:none;stroke-miterlimit:4;stroke-dasharray:none;stroke-dashoffset:0;stroke-opacity:1;visibility:visible;overflow:visible;enable-background:accumulate" />
      <path
         id="path2463"
         d="M 420.35496,358.26688 C 415.88851,358.19858 408.03259,357.43815 408.05631,364.10872 C 407.41285,374.65405 417.18851,382.20022 426.54488,382.80677 C 432.28039,383.7714 438.08123,383.40747 443.83734,383.00402 C 441.26335,371.13035 432.81957,359.24537 420.35496,358.26688 z"
         style="fill:#7eff7e;fill-opacity:1;fill-rule:nonzero;stroke:none;stroke-width:10;stroke-linecap:butt;stroke-linejoin:miter;marker:none;marker-start:none;marker-mid:none;marker-end:none;stroke-miterlimit:4;stroke-dasharray:none;stroke-dashoffset:0;stroke-opacity:1;visibility:visible;overflow:visible;enable-background:accumulate" />
    </g>
  </g>
</svg>
