<?xml version="1.0" encoding="UTF-8" standalone="no"?>
<!-- Created with Inkscape (http://www.inkscape.org/) -->
<svg
   xmlns:dc="http://purl.org/dc/elements/1.1/"
   xmlns:cc="http://creativecommons.org/ns#"
   xmlns:rdf="http://www.w3.org/1999/02/22-rdf-syntax-ns#"
   xmlns:svg="http://www.w3.org/2000/svg"
   xmlns="http://www.w3.org/2000/svg"
   xmlns:xlink="http://www.w3.org/1999/xlink"
   xmlns:sodipodi="http://sodipodi.sourceforge.net/DTD/sodipodi-0.dtd"
   xmlns:inkscape="http://www.inkscape.org/namespaces/inkscape"
   width="744.09448819"
   height="1052.3622047"
   id="svg4217"
   sodipodi:version="0.32"
   inkscape:version="0.46"
   sodipodi:docname="orchard2.svg"
   inkscape:output_extension="org.inkscape.output.svg.inkscape">
  <defs
     id="defs4219">
    <linearGradient
       id="linearGradient5101">
      <stop
         style="stop-color:#000000;stop-opacity:1;"
         offset="0"
         id="stop5103" />
      <stop
         style="stop-color:#ffffff;stop-opacity:1;"
         offset="1"
         id="stop5105" />
    </linearGradient>
    <inkscape:perspective
       sodipodi:type="inkscape:persp3d"
       inkscape:vp_x="0 : 526.18109 : 1"
       inkscape:vp_y="0 : 1000 : 0"
       inkscape:vp_z="744.09448 : 526.18109 : 1"
       inkscape:persp3d-origin="372.04724 : 350.78739 : 1"
       id="perspective4225" />
    <linearGradient
       inkscape:collect="always"
       xlink:href="#linearGradient5101"
       id="linearGradient3341"
       x1="365.1875"
       y1="601.57471"
       x2="365.1875"
       y2="687.30225"
       gradientUnits="userSpaceOnUse"
       gradientTransform="matrix(0.6288696,0,0,0.6288696,147.95904,140.63213)" />
    <clipPath
       clipPathUnits="userSpaceOnUse"
       id="clipPath3353">
      <path
         sodipodi:type="arc"
         style="opacity:1;fill:#ffffff;fill-opacity:1;fill-rule:nonzero;stroke:#000000;stroke-width:3.31791234;stroke-linecap:butt;stroke-linejoin:miter;marker:none;marker-start:none;marker-mid:none;marker-end:none;stroke-miterlimit:4;stroke-dasharray:none;stroke-dashoffset:0;stroke-opacity:1;visibility:visible;display:inline;overflow:visible;enable-background:accumulate"
         id="path3347"
         sodipodi:cx="-208.09143"
         sodipodi:cy="476.57523"
         sodipodi:rx="173.74623"
         sodipodi:ry="76.771591"
         d="M -34.3452,476.57523 A 173.74623,76.771591 0 1 1 -381.83766,476.57523 A 173.74623,76.771591 0 1 1 -34.3452,476.57523 z"
         transform="matrix(2.4134275,0,0,3.6461776,870.91924,-1189.382)" />
    </clipPath>
  </defs>
  <sodipodi:namedview
     id="base"
     pagecolor="#ffffff"
     bordercolor="#666666"
     borderopacity="1.0"
     gridtolerance="10000"
     guidetolerance="10"
     objecttolerance="10"
     inkscape:pageopacity="0.0"
     inkscape:pageshadow="2"
     inkscape:zoom="0.22627417"
     inkscape:cx="376.20756"
     inkscape:cy="448.58255"
     inkscape:document-units="px"
     inkscape:current-layer="layer1"
     showgrid="false"
     inkscape:window-width="1024"
     inkscape:window-height="750"
     inkscape:window-x="0"
     inkscape:window-y="0" />
  <metadata
     id="metadata4222">
    <rdf:RDF>
      <cc:Work
         rdf:about="">
        <dc:format>image/svg+xml</dc:format>
        <dc:type
           rdf:resource="http://purl.org/dc/dcmitype/StillImage" />
      </cc:Work>
    </rdf:RDF>
  </metadata>
  <g
     inkscape:label="Layer 1"
     inkscape:groupmode="layer"
     id="layer1">
    <rect
       style="opacity:1;fill:#000000;fill-opacity:1;fill-rule:nonzero;stroke:none;stroke-width:10;stroke-linecap:butt;stroke-linejoin:miter;marker:none;marker-start:none;marker-mid:none;marker-end:none;stroke-miterlimit:4;stroke-dasharray:none;stroke-dashoffset:0;stroke-opacity:1;visibility:visible;display:inline;overflow:visible;enable-background:accumulate"
       id="rect3321"
       width="891.86951"
       height="208.36838"
       x="-55.385075"
       y="618.07648"
       clip-path="url(#clipPath3353)"
       transform="matrix(0.6288696,0,0,0.6288696,147.95904,140.63213)" />
    <path
       style="opacity:1;fill:url(#linearGradient3341);fill-opacity:1;fill-rule:nonzero;stroke:none;stroke-width:20;stroke-linecap:butt;stroke-linejoin:miter;marker:none;stroke-miterlimit:4;stroke-dasharray:none;stroke-dashoffset:0;stroke-opacity:1;visibility:visible;display:inline;overflow:visible;enable-background:accumulate"
       d="M 392.17663,341.30049 C 389.00582,342.65942 393.95214,341.61201 390.78132,342.97093 C 395.9081,352.89143 400.12081,363.61732 392.98237,372.5671 C 386.64076,381.72987 371.40829,394.62468 369.00671,405.79893 C 361.1204,377.83309 345.46285,349.42027 322.31314,360.71684 C 322.04082,360.89933 320.84203,363.11441 320.68201,364.19528 C 338.81451,353.72262 347.63816,369.86475 353.48149,391.64937 C 345.61697,387.91762 337.55825,395.46794 327.42271,384.75145 C 326.49674,383.77241 329.4364,390.91354 330.27227,392.06206 C 335.65967,399.46452 350.41547,392.33914 355.83975,401.35754 C 357.60878,409.3052 359.12141,417.56706 360.65454,425.27424 C 344.84205,412.65825 327.01457,421.84529 308.22253,426.55163 C 306.83444,429.62745 307.1971,428.45051 307.39714,429.30293 C 323.90846,425.39378 344.93007,425.01587 356.88132,439.16833 C 362.36543,445.55433 364.44976,451.89192 362.93419,460.11754 C 361.15682,483.7986 363.36821,505.49022 352.42028,525.30381 C 352.41365,525.31019 352.40729,525.3171 352.40062,525.32346 C 345.60188,531.81771 316.5263,531.5909 293.24758,539.6892 C 280.28789,532.89551 256.97148,534.32054 247.77244,525.50033 C 242.95986,507.88322 245.67983,485.63758 242.4467,465.24676 C 247.88736,442.37703 275.00701,435.92078 271.90531,408.80571 L 269.66497,409.17911 C 268.50137,427.89471 251.43204,429.87612 240.12774,442.19476 C 239.25553,419.34332 242.93241,398.27649 252.05661,384.08328 L 248.20479,381.33197 C 241.09434,392.39266 232.93236,400.83349 226.64635,423.89859 C 204.78529,414.93082 200.03947,404.92624 199.80148,391.29563 L 198.48478,390.74537 C 192.74107,410.58005 210.36032,423.3531 223.83609,434.68763 C 222.03932,448.02313 221.35949,455.38214 220.35766,469.29511 C 210.39949,462.47216 190.60988,456.82751 186.49696,444.3958 L 183.96183,447.24537 C 194.27997,471.40031 205.01197,469.56442 218.88374,486.88381 C 217.30471,501.5623 214.89907,516.46651 212.1627,529.98103 L 212.1627,530.02033 L 211.98583,530.6099 C 200.95532,534.88602 174.47024,535.75457 160.87052,548.6899 C 160.8504,548.70904 160.83163,548.72966 160.81156,548.74885 C 158.21638,550.71738 156.50774,553.75891 156.50774,557.21894 C 156.50774,563.21836 161.60766,568.00796 167.65052,568.00799 C 173.04238,568.00799 177.67564,564.18897 178.61644,559.10555 L 229.65313,559.10555 L 229.65313,591.07964 C 224.90914,592.28276 221.30096,596.44798 221.30096,601.49529 C 221.30096,607.49471 226.40089,612.28431 232.44374,612.28434 C 238.48661,612.28434 243.60618,607.49471 243.60618,601.49529 C 243.60618,596.70191 240.33785,592.69915 235.94183,591.27616 L 235.94183,573.07825 L 310.6201,573.07825 L 310.6201,580.57929 C 306.04803,581.89452 302.62166,585.9927 302.62166,590.91634 C 302.62166,596.91576 307.72159,601.70536 313.76445,601.70538 C 319.80732,601.70539 324.92688,596.91575 324.92688,590.91634 C 324.92688,586.00085 321.4743,581.92123 316.90879,580.59894 L 316.90879,573.07825 L 372.21002,573.07825 L 372.21002,629.65686 C 367.47507,630.86612 363.85784,635.03171 363.85784,640.07251 C 363.85785,646.07194 368.95777,650.86153 375.00062,650.86156 C 381.0435,650.86156 386.16306,646.07193 386.16306,640.07251 C 386.16307,635.27775 382.89667,631.27528 378.49871,629.85338 L 378.49871,573.07825 L 462.43315,573.07825 L 462.43315,583.10086 C 457.87241,584.42314 454.43472,588.52241 454.43472,593.4379 C 454.43472,599.43734 459.53464,604.22692 465.5775,604.22695 C 471.62038,604.22696 476.73994,599.43732 476.73994,593.4379 C 476.73994,588.51429 473.29865,584.39645 468.72185,583.08121 L 468.72185,573.07825 L 527.58011,573.07825 L 527.58011,582.82573 C 522.84516,584.03497 519.22794,588.20057 519.22794,593.24138 C 519.22793,599.24078 524.32786,604.0304 530.37072,604.03042 C 536.41358,604.03041 541.53316,599.2408 541.53316,593.24138 C 541.53315,588.44659 538.26677,584.44413 533.86881,583.02225 L 533.86881,551.48051 L 577.1429,551.48051 C 578.75014,555.58349 582.86397,558.47666 587.55855,558.47668 C 593.60144,558.47668 598.72099,553.68705 598.72099,547.68764 C 598.72099,544.03174 596.8178,540.83081 593.96516,538.88346 C 586.52378,531.78852 562.79835,529.37978 546.68203,519.8012 C 544.58508,508.48587 542.75167,496.47939 541.4742,484.60415 C 555.34599,467.28476 566.07798,469.10101 576.39612,444.94607 L 573.86099,442.0965 C 569.74808,454.52822 549.95846,460.19251 540.00029,467.01546 C 538.99847,453.10249 538.33827,445.72383 536.54151,432.38833 C 550.01729,421.05379 567.61688,408.30039 561.87316,388.46571 L 560.55646,388.99632 C 560.31847,402.62693 555.57265,412.63152 533.71159,421.59928 C 527.42558,398.5342 519.2636,390.09336 512.15316,379.03267 L 508.30133,381.80363 C 517.42555,395.99685 521.10241,417.06367 520.2302,439.91511 C 508.92592,427.59648 491.85657,425.5954 490.69298,406.8798 L 488.45263,406.50641 C 485.35092,433.62148 512.47058,440.09737 517.91124,462.96711 C 514.68346,483.32427 517.38498,505.51914 512.60516,523.12242 C 504.13596,528.90403 466.08549,520.53684 450.50428,538.13668 C 435.04316,534.10998 414.50273,530.37631 399.46758,523.3779 C 391.97306,508.06297 391.33133,495.08963 390.6241,475.5445 C 389.62233,460.15463 399.72558,446.58299 412.47732,439.05041 C 429.99545,427.23982 443.49902,423.76104 459.01367,408.96293 C 462.80063,405.00117 469.83419,393.56507 465.59715,390.27371 C 461.96022,390.18847 468.54626,391.30226 464.90933,391.21702 C 464.06758,401.65605 449.19586,408.13545 441.18915,412.61824 C 435.65946,415.36886 430.39772,417.07334 425.3888,418.53354 C 425.76243,411.60632 424.27636,404.19026 418.25506,400.00154 L 413.81367,399.03858 C 419.69418,405.89917 421.02684,414.64798 416.23089,421.20624 C 407.44113,423.92543 399.4931,427.4911 392.27489,437.04589 C 377.97873,415.77064 380.95005,391.35916 403.00497,376.39928 C 413.90497,371.45295 421.75563,367.27882 424.13106,354.21197 C 419.99755,353.49794 425.17918,354.29713 421.04567,353.5831 C 419.5216,360.74964 406.14245,367.86875 402.84776,366.67145 C 403.7265,358.8925 399.00024,343.20762 392.17663,341.30049 z M 556.40985,531.23877 C 566.27292,531.11829 575.06554,534.18483 583.78533,537.54712 C 580.31837,538.77263 577.61283,541.63199 576.7302,545.19181 L 563.99559,545.19181 L 564.19212,544.99529 C 553.98952,544.96354 553.66554,539.13797 550.23907,534.10798 L 549.51194,531.84798 C 551.87665,531.45851 554.16788,531.26615 556.40985,531.23877 z M 508.71403,532.49651 C 503.4841,537.6155 503.03371,544.00481 491.3022,545.09355 L 491.3415,545.19181 L 469.03628,545.19181 C 465.97447,542.95488 461.0264,541.09557 454.96533,539.35512 C 462.43022,531.83116 488.10132,533.14897 508.71403,532.49651 z M 404.5968,534.91372 C 408.55828,534.8874 412.62736,535.1092 416.70254,535.54259 L 416.70254,552.73825 C 403.06338,551.87459 403.42212,541.95415 395.77297,535.44433 C 398.61137,535.10291 401.57467,534.93381 404.5968,534.91372 z M 422.99124,536.36798 C 434.90245,538.22231 446.2878,541.61351 454.2382,545.19181 L 422.99124,545.19181 L 422.99124,536.36798 z M 247.59557,536.99685 C 266.10677,536.88489 280.49929,540.13179 285.93697,542.61738 C 280.26759,545.25089 275.21555,548.55389 271.25679,552.81686 L 262.02027,552.81686 C 253.17286,551.69194 252.49356,542.73769 247.59557,536.99685 z M 214.52096,537.8419 C 208.62095,543.64724 206.93153,551.74373 195.85139,552.7972 L 195.8907,552.81686 L 177.8107,552.81686 C 176.56101,550.15638 174.23127,548.07596 171.40409,547.07842 C 179.59735,540.95239 198.2913,539.6127 214.52096,537.8419 z M 349.29558,537.97946 C 342.00443,543.99795 339.07039,551.22453 325.22166,552.81686 L 316.90879,552.81686 L 316.90879,541.65442 C 327.5109,540.14928 338.90517,539.07217 349.29558,537.97946 z M 540.70777,538.19564 C 545.78565,538.34172 547.69028,542.51986 552.04707,545.19181 L 535.26411,545.19181 C 536.03513,542.82983 536.95374,540.55089 538.03507,538.45112 C 539.01682,538.25152 539.906,538.17257 540.70777,538.19564 z M 523.09942,538.27425 C 523.54548,538.25375 524.00525,538.26527 524.49472,538.3332 C 525.51999,540.48001 526.37494,542.80018 527.10846,545.19181 L 510.69889,545.19181 C 516.56659,541.99263 519.09388,538.45826 523.09942,538.27425 z M 310.6201,542.63703 L 310.6201,552.81686 L 280.94531,552.81686 C 286.25057,547.87437 297.46425,544.82945 310.6201,542.63703 z M 225.80131,542.97112 C 226.00284,542.97686 226.2158,543.00245 226.43018,543.03007 C 227.77466,545.91802 228.8314,549.12508 229.65313,552.40416 L 229.65313,552.81686 L 208.586,552.81686 C 219.46773,549.38953 220.7422,542.82688 225.80131,542.97112 z M 240.67801,542.97112 C 246.04161,543.09395 248.69202,548.9459 253.31435,552.81686 L 235.94183,552.81686 L 235.94183,551.00886 C 236.74239,548.24036 237.72697,545.55738 238.94861,543.12833 C 239.55896,543.01298 240.12958,542.95856 240.67801,542.97112 z M 587.55855,543.18729 C 590.35698,543.1873 592.43229,545.25661 592.43229,547.68764 C 592.4323,550.11866 590.35695,552.18799 587.55855,552.18799 C 584.76015,552.18797 582.70447,550.11867 582.70447,547.68764 C 582.70448,545.2566 584.76015,543.18729 587.55855,543.18729 z M 387.08671,544.44503 C 398.22794,544.05531 400.85546,556.98659 416.70254,557.08138 L 416.70254,566.78955 L 378.49871,566.78955 L 378.49871,562.38746 C 379.82937,556.25172 381.78251,550.02208 384.64984,544.72016 C 385.5067,544.55782 386.31803,544.47192 387.08671,544.44503 z M 365.3121,544.48433 C 365.89196,544.46063 366.50334,544.4968 367.13975,544.58259 C 369.35487,549.00575 370.99147,554.02013 372.21002,559.06625 L 372.21002,566.78955 L 316.90879,566.78955 L 316.90879,559.10555 L 326.4794,559.10555 L 326.4794,558.98764 C 353.32936,556.70191 356.64898,544.83843 365.3121,544.48433 z M 422.99124,551.48051 L 462.43315,551.48051 L 462.43315,566.78955 L 422.99124,566.78955 L 422.99124,551.48051 z M 468.72185,551.48051 L 527.58011,551.48051 L 527.58011,566.78955 L 468.72185,566.78955 L 468.72185,551.48051 z M 167.65052,552.71859 C 170.44894,552.71861 172.52426,554.78791 172.52426,557.21894 C 172.52426,559.64997 170.44892,561.71929 167.65052,561.71929 C 164.85211,561.71928 162.79643,559.64997 162.79643,557.21894 C 162.79643,554.78791 164.85212,552.71859 167.65052,552.71859 z M 235.94183,559.10555 L 310.6201,559.10555 L 310.6201,566.78955 L 235.94183,566.78955 L 235.94183,559.10555 z M 530.37072,588.74103 C 533.16912,588.74103 535.24446,590.81035 535.24446,593.24138 C 535.24445,595.67239 533.16912,597.74173 530.37072,597.74173 C 527.5723,597.7417 525.51664,595.67241 525.51664,593.24138 C 525.51662,590.81033 527.57232,588.74103 530.37072,588.74103 z M 465.5775,588.93755 C 468.37592,588.93758 470.45124,591.00687 470.45124,593.4379 C 470.45125,595.86895 468.3759,597.93825 465.5775,597.93825 C 462.77909,597.93826 460.72341,595.86893 460.72341,593.4379 C 460.72342,591.00689 462.7791,588.93755 465.5775,588.93755 z M 313.76445,586.41599 C 316.56286,586.41601 318.63819,588.48531 318.63819,590.91634 C 318.63819,593.34737 316.56285,595.41668 313.76445,595.41668 C 310.96603,595.41668 308.91036,593.34736 308.91036,590.91634 C 308.91036,588.48532 310.96605,586.41599 313.76445,586.41599 z M 232.44374,596.99495 C 235.24216,596.99496 237.31748,599.06427 237.31748,601.49529 C 237.31748,603.92632 235.24214,605.99564 232.44374,605.99564 C 229.64533,605.99563 227.58966,603.92632 227.58966,601.49529 C 227.58966,599.06427 229.64534,596.99495 232.44374,596.99495 z M 375.00062,635.57217 C 377.79904,635.57218 379.87436,637.64149 379.87436,640.07251 C 379.87437,642.50355 377.79903,644.57286 375.00062,644.57286 C 372.20222,644.57286 370.14654,642.50355 370.14654,640.07251 C 370.14654,637.64149 372.20222,635.57217 375.00062,635.57217 z"
       id="path3412"
       sodipodi:nodetypes="cccccccsscccccccscccccccccccccccccccscsscccsssccccsssccccsssccccsssccccssscccsscccccccccccccccccccccccccccccccccccccccccccccccccccccccccccccccccccccccccccccccccccccccccccccccccccccsssccccccccccccccccccccccccccccssscccccccsssccsssccsssccsssccsssc" />
    <path
       style="opacity:1;fill:#418d30;fill-opacity:1;fill-rule:nonzero;stroke:none;stroke-width:10;stroke-linecap:butt;stroke-linejoin:miter;marker:none;marker-start:none;marker-mid:none;marker-end:none;stroke-miterlimit:4;stroke-dasharray:none;stroke-dashoffset:0;stroke-opacity:1;visibility:visible;display:inline;overflow:visible;enable-background:accumulate"
       d="M 465.09941,393.50644 C 453.22229,373.9768 475.27959,361.27028 475.27959,361.27028 C 475.27959,361.27028 487.51313,389.82705 465.09941,393.50644 z"
       id="path4776" />
    <path
       style="opacity:1;fill:#418d30;fill-opacity:1;fill-rule:nonzero;stroke:none;stroke-width:10;stroke-linecap:butt;stroke-linejoin:miter;marker:none;marker-start:none;marker-mid:none;marker-end:none;stroke-miterlimit:4;stroke-dasharray:none;stroke-dashoffset:0;stroke-opacity:1;visibility:visible;display:inline;overflow:visible;enable-background:accumulate"
       d="M 308.56385,427.09465 C 297.14022,443.97003 279.23836,433.36271 279.23836,433.36271 C 279.23836,433.36271 297.7467,412.40762 308.56385,427.09465 z"
       id="path4778"
       inkscape:transform-center-x="15.027639"
       inkscape:transform-center-y="1.9848927" />
    <path
       style="opacity:1;fill:#418d30;fill-opacity:1;fill-rule:nonzero;stroke:none;stroke-width:10;stroke-linecap:butt;stroke-linejoin:miter;marker:none;marker-start:none;marker-mid:none;marker-end:none;stroke-miterlimit:4;stroke-dasharray:none;stroke-dashoffset:0;stroke-opacity:1;visibility:visible;display:inline;overflow:visible;enable-background:accumulate"
       d="M 323.80353,361.8602 C 314.47967,378.73558 299.86835,368.12825 299.86835,368.12825 C 299.86835,368.12825 314.97467,347.17317 323.80353,361.8602 z"
       id="path4780"
       inkscape:transform-center-x="12.265413"
       inkscape:transform-center-y="1.9848954" />
    <path
       style="opacity:1;fill:#418d30;fill-opacity:1;fill-rule:nonzero;stroke:none;stroke-width:10;stroke-linecap:butt;stroke-linejoin:miter;marker:none;marker-start:none;marker-mid:none;marker-end:none;stroke-miterlimit:4;stroke-dasharray:none;stroke-dashoffset:0;stroke-opacity:1;visibility:visible;display:inline;overflow:visible;enable-background:accumulate"
       d="M 394.8466,347.97479 C 372.75992,341.20471 378.09702,319.51059 378.09702,319.51059 C 378.09702,319.51059 406.99615,332.38984 394.8466,347.97479 z"
       id="path4782"
       inkscape:transform-center-x="7.0938572"
       inkscape:transform-center-y="-14.664408" />
    <path
       style="opacity:1;fill:#418d30;fill-opacity:1;fill-rule:nonzero;stroke:none;stroke-width:10;stroke-linecap:butt;stroke-linejoin:miter;marker:none;marker-start:none;marker-mid:none;marker-end:none;stroke-miterlimit:4;stroke-dasharray:none;stroke-dashoffset:0;stroke-opacity:1;visibility:visible;display:inline;overflow:visible;enable-background:accumulate"
       d="M 422.03908,356.49103 C 413.67418,337.32926 431.84686,326.31284 431.84686,326.31284 C 431.84686,326.31284 440.00812,354.08164 422.03908,356.49103 z"
       id="path4784"
       inkscape:transform-center-x="-5.0703882"
       inkscape:transform-center-y="-15.330609" />
    <path
       style="opacity:1;fill:#418d30;fill-opacity:1;fill-rule:nonzero;stroke:none;stroke-width:10;stroke-linecap:butt;stroke-linejoin:miter;marker:none;marker-start:none;marker-mid:none;marker-end:none;stroke-miterlimit:4;stroke-dasharray:none;stroke-dashoffset:0;stroke-opacity:1;visibility:visible;display:inline;overflow:visible;enable-background:accumulate"
       d="M 327.88539,389.10316 C 315.24218,382.45874 322.84973,371.5768 322.84973,371.5768 C 322.84973,371.5768 338.60802,382.42288 327.88539,389.10316 z"
       id="path4786"
       inkscape:transform-center-x="1.653125"
       inkscape:transform-center-y="-8.98457" />
    <path
       style="opacity:1;fill:#418d30;fill-opacity:1;fill-rule:nonzero;stroke:none;stroke-width:10;stroke-linecap:butt;stroke-linejoin:miter;marker:none;marker-start:none;marker-mid:none;marker-end:none;stroke-miterlimit:4;stroke-dasharray:none;stroke-dashoffset:0;stroke-opacity:1;visibility:visible;display:inline;overflow:visible;enable-background:accumulate"
       d="M 419.74863,404.27189 C 401.99251,403.52915 401.33829,385.2447 401.33829,385.2447 C 401.33829,385.2447 425.42339,389.39883 419.74863,404.27189 z"
       id="path4788"
       inkscape:transform-center-x="8.8099594"
       inkscape:transform-center-y="-9.871015" />
    <path
       style="opacity:1;fill:#418d30;fill-opacity:1;fill-rule:nonzero;stroke:none;stroke-width:10;stroke-linecap:butt;stroke-linejoin:miter;marker:none;marker-start:none;marker-mid:none;marker-end:none;stroke-miterlimit:4;stroke-dasharray:none;stroke-dashoffset:0;stroke-opacity:1;visibility:visible;display:inline;overflow:visible;enable-background:accumulate"
       d="M 396.59463,358.95671 C 383.03606,374.30866 361.78855,364.65891 361.78855,364.65891 C 361.78855,364.65891 383.75588,345.59556 396.59463,358.95671 z"
       id="path4790"
       inkscape:transform-center-x="17.836134"
       inkscape:transform-center-y="1.8057041" />
    <path
       style="opacity:1;fill:#418d30;fill-opacity:1;fill-rule:nonzero;stroke:none;stroke-width:10;stroke-linecap:butt;stroke-linejoin:miter;marker:none;marker-start:none;marker-mid:none;marker-end:none;stroke-miterlimit:4;stroke-dasharray:none;stroke-dashoffset:0;stroke-opacity:1;visibility:visible;display:inline;overflow:visible;enable-background:accumulate"
       d="M 332.41277,426.99025 C 338.56081,450.72575 314.81262,457.96241 314.81262,457.96241 C 314.81262,457.96241 310.60526,424.67012 332.41277,426.99025 z"
       id="path4792"
       inkscape:transform-center-x="8.9091623"
       inkscape:transform-center-y="15.602387" />
    <path
       style="opacity:1;fill:#418d30;fill-opacity:1;fill-rule:nonzero;stroke:none;stroke-width:10;stroke-linecap:butt;stroke-linejoin:miter;marker:none;marker-start:none;marker-mid:none;marker-end:none;stroke-miterlimit:4;stroke-dasharray:none;stroke-dashoffset:0;stroke-opacity:1;visibility:visible;display:inline;overflow:visible;enable-background:accumulate"
       d="M 339.29277,359.49484 C 332.71188,342.61969 349.63451,338.90946 349.63451,338.90946 C 349.63451,338.90946 355.60264,362.33189 339.29277,359.49484 z"
       id="path4794"
       inkscape:transform-center-x="-5.2645188"
       inkscape:transform-center-y="-10.269409" />
    <path
       style="opacity:1;fill:#418d30;fill-opacity:1;fill-rule:nonzero;stroke:none;stroke-width:10;stroke-linecap:butt;stroke-linejoin:miter;marker:none;marker-start:none;marker-mid:none;marker-end:none;stroke-miterlimit:4;stroke-dasharray:none;stroke-dashoffset:0;stroke-opacity:1;visibility:visible;display:inline;overflow:visible;enable-background:accumulate"
       d="M 444.09074,411.61388 C 424.81746,396.45759 439.3242,376.31063 439.3242,376.31063 C 439.3242,376.31063 462.84458,400.24535 444.09074,411.61388 z"
       id="path4796"
       inkscape:transform-center-x="1.1179324"
       inkscape:transform-center-y="-18.065507" />
    <path
       style="opacity:1;fill:#418d30;fill-opacity:1;fill-rule:nonzero;stroke:none;stroke-width:10;stroke-linecap:butt;stroke-linejoin:miter;marker:none;marker-start:none;marker-mid:none;marker-end:none;stroke-miterlimit:4;stroke-dasharray:none;stroke-dashoffset:0;stroke-opacity:1;visibility:visible;display:inline;overflow:visible;enable-background:accumulate"
       d="M 437.48083,424.79649 C 460.52877,416.43197 469.97822,439.38961 469.97822,439.38961 C 469.97822,439.38961 437.23282,446.72566 437.48083,424.79649 z"
       id="path4798"
       inkscape:transform-center-x="-16.464407"
       inkscape:transform-center-y="7.4046786" />
    <path
       style="opacity:1;fill:#418d30;fill-opacity:1;fill-rule:nonzero;stroke:none;stroke-width:10;stroke-linecap:butt;stroke-linejoin:miter;marker:none;marker-start:none;marker-mid:none;marker-end:none;stroke-miterlimit:4;stroke-dasharray:none;stroke-dashoffset:0;stroke-opacity:1;visibility:visible;display:inline;overflow:visible;enable-background:accumulate"
       d="M 331.04334,422.02611 C 311.56247,418.75617 314.28044,400.26623 314.28044,400.26623 C 314.28044,400.26623 340.11289,407.86772 331.04334,422.02611 z"
       id="path4800"
       inkscape:transform-center-x="7.4551846"
       inkscape:transform-center-y="-11.244897" />
    <path
       style="opacity:1;fill:#418d30;fill-opacity:1;fill-rule:nonzero;stroke:none;stroke-width:10;stroke-linecap:butt;stroke-linejoin:miter;marker:none;marker-start:none;marker-mid:none;marker-end:none;stroke-miterlimit:4;stroke-dasharray:none;stroke-dashoffset:0;stroke-opacity:1;visibility:visible;display:inline;overflow:visible;enable-background:accumulate"
       d="M 511.43206,383.65612 C 489.34539,376.88604 494.68248,355.19193 494.68248,355.19193 C 494.68248,355.19193 523.58161,368.07117 511.43206,383.65612 z"
       id="path4916"
       inkscape:transform-center-x="7.09386"
       inkscape:transform-center-y="-14.664405" />
    <path
       style="opacity:1;fill:#418d30;fill-opacity:1;fill-rule:nonzero;stroke:none;stroke-width:10;stroke-linecap:butt;stroke-linejoin:miter;marker:none;marker-start:none;marker-mid:none;marker-end:none;stroke-miterlimit:4;stroke-dasharray:none;stroke-dashoffset:0;stroke-opacity:1;visibility:visible;display:inline;overflow:visible;enable-background:accumulate"
       d="M 573.66558,448.05381 C 567.56916,431.72324 584.06317,425.31925 584.06317,425.31925 C 584.06317,425.31925 589.45111,448.47071 573.66558,448.05381 z"
       id="path4920"
       inkscape:transform-center-x="-5.2790339"
       inkscape:transform-center-y="-11.512158" />
    <path
       style="opacity:1;fill:#418d30;fill-opacity:1;fill-rule:nonzero;stroke:none;stroke-width:10;stroke-linecap:butt;stroke-linejoin:miter;marker:none;marker-start:none;marker-mid:none;marker-end:none;stroke-miterlimit:4;stroke-dasharray:none;stroke-dashoffset:0;stroke-opacity:1;visibility:visible;display:inline;overflow:visible;enable-background:accumulate"
       d="M 489.43485,410.97357 C 478.26559,406.41382 481.38083,392.92151 481.38083,392.92151 C 481.38083,392.92151 495.92343,401.40302 489.43485,410.97357 z"
       id="path4922"
       inkscape:transform-center-x="3.3479768"
       inkscape:transform-center-y="-9.2953803" />
    <path
       style="opacity:1;fill:#418d30;fill-opacity:1;fill-rule:nonzero;stroke:none;stroke-width:10;stroke-linecap:butt;stroke-linejoin:miter;marker:none;marker-start:none;marker-mid:none;marker-end:none;stroke-miterlimit:4;stroke-dasharray:none;stroke-dashoffset:0;stroke-opacity:1;visibility:visible;display:inline;overflow:visible;enable-background:accumulate"
       d="M 558.88631,456.15151 C 544.11165,444.30888 556.69399,431.47791 556.69399,431.47791 C 556.69399,431.47791 574.47251,449.67796 558.88631,456.15151 z"
       id="path4928"
       inkscape:transform-center-x="0.16853764"
       inkscape:transform-center-y="-12.603449" />
    <path
       style="opacity:1;fill:#418d30;fill-opacity:1;fill-rule:nonzero;stroke:none;stroke-width:10;stroke-linecap:butt;stroke-linejoin:miter;marker:none;marker-start:none;marker-mid:none;marker-end:none;stroke-miterlimit:4;stroke-dasharray:none;stroke-dashoffset:0;stroke-opacity:1;visibility:visible;display:inline;overflow:visible;enable-background:accumulate"
       d="M 519.12112,414.79181 C 502.9683,418.12193 499.70605,403.5504 499.70605,403.5504 C 499.70605,403.5504 522.07606,401.56587 519.12112,414.79181 z"
       id="path4934"
       inkscape:transform-center-x="9.6592464"
       inkscape:transform-center-y="-5.7055556" />
    <path
       style="opacity:1;fill:#418d30;fill-opacity:1;fill-rule:nonzero;stroke:none;stroke-width:10;stroke-linecap:butt;stroke-linejoin:miter;marker:none;marker-start:none;marker-mid:none;marker-end:none;stroke-miterlimit:4;stroke-dasharray:none;stroke-dashoffset:0;stroke-opacity:1;visibility:visible;display:inline;overflow:visible;enable-background:accumulate"
       d="M 508.37971,444.32251 C 505.54692,458.74551 488.76834,457.23776 488.76834,457.23776 C 488.76834,457.23776 495.48468,438.02528 508.37971,444.32251 z"
       id="path4936"
       inkscape:transform-center-x="10.136677"
       inkscape:transform-center-y="5.8371433" />
    <path
       style="opacity:1;fill:#418d30;fill-opacity:1;fill-rule:nonzero;stroke:none;stroke-width:10;stroke-linecap:butt;stroke-linejoin:miter;marker:none;marker-start:none;marker-mid:none;marker-end:none;stroke-miterlimit:4;stroke-dasharray:none;stroke-dashoffset:0;stroke-opacity:1;visibility:visible;display:inline;overflow:visible;enable-background:accumulate"
       d="M 561.0679,390.25084 C 546.03834,381.42098 554.8011,366.04965 554.8011,366.04965 C 554.8011,366.04965 573.58205,380.62003 561.0679,390.25084 z"
       id="path4938"
       inkscape:transform-center-x="2.1032534"
       inkscape:transform-center-y="-12.412542" />
    <path
       style="opacity:1;fill:#418d30;fill-opacity:1;fill-rule:nonzero;stroke:none;stroke-width:10;stroke-linecap:butt;stroke-linejoin:miter;marker:none;marker-start:none;marker-mid:none;marker-end:none;stroke-miterlimit:4;stroke-dasharray:none;stroke-dashoffset:0;stroke-opacity:1;visibility:visible;display:inline;overflow:visible;enable-background:accumulate"
       d="M 552.90724,409.89808 C 533.97255,410.02384 535.64657,392.1312 535.64657,392.1312 C 535.64657,392.1312 560.92157,395.04524 552.90724,409.89808 z"
       id="path4940"
       inkscape:transform-center-x="7.8580611"
       inkscape:transform-center-y="-9.2316698" />
    <path
       style="opacity:1;fill:#418d30;fill-opacity:1;fill-rule:nonzero;stroke:none;stroke-width:10;stroke-linecap:butt;stroke-linejoin:miter;marker:none;marker-start:none;marker-mid:none;marker-end:none;stroke-miterlimit:4;stroke-dasharray:none;stroke-dashoffset:0;stroke-opacity:1;visibility:visible;display:inline;overflow:visible;enable-background:accumulate"
       d="M 558.81772,408.53047 C 571.95704,389.53012 591.01712,401.18485 591.01712,401.18485 C 591.01712,401.18485 569.99281,424.82831 558.81772,408.53047 z"
       id="path4946"
       inkscape:transform-center-x="-16.489577"
       inkscape:transform-center-y="-2.3755573" />
    <path
       style="opacity:1;fill:#418d30;fill-opacity:1;fill-rule:nonzero;stroke:none;stroke-width:10;stroke-linecap:butt;stroke-linejoin:miter;marker:none;marker-start:none;marker-mid:none;marker-end:none;stroke-miterlimit:4;stroke-dasharray:none;stroke-dashoffset:0;stroke-opacity:1;visibility:visible;display:inline;overflow:visible;enable-background:accumulate"
       d="M 248.92844,385.95064 C 271.01512,379.18055 265.67802,357.48644 265.67802,357.48644 C 265.67802,357.48644 236.77889,370.36568 248.92844,385.95064 z"
       id="path4950"
       inkscape:transform-center-x="-7.0938602"
       inkscape:transform-center-y="-14.664403" />
    <path
       style="opacity:1;fill:#418d30;fill-opacity:1;fill-rule:nonzero;stroke:none;stroke-width:10;stroke-linecap:butt;stroke-linejoin:miter;marker:none;marker-start:none;marker-mid:none;marker-end:none;stroke-miterlimit:4;stroke-dasharray:none;stroke-dashoffset:0;stroke-opacity:1;visibility:visible;display:inline;overflow:visible;enable-background:accumulate"
       d="M 186.69492,450.34833 C 192.79135,434.01775 176.29734,427.61376 176.29734,427.61376 C 176.29734,427.61376 170.9094,450.76522 186.69492,450.34833 z"
       id="path4952"
       inkscape:transform-center-x="5.2790348"
       inkscape:transform-center-y="-11.512155" />
    <path
       style="opacity:1;fill:#418d30;fill-opacity:1;fill-rule:nonzero;stroke:none;stroke-width:10;stroke-linecap:butt;stroke-linejoin:miter;marker:none;marker-start:none;marker-mid:none;marker-end:none;stroke-miterlimit:4;stroke-dasharray:none;stroke-dashoffset:0;stroke-opacity:1;visibility:visible;display:inline;overflow:visible;enable-background:accumulate"
       d="M 271.35001,413.27916 C 284.74541,405.55915 278.44023,389.03483 278.44023,389.03483 C 278.44023,389.03483 261.44196,402.30555 271.35001,413.27916 z"
       id="path4954"
       inkscape:transform-center-x="-2.6314034"
       inkscape:transform-center-y="-12.455041" />
    <path
       style="opacity:1;fill:#418d30;fill-opacity:1;fill-rule:nonzero;stroke:none;stroke-width:10;stroke-linecap:butt;stroke-linejoin:miter;marker:none;marker-start:none;marker-mid:none;marker-end:none;stroke-miterlimit:4;stroke-dasharray:none;stroke-dashoffset:0;stroke-opacity:1;visibility:visible;display:inline;overflow:visible;enable-background:accumulate"
       d="M 201.4742,458.44602 C 216.24885,446.60339 203.66652,433.77242 203.66652,433.77242 C 203.66652,433.77242 185.888,451.97247 201.4742,458.44602 z"
       id="path4958"
       inkscape:transform-center-x="-0.16853973"
       inkscape:transform-center-y="-12.603451" />
    <path
       style="opacity:1;fill:#418d30;fill-opacity:1;fill-rule:nonzero;stroke:none;stroke-width:10;stroke-linecap:butt;stroke-linejoin:miter;marker:none;marker-start:none;marker-mid:none;marker-end:none;stroke-miterlimit:4;stroke-dasharray:none;stroke-dashoffset:0;stroke-opacity:1;visibility:visible;display:inline;overflow:visible;enable-background:accumulate"
       d="M 241.23938,417.08632 C 257.3922,420.41645 260.65445,405.84491 260.65445,405.84491 C 260.65445,405.84491 238.28445,403.86038 241.23938,417.08632 z"
       id="path4960"
       inkscape:transform-center-x="-9.6592452"
       inkscape:transform-center-y="-5.7055569" />
    <path
       style="opacity:1;fill:#418d30;fill-opacity:1;fill-rule:nonzero;stroke:none;stroke-width:10;stroke-linecap:butt;stroke-linejoin:miter;marker:none;marker-start:none;marker-mid:none;marker-end:none;stroke-miterlimit:4;stroke-dasharray:none;stroke-dashoffset:0;stroke-opacity:1;visibility:visible;display:inline;overflow:visible;enable-background:accumulate"
       d="M 251.98079,446.61702 C 254.81358,461.04002 271.59217,459.53227 271.59217,459.53227 C 271.59217,459.53227 264.87583,440.31979 251.98079,446.61702 z"
       id="path4962"
       inkscape:transform-center-x="-10.136679"
       inkscape:transform-center-y="5.8371408" />
    <path
       style="opacity:1;fill:#418d30;fill-opacity:1;fill-rule:nonzero;stroke:none;stroke-width:10;stroke-linecap:butt;stroke-linejoin:miter;marker:none;marker-start:none;marker-mid:none;marker-end:none;stroke-miterlimit:4;stroke-dasharray:none;stroke-dashoffset:0;stroke-opacity:1;visibility:visible;display:inline;overflow:visible;enable-background:accumulate"
       d="M 199.29261,392.54535 C 214.32216,383.71549 205.55941,368.34416 205.55941,368.34416 C 205.55941,368.34416 186.77846,382.91454 199.29261,392.54535 z"
       id="path4964"
       inkscape:transform-center-x="-2.1032537"
       inkscape:transform-center-y="-12.412544" />
    <path
       style="opacity:1;fill:#418d30;fill-opacity:1;fill-rule:nonzero;stroke:none;stroke-width:10;stroke-linecap:butt;stroke-linejoin:miter;marker:none;marker-start:none;marker-mid:none;marker-end:none;stroke-miterlimit:4;stroke-dasharray:none;stroke-dashoffset:0;stroke-opacity:1;visibility:visible;display:inline;overflow:visible;enable-background:accumulate"
       d="M 207.45327,412.19259 C 226.38796,412.31835 224.71393,394.42571 224.71393,394.42571 C 224.71393,394.42571 199.43893,397.33975 207.45327,412.19259 z"
       id="path4966"
       inkscape:transform-center-x="-7.8580592"
       inkscape:transform-center-y="-9.2316724" />
    <path
       style="opacity:1;fill:#418d30;fill-opacity:1;fill-rule:nonzero;stroke:none;stroke-width:10;stroke-linecap:butt;stroke-linejoin:miter;marker:none;marker-start:none;marker-mid:none;marker-end:none;stroke-miterlimit:4;stroke-dasharray:none;stroke-dashoffset:0;stroke-opacity:1;visibility:visible;display:inline;overflow:visible;enable-background:accumulate"
       d="M 201.54279,410.82498 C 188.40347,391.82463 169.34339,403.47937 169.34339,403.47937 C 169.34339,403.47937 190.3677,427.12283 201.54279,410.82498 z"
       id="path4968"
       inkscape:transform-center-x="16.489575"
       inkscape:transform-center-y="-2.3755548" />
    <path
       sodipodi:type="arc"
       style="opacity:1;fill:none;fill-opacity:1;fill-rule:nonzero;stroke:#000000;stroke-width:3.31791234;stroke-linecap:butt;stroke-linejoin:miter;marker:none;marker-start:none;marker-mid:none;marker-end:none;stroke-miterlimit:4;stroke-dasharray:none;stroke-dashoffset:0;stroke-opacity:1;visibility:visible;display:inline;overflow:visible;enable-background:accumulate"
       id="path3345"
       sodipodi:cx="-208.09143"
       sodipodi:cy="476.57523"
       sodipodi:rx="173.74623"
       sodipodi:ry="76.771591"
       d="M -34.3452,476.57523 A 173.74623,76.771591 0 1 1 -381.83766,476.57523 A 173.74623,76.771591 0 1 1 -34.3452,476.57523 z"
       transform="matrix(1.5177312,0,0,2.2929703,695.65369,-607.33406)" />
    <path
       style="opacity:1;fill:#ffffff;fill-opacity:1;fill-rule:nonzero;stroke:#ffffff;stroke-width:5;stroke-linecap:butt;stroke-linejoin:miter;marker:none;marker-start:none;marker-mid:none;marker-end:none;stroke-miterlimit:4;stroke-dasharray:none;stroke-dashoffset:0;stroke-opacity:1;visibility:visible;display:inline;overflow:visible;enable-background:accumulate"
       d="M 458.57143,594.50504 L 375,594.50504"
       id="path3376" />
    <path
       style="opacity:1;fill:#ffffff;fill-opacity:1;fill-rule:nonzero;stroke:#ffffff;stroke-width:5;stroke-linecap:butt;stroke-linejoin:miter;marker:none;marker-start:none;marker-mid:none;marker-end:none;stroke-miterlimit:4;stroke-dasharray:none;stroke-dashoffset:0;stroke-opacity:1;visibility:visible;display:inline;overflow:visible;enable-background:accumulate"
       d="M 372.85714,619.50504 L 285.21206,619.50504"
       id="path3378"
       sodipodi:nodetypes="cc" />
    <path
       style="opacity:1;fill:#ffffff;fill-opacity:1;fill-rule:nonzero;stroke:#ffffff;stroke-width:5;stroke-linecap:butt;stroke-linejoin:miter;marker:none;marker-start:none;marker-mid:none;marker-end:none;stroke-miterlimit:4;stroke-dasharray:none;stroke-dashoffset:0;stroke-opacity:1;visibility:visible;display:inline;overflow:visible;enable-background:accumulate"
       d="M 276.42857,570.93361 L 276.8192,613.322"
       id="path3380"
       sodipodi:nodetypes="cc" />
    <path
       sodipodi:type="arc"
       style="opacity:1;fill:none;fill-opacity:1;fill-rule:nonzero;stroke:#ffffff;stroke-width:6.64368204;stroke-linecap:butt;stroke-linejoin:miter;marker:none;marker-start:none;marker-mid:none;marker-end:none;stroke-miterlimit:4;stroke-dasharray:none;stroke-dashoffset:0;stroke-opacity:1;visibility:visible;display:inline;overflow:visible;enable-background:accumulate"
       id="path3390"
       sodipodi:cx="276.95312"
       sodipodi:cy="621.89343"
       sodipodi:rx="8.59375"
       sodipodi:ry="8.59375"
       d="M 285.54688,621.89343 A 8.59375,8.59375 0 1 1 268.35938,621.89343 A 8.59375,8.59375 0 1 1 285.54688,621.89343 z"
       transform="matrix(0.9145488,0,0,0.8918215,23.470675,64.541131)" />
    <path
       style="opacity:1;fill:none;fill-opacity:1;fill-rule:nonzero;stroke:#ffffff;stroke-width:3;stroke-linecap:butt;stroke-linejoin:miter;marker:none;marker-start:none;marker-mid:none;marker-end:none;stroke-miterlimit:4;stroke-dasharray:none;stroke-dashoffset:0;stroke-opacity:1;visibility:visible;display:inline;overflow:visible;enable-background:accumulate"
       d="M 344.71456,552.96802 L 344.71456,618.15442"
       id="path3392" />
    <path
       style="opacity:1;fill:none;fill-opacity:1;fill-rule:nonzero;stroke:#ffffff;stroke-width:3;stroke-linecap:butt;stroke-linejoin:miter;marker:none;marker-start:none;marker-mid:none;marker-end:none;stroke-miterlimit:4;stroke-dasharray:none;stroke-dashoffset:0;stroke-opacity:1;visibility:visible;display:inline;overflow:visible;enable-background:accumulate"
       d="M 438.62718,547.44374 L 438.62718,592.74277"
       id="path3394" />
    <path
       style="opacity:1;fill:none;fill-opacity:1;fill-rule:nonzero;stroke:#ffffff;stroke-width:3;stroke-linecap:butt;stroke-linejoin:miter;marker:none;marker-start:none;marker-mid:none;marker-end:none;stroke-miterlimit:4;stroke-dasharray:none;stroke-dashoffset:0;stroke-opacity:1;visibility:visible;display:inline;overflow:visible;enable-background:accumulate"
       d="M 233.12427,582.79908 L 274.00388,582.79908"
       id="path3396" />
    <path
       style="opacity:1;fill:none;fill-opacity:1;fill-rule:nonzero;stroke:#ffffff;stroke-width:3;stroke-linecap:butt;stroke-linejoin:miter;marker:none;marker-start:none;marker-mid:none;marker-end:none;stroke-miterlimit:4;stroke-dasharray:none;stroke-dashoffset:0;stroke-opacity:1;visibility:visible;display:inline;overflow:visible;enable-background:accumulate"
       d="M 375.65048,610.42044 L 498.28931,610.42044 L 498.28931,569.54083"
       id="path3398" />
  </g>
</svg>
