<?xml version="1.0" encoding="UTF-8" standalone="no"?>
<!-- Created with Inkscape (http://www.inkscape.org/) -->
<svg
   xmlns:dc="http://purl.org/dc/elements/1.1/"
   xmlns:cc="http://creativecommons.org/ns#"
   xmlns:rdf="http://www.w3.org/1999/02/22-rdf-syntax-ns#"
   xmlns:svg="http://www.w3.org/2000/svg"
   xmlns="http://www.w3.org/2000/svg"
   xmlns:sodipodi="http://sodipodi.sourceforge.net/DTD/sodipodi-0.dtd"
   xmlns:inkscape="http://www.inkscape.org/namespaces/inkscape"
   width="744.09448819"
   height="1052.3622047"
   id="svg4217"
   sodipodi:version="0.32"
   inkscape:version="0.46"
   sodipodi:docname="orc-logo.svg"
   inkscape:output_extension="org.inkscape.output.svg.inkscape">
  <defs
     id="defs4219">
    <linearGradient
       id="linearGradient5101">
      <stop
         style="stop-color:#000000;stop-opacity:1;"
         offset="0"
         id="stop5103" />
      <stop
         style="stop-color:#ffffff;stop-opacity:1;"
         offset="1"
         id="stop5105" />
    </linearGradient>
    <inkscape:perspective
       sodipodi:type="inkscape:persp3d"
       inkscape:vp_x="0 : 526.18109 : 1"
       inkscape:vp_y="0 : 1000 : 0"
       inkscape:vp_z="744.09448 : 526.18109 : 1"
       inkscape:persp3d-origin="372.04724 : 350.78739 : 1"
       id="perspective4225" />
    <clipPath
       clipPathUnits="userSpaceOnUse"
       id="clipPath3353">
      <path
         sodipodi:type="arc"
         style="opacity:1;fill:#ffffff;fill-opacity:1;fill-rule:nonzero;stroke:#000000;stroke-width:3.31791234;stroke-linecap:butt;stroke-linejoin:miter;marker:none;marker-start:none;marker-mid:none;marker-end:none;stroke-miterlimit:4;stroke-dasharray:none;stroke-dashoffset:0;stroke-opacity:1;visibility:visible;display:inline;overflow:visible;enable-background:accumulate"
         id="path3347"
         sodipodi:cx="-208.09143"
         sodipodi:cy="476.57523"
         sodipodi:rx="173.74623"
         sodipodi:ry="76.771591"
         d="M -34.3452,476.57523 A 173.74623,76.771591 0 1 1 -381.83766,476.57523 A 173.74623,76.771591 0 1 1 -34.3452,476.57523 z"
         transform="matrix(2.4134275,0,0,3.6461776,870.91924,-1189.382)" />
    </clipPath>
  </defs>
  <sodipodi:namedview
     id="base"
     pagecolor="#ffffff"
     bordercolor="#666666"
     borderopacity="1.0"
     gridtolerance="10000"
     guidetolerance="10"
     objecttolerance="10"
     inkscape:pageopacity="0.0"
     inkscape:pageshadow="2"
     inkscape:zoom="0.32"
     inkscape:cx="1015.023"
     inkscape:cy="214.87476"
     inkscape:document-units="px"
     inkscape:current-layer="layer1"
     showgrid="false"
     inkscape:window-width="1024"
     inkscape:window-height="730"
     inkscape:window-x="0"
     inkscape:window-y="20" />
  <metadata
     id="metadata4222">
    <rdf:RDF>
      <cc:Work
         rdf:about="">
        <dc:format>image/svg+xml</dc:format>
        <dc:type
           rdf:resource="http://purl.org/dc/dcmitype/StillImage" />
      </cc:Work>
    </rdf:RDF>
  </metadata>
  <g
     inkscape:label="Layer 1"
     inkscape:groupmode="layer"
     id="layer1">
    <path
       style="opacity:1;fill:#000000;fill-opacity:1;fill-rule:nonzero;stroke:none;stroke-width:5;stroke-linecap:butt;stroke-linejoin:miter;marker:none;marker-start:none;marker-mid:none;marker-end:none;stroke-miterlimit:4;stroke-dasharray:none;stroke-dashoffset:0;stroke-opacity:1;visibility:visible;display:inline;overflow:visible;enable-background:accumulate"
       d="M 406.78711,362.03015 L 410.25391,362.32312 L 410.25391,360.07702 L 409.27734,359.53992 L 408.30078,357.24499 L 405.56641,357.73327 L 405.17578,362.32312 L 406.78711,362.03015 z"
       id="path3358"
       sodipodi:nodetypes="cccccccc" />
    <path
       style="opacity:1;fill:#000000;fill-opacity:1;fill-rule:nonzero;stroke:none;stroke-width:5;stroke-linecap:butt;stroke-linejoin:miter;marker:none;marker-start:none;marker-mid:none;marker-end:none;stroke-miterlimit:4;stroke-dasharray:none;stroke-dashoffset:0;stroke-opacity:1;visibility:visible;display:inline;overflow:visible;enable-background:accumulate"
       d="M 329.6875,358.61218 L 335.15625,357.04968 L 336.71875,359.39343 L 332.81251,363.29969 L 329.6875,358.61218 z"
       id="path3356"
       sodipodi:nodetypes="ccccc" />
    <flowRoot
       xml:space="preserve"
       id="flowRoot2441"
       style="fill:black;fill-opacity:1;stroke:none;stroke-opacity:1;stroke-width:1px;stroke-linejoin:miter;stroke-linecap:butt;font-family:Gentium;font-style:normal;font-weight:normal;font-size:16;font-stretch:normal;font-variant:normal;text-anchor:middle;text-align:center;writing-mode:lr;line-height:100%"><flowRegion
         id="flowRegion2443"><rect
           id="rect2445"
           width="338.08542"
           height="224.28543"
           x="51.928154"
           y="649.09033" /></flowRegion><flowPara
         id="flowPara2447" /></flowRoot>    <text
       xml:space="preserve"
       style="font-size:16px;font-style:normal;font-variant:normal;font-weight:bold;font-stretch:normal;text-align:center;line-height:100%;writing-mode:lr-tb;text-anchor:middle;fill:#000000;fill-opacity:1;stroke:none;stroke-width:1px;stroke-linecap:butt;stroke-linejoin:miter;stroke-opacity:1;font-family:MgOpen Modata;-inkscape-font-specification:MgOpen Modata Bold"
       x="349.95169"
       y="508.07837"
       id="text2437"
       sodipodi:linespacing="100%"><tspan
         sodipodi:role="line"
         id="tspan2439"
         x="349.95169"
         y="508.07837"
         style="font-size:150px;font-style:normal;font-variant:normal;font-weight:bold;font-stretch:normal;font-family:MgOpen Modata;-inkscape-font-specification:MgOpen Modata Bold">Orc</tspan></text>
    <path
       style="fill:#000000;fill-opacity:1;fill-rule:nonzero;stroke:#000000;stroke-width:2;stroke-linecap:butt;stroke-linejoin:miter;marker:none;marker-start:none;marker-mid:none;marker-end:none;stroke-miterlimit:4;stroke-dasharray:none;stroke-dashoffset:0;stroke-opacity:1;visibility:visible;display:inline;overflow:visible;enable-background:accumulate"
       d="M 322.28125,353.28125 L 319.75,355.4375 C 319.75,355.4375 326.54545,358.66277 328.25,366.21875 C 329.46823,371.61892 324.22389,380.81206 321.09375,385.65625 C 308.87225,393.42273 301.34375,405.31248 301.34375,405.3125 L 322.34375,426.3125 C 322.34375,426.3125 321.2397,402.01731 337.8125,390.96875 C 345.64583,386.49802 353.73682,384.31176 361.625,382.75 C 361.62499,382.75003 376.33449,381.4005 381.34375,385.3125 C 386.35301,389.22451 386.53125,394.75 386.53125,394.75 L 388.9375,393.9375 C 388.9375,393.93752 389.94877,384.00416 381.84375,378.9375 C 392.30068,376.44103 401.33519,372.2181 407.40625,361.125 L 406.3125,360.03125 C 386.4933,382.28264 360.22055,372.99371 334.78906,379.79297 C 337.04257,371.99838 338.21857,363.0218 322.28125,353.28125 z"
       id="path2449"
       sodipodi:nodetypes="ccsccccssccccccc" />
    <path
       style="fill:#418d30;fill-opacity:1;fill-rule:nonzero;stroke:none;stroke-width:10;stroke-linecap:butt;stroke-linejoin:miter;marker:none;marker-start:none;marker-mid:none;marker-end:none;stroke-miterlimit:4;stroke-dasharray:none;stroke-dashoffset:0;stroke-opacity:1;visibility:visible;display:inline;overflow:visible;enable-background:accumulate"
       d="M 410.89125,305.77192 C 399.1697,315.28973 388.96749,331.57725 395.05319,346.90771 C 397.69573,351.93089 400.95236,359.29869 407.36756,359.66319 C 420.12877,356.08912 429.57294,342.15321 425.39696,328.96994 C 423.39929,319.83778 418.37156,311.58942 412.49842,304.31451 C 411.96269,304.80032 411.42698,305.28611 410.89125,305.77192 z"
       id="path2453" />
    <path
       style="fill:#418d30;fill-opacity:1;fill-rule:nonzero;stroke:none;stroke-width:10;stroke-linecap:butt;stroke-linejoin:miter;marker:none;marker-start:none;marker-mid:none;marker-end:none;stroke-miterlimit:4;stroke-dasharray:none;stroke-dashoffset:0;stroke-opacity:1;visibility:visible;display:inline;overflow:visible;enable-background:accumulate"
       d="M 301.01808,333.14515 C 293.18093,333.41851 285.96832,337.01369 279.45558,341.08265 C 285.55406,352.18739 297.05554,363.58809 310.70558,361.02015 C 315.70575,359.52338 324.48638,356.1725 322.04933,349.3639 C 319.45045,340.23424 311.0799,332.17011 301.01808,333.14515 z"
       id="path2455" />
    <path
       style="fill:#418d30;fill-opacity:1;fill-rule:nonzero;stroke:none;stroke-width:10;stroke-linecap:butt;stroke-linejoin:miter;marker:none;marker-start:none;marker-mid:none;marker-end:none;stroke-miterlimit:4;stroke-dasharray:none;stroke-dashoffset:0;stroke-opacity:1;visibility:visible;display:inline;overflow:visible;enable-background:accumulate"
       d="M 388.69967,389.24701 C 385.11456,390.48662 385.08151,396.71463 385.31523,400.54442 C 387.03059,412.79932 398.06475,417.42871 406.80416,419.66529 C 410.46553,421.77794 410.94472,418.71942 410.47786,414.94965 C 410.0273,401.8926 401.34682,389.34777 390.22963,389.35999 C 389.7285,389.2446 389.21023,389.17781 388.69967,389.24701 z"
       id="path2457" />
    <path
       style="fill:#418d30;fill-opacity:1;fill-rule:nonzero;stroke:none;stroke-width:10;stroke-linecap:butt;stroke-linejoin:miter;marker:none;marker-start:none;marker-mid:none;marker-end:none;stroke-miterlimit:4;stroke-dasharray:none;stroke-dashoffset:0;stroke-opacity:1;visibility:visible;display:inline;overflow:visible;enable-background:accumulate"
       d="M 369.25659,324.30591 C 352.17714,324.42637 334.90504,337.22501 333.63159,354.86841 C 332.00965,359.652 336.92774,362.48796 341.03784,362.36841 C 353.77527,364.18772 363.4031,352.2955 367.13159,341.55591 C 369.46869,335.94998 370.72573,329.97105 372.03784,324.02466 C 371.11076,324.11841 370.18367,324.21216 369.25659,324.30591 z"
       id="path2459" />
    <path
       style="fill:#418d30;fill-opacity:1;fill-rule:nonzero;stroke:none;stroke-width:10;stroke-linecap:butt;stroke-linejoin:miter;marker:none;marker-start:none;marker-mid:none;marker-end:none;stroke-miterlimit:4;stroke-dasharray:none;stroke-dashoffset:0;stroke-opacity:1;visibility:visible;display:inline;overflow:visible;enable-background:accumulate"
       d="M 420.35496,358.26688 C 415.88851,358.19858 408.03259,357.43815 408.05631,364.10872 C 407.41285,374.65405 417.18851,382.20022 426.54488,382.80677 C 432.28039,383.7714 438.08123,383.40747 443.83734,383.00402 C 441.26335,371.13035 432.81957,359.24537 420.35496,358.26688 z"
       id="path2463" />
  </g>
</svg>
