<?xml version="1.0" encoding="UTF-8" standalone="no"?>
<!-- Created with Inkscape (http://www.inkscape.org/) -->

<svg
   xmlns:dc="http://purl.org/dc/elements/1.1/"
   xmlns:cc="http://creativecommons.org/ns#"
   xmlns:rdf="http://www.w3.org/1999/02/22-rdf-syntax-ns#"
   xmlns:svg="http://www.w3.org/2000/svg"
   xmlns="http://www.w3.org/2000/svg"
   xmlns:sodipodi="http://sodipodi.sourceforge.net/DTD/sodipodi-0.dtd"
   xmlns:inkscape="http://www.inkscape.org/namespaces/inkscape"
   width="253.51083"
   height="212.80048"
   id="svg4217"
   sodipodi:version="0.32"
   inkscape:version="0.48.4 r9939"
   sodipodi:docname="orc-logo.svg"
   inkscape:output_extension="org.inkscape.output.svg.inkscape"
   inkscape:export-filename="/home/adrian/ut/orc/OrcJava/icons/orc-app.png"
   inkscape:export-xdpi="164.57001"
   inkscape:export-ydpi="164.57001"
   version="1.1">
  <defs
     id="defs4219">
    <linearGradient
       id="linearGradient5101">
      <stop
         style="stop-color:#000000;stop-opacity:1;"
         offset="0"
         id="stop5103" />
      <stop
         style="stop-color:#ffffff;stop-opacity:1;"
         offset="1"
         id="stop5105" />
    </linearGradient>
    <inkscape:perspective
       sodipodi:type="inkscape:persp3d"
       inkscape:vp_x="0 : 526.18109 : 1"
       inkscape:vp_y="0 : 1000 : 0"
       inkscape:vp_z="744.09448 : 526.18109 : 1"
       inkscape:persp3d-origin="372.04724 : 350.78739 : 1"
       id="perspective4225" />
    <clipPath
       clipPathUnits="userSpaceOnUse"
       id="clipPath3353">
      <path
         sodipodi:type="arc"
         style="fill:#ffffff;fill-opacity:1;fill-rule:nonzero;stroke:#000000;stroke-width:3.31791234;stroke-linecap:butt;stroke-linejoin:miter;stroke-miterlimit:4;stroke-opacity:1;stroke-dasharray:none;stroke-dashoffset:0;marker:none;visibility:visible;display:inline;overflow:visible;enable-background:accumulate"
         id="path3347"
         sodipodi:cx="-208.09143"
         sodipodi:cy="476.57523"
         sodipodi:rx="173.74623"
         sodipodi:ry="76.771591"
         d="m -34.3452,476.57523 a 173.74623,76.771591 0 1 1 -347.49246,0 173.74623,76.771591 0 1 1 347.49246,0 z"
         transform="matrix(2.4134275,0,0,3.6461776,870.91924,-1189.382)" />
    </clipPath>
  </defs>
  <sodipodi:namedview
     id="base"
     pagecolor="#ffffff"
     bordercolor="#666666"
     borderopacity="1.0"
     gridtolerance="10000"
     guidetolerance="10"
     objecttolerance="10"
     inkscape:pageopacity="0.0"
     inkscape:pageshadow="2"
     inkscape:zoom="1.4437604"
     inkscape:cx="121.79327"
     inkscape:cy="69.428445"
     inkscape:document-units="px"
     inkscape:current-layer="layer1"
     showgrid="false"
     inkscape:window-width="1678"
     inkscape:window-height="1026"
     inkscape:window-x="1050"
     inkscape:window-y="425"
     units="mm"
     fit-margin-top="1"
     fit-margin-left="1"
     fit-margin-right="1"
     fit-margin-bottom="1"
     inkscape:window-maximized="0" />
  <metadata
     id="metadata4222">
    <rdf:RDF>
      <cc:Work
         rdf:about="">
        <dc:format>image/svg+xml</dc:format>
        <dc:type
           rdf:resource="http://purl.org/dc/dcmitype/StillImage" />
        <dc:title></dc:title>
      </cc:Work>
    </rdf:RDF>
  </metadata>
  <g
     inkscape:label="Layer 1"
     inkscape:groupmode="layer"
     id="layer1"
     transform="translate(-218.96698,-300.7712)">
    <path
       style="fill:#000000;fill-opacity:1;fill-rule:nonzero;stroke:none;stroke-width:5;marker:none;visibility:visible;display:inline;overflow:visible;enable-background:accumulate"
       d="m 322.1875,352.0625 -0.5625,0.46875 -2.53125,2.15625 -1.15625,1 1.375,0.65625 c 0,0 6.37631,3.03473 7.96875,10.09375 0.51452,2.28077 -0.39194,5.81624 -1.90625,9.3125 -1.49079,3.44196 -3.49279,6.86064 -5.03125,9.25 C 308.03914,392.91587 300.5,404.78125 300.5,404.78125 l -0.4375,0.6875 0.5625,0.5625 21,21 1.84375,1.8125 -0.125,-2.5625 c 0,0 -0.96317,-23.75664 14.96875,-34.4375 0.0207,-0.0118 0.0418,-0.0195 0.0625,-0.0312 7.6474,-4.35187 15.55394,-6.51551 23.34375,-8.0625 0,0 3.61242,-0.33658 7.84375,-0.1875 4.23133,0.14908 9.06981,0.90184 11.15625,2.53125 4.65832,3.63794 4.8125,8.6875 4.8125,8.6875 l 0.0312,1.34375 1.28125,-0.4375 2.40625,-0.8125 0.625,-0.1875 0.0625,-0.65625 c 0,0 0.81952,-9.06832 -6,-14.6875 9.62401,-2.56054 18.1941,-6.9376 24.03125,-17.21875 l 2.28125,0.1875 0,-2.25 -0.96875,-0.53125 -0.96875,-2.28125 -2.75,0.46875 -0.15625,1.8125 c -9.68266,10.77536 -20.78881,13.89656 -32.84375,15.1875 -11.63747,1.24623 -24.09732,0.76812 -36.5,3.78125 0.92191,-3.56088 1.56932,-7.39948 0.25,-11.53125 -0.50324,-1.57601 -1.27191,-3.17586 -2.375,-4.78125 l 2.78125,-2.78125 -1.5625,-2.34375 -4.5,1.28125 c -2.01383,-1.95534 -4.59381,-3.91996 -7.84375,-5.90625 l -0.625,-0.375 z"
       id="path3358"
       inkscape:connector-curvature="0" />
    <text
       xml:space="preserve"
       style="font-size:16px;font-style:normal;font-variant:normal;font-weight:bold;font-stretch:normal;text-align:center;line-height:100%;writing-mode:lr-tb;text-anchor:middle;fill:#000000;fill-opacity:1;stroke:none;font-family:MgOpen Modata;-inkscape-font-specification:MgOpen Modata Bold"
       x="349.95169"
       y="508.07837"
       id="text2437"
       sodipodi:linespacing="100%"><tspan
         sodipodi:role="line"
         id="tspan2439"
         x="349.95169"
         y="508.07837"
         style="font-size:150px;font-style:normal;font-variant:normal;font-weight:bold;font-stretch:normal;fill:#000000;fill-opacity:1;font-family:MgOpen Modata;-inkscape-font-specification:MgOpen Modata Bold">Orc</tspan></text>
    <path
       style="fill:#00c900;fill-opacity:1;fill-rule:nonzero;stroke:none;stroke-width:10;marker:none;visibility:visible;overflow:visible;enable-background:accumulate"
       d="m 410.89125,305.77192 c -11.72155,9.51781 -21.92376,25.80533 -15.83806,41.13579 2.64254,5.02318 5.89917,12.39098 12.31437,12.75548 12.76121,-3.57407 22.20538,-17.50998 18.0294,-30.69325 -1.99767,-9.13216 -7.0254,-17.38052 -12.89854,-24.65543 -0.53573,0.48581 -1.07144,0.9716 -1.60717,1.45741 z"
       id="path2453"
       inkscape:connector-curvature="0" />
    <path
       style="fill:#00c900;fill-opacity:1;fill-rule:nonzero;stroke:none;stroke-width:10;marker:none;visibility:visible;overflow:visible;enable-background:accumulate"
       d="m 301.01808,333.14515 c -7.83715,0.27336 -15.04976,3.86854 -21.5625,7.9375 6.09848,11.10474 17.59996,22.50544 31.25,19.9375 5.00017,-1.49677 13.7808,-4.84765 11.34375,-11.65625 -2.59888,-9.12966 -10.96943,-17.19379 -21.03125,-16.21875 z"
       id="path2455"
       inkscape:connector-curvature="0" />
    <path
       style="fill:#00c900;fill-opacity:1;fill-rule:nonzero;stroke:none;stroke-width:10;marker:none;visibility:visible;overflow:visible;enable-background:accumulate"
       d="m 388.69967,389.24701 c -3.58511,1.23961 -3.61816,7.46762 -3.38444,11.29741 1.71536,12.2549 12.74952,16.88429 21.48893,19.12087 3.66137,2.11265 4.14056,-0.94587 3.6737,-4.71564 -0.45056,-13.05705 -9.13104,-25.60188 -20.24823,-25.58966 -0.50113,-0.11539 -1.0194,-0.18218 -1.52996,-0.11298 z"
       id="path2457"
       inkscape:connector-curvature="0" />
    <path
       style="fill:#00c900;fill-opacity:1;fill-rule:nonzero;stroke:none;stroke-width:10;marker:none;visibility:visible;overflow:visible;enable-background:accumulate"
       d="m 369.25659,324.30591 c -17.07945,0.12046 -34.35155,12.9191 -35.625,30.5625 -1.62194,4.78359 3.29615,7.61955 7.40625,7.5 12.73743,1.81931 22.36526,-10.07291 26.09375,-20.8125 2.3371,-5.60593 3.59414,-11.58486 4.90625,-17.53125 -0.92708,0.0937 -1.85417,0.1875 -2.78125,0.28125 z"
       id="path2459"
       inkscape:connector-curvature="0" />
    <path
       style="fill:#00c900;fill-opacity:1;fill-rule:nonzero;stroke:none;stroke-width:10;marker:none;visibility:visible;overflow:visible;enable-background:accumulate"
       d="m 420.35496,358.26688 c -4.46645,-0.0683 -12.32237,-0.82873 -12.29865,5.84184 -0.64346,10.54533 9.1322,18.0915 18.48857,18.69805 5.73551,0.96463 11.53635,0.6007 17.29246,0.19725 -2.57399,-11.87367 -11.01777,-23.75865 -23.48238,-24.73714 z"
       id="path2463"
       inkscape:connector-curvature="0" />
  </g>
</svg>
