<?xml version="1.0" encoding="UTF-8"?>
<svg width="384pt" xmlns:xlink="http://www.w3.org/1999/xlink" xmlns="http://www.w3.org/2000/svg" height="259pt" viewBox="0 0 384 259" >
 <g transform="translate(198.396, 1.47559)" style="fill:none; stroke:#000000; stroke-width:0.472425; stroke-linecap:butt; stroke-linejoin:miter; stroke-dasharray:none;" >
  <path d="M35.904 17.9521 C35.904 17.9521 35.539 21.5693 35.539 21.5693 C35.539 21.5693 34.493 24.9394 34.493 24.9394 C34.493 24.9394 32.837 27.9883 32.837 27.9883 C32.837 27.9883 30.645 30.6455 30.645 30.6455 C30.645 30.6455 27.988 32.8379 27.988 32.8379 C27.988 32.8379 24.939 34.4932 24.939 34.4932 C24.939 34.4932 21.569 35.539 21.569 35.539 C21.569 35.539 17.952 35.9043 17.952 35.9043 C17.952 35.9043 14.333 35.539 14.333 35.539 C14.333 35.539 10.963 34.4932 10.963 34.4932 C10.963 34.4932 7.915 32.8379 7.915 32.8379 C7.915 32.8379 5.257 30.6455 5.257 30.6455 C5.257 30.6455 3.065 27.9883 3.065 27.9883 C3.065 27.9883 1.41 24.9394 1.41 24.9394 C1.41 24.9394 0.364 21.5693 0.364 21.5693 C0.364 21.5693 0 17.9521 0 17.9521 C0 17.9521 0.364 14.334 0.364 14.334 C0.364 14.334 1.41 10.9639 1.41 10.9639 C1.41 10.9639 3.065 7.91503 3.065 7.91503 C3.065 7.91503 5.257 5.25781 5.257 5.25781 C5.257 5.25781 7.915 3.06543 7.915 3.06543 C7.915 3.06543 10.963 1.41015 10.963 1.41015 C10.963 1.41015 14.333 0.36425 14.333 0.36425 C14.333 0.36425 17.952 0 17.952 0 C17.952 0 21.569 0.36425 21.569 0.36425 C21.569 0.36425 24.939 1.41015 24.939 1.41015 C24.939 1.41015 27.988 3.06543 27.988 3.06543 C27.988 3.06543 30.645 5.25781 30.645 5.25781 C30.645 5.25781 32.837 7.91503 32.837 7.91503 C32.837 7.91503 34.493 10.9639 34.493 10.9639 C34.493 10.9639 35.539 14.334 35.539 14.334 C35.539 14.334 35.904 17.9521 35.904 17.9521 " />
 </g>
 <g transform="translate(195.561, 97.8496)" style="fill:none; stroke:#000000; stroke-width:0.472425; stroke-linecap:butt; stroke-linejoin:miter; stroke-dasharray:none;" >
  <path d="M35.904 17.9524 C35.904 17.9524 35.539 21.5694 35.539 21.5694 C35.539 21.5694 34.493 24.9394 34.493 24.9394 C34.493 24.9394 32.837 27.9884 32.837 27.9884 C32.837 27.9884 30.645 30.6454 30.645 30.6454 C30.645 30.6454 27.988 32.8384 27.988 32.8384 C27.988 32.8384 24.939 34.4934 24.939 34.4934 C24.939 34.4934 21.569 35.5394 21.569 35.5394 C21.569 35.5394 17.952 35.9044 17.952 35.9044 C17.952 35.9044 14.334 35.5394 14.334 35.5394 C14.334 35.5394 10.963 34.4934 10.963 34.4934 C10.963 34.4934 7.915 32.8384 7.915 32.8384 C7.915 32.8384 5.257 30.6454 5.257 30.6454 C5.257 30.6454 3.065 27.9884 3.065 27.9884 C3.065 27.9884 1.41 24.9394 1.41 24.9394 C1.41 24.9394 0.364 21.5694 0.364 21.5694 C0.364 21.5694 0 17.9524 0 17.9524 C0 17.9524 0.364 14.3344 0.364 14.3344 C0.364 14.3344 1.41 10.9634 1.41 10.9634 C1.41 10.9634 3.065 7.9154 3.065 7.9154 C3.065 7.9154 5.257 5.2574 5.257 5.2574 C5.257 5.2574 7.915 3.0654 7.915 3.0654 C7.915 3.0654 10.963 1.4102 10.963 1.4102 C10.963 1.4102 14.334 0.3643 14.334 0.3643 C14.334 0.3643 17.952 0 17.952 0 C17.952 0 21.569 0.3643 21.569 0.3643 C21.569 0.3643 24.939 1.4102 24.939 1.4102 C24.939 1.4102 27.988 3.0654 27.988 3.0654 C27.988 3.0654 30.645 5.2574 30.645 5.2574 C30.645 5.2574 32.837 7.9154 32.837 7.9154 C32.837 7.9154 34.493 10.9634 34.493 10.9634 C34.493 10.9634 35.539 14.3344 35.539 14.3344 C35.539 14.3344 35.904 17.9524 35.904 17.9524 " />
 </g>
 <g transform="translate(107.69, 97.8496)" style="fill:none; stroke:#000000; stroke-width:0.472425; stroke-linecap:butt; stroke-linejoin:miter; stroke-dasharray:none;" >
  <path d="M35.905 17.9524 C35.905 17.9524 35.539 21.5694 35.539 21.5694 C35.539 21.5694 34.494 24.9394 34.494 24.9394 C34.494 24.9394 32.838 27.9884 32.838 27.9884 C32.838 27.9884 30.646 30.6454 30.646 30.6454 C30.646 30.6454 27.989 32.8384 27.989 32.8384 C27.989 32.8384 24.94 34.4934 24.94 34.4934 C24.94 34.4934 21.57 35.5394 21.57 35.5394 C21.57 35.5394 17.953 35.9044 17.953 35.9044 C17.953 35.9044 14.334 35.5394 14.334 35.5394 C14.334 35.5394 10.964 34.4934 10.964 34.4934 C10.964 34.4934 7.915 32.8384 7.915 32.8384 C7.915 32.8384 5.258 30.6454 5.258 30.6454 C5.258 30.6454 3.066 27.9884 3.066 27.9884 C3.066 27.9884 1.411 24.9394 1.411 24.9394 C1.411 24.9394 0.365 21.5694 0.365 21.5694 C0.365 21.5694 0 17.9524 0 17.9524 C0 17.9524 0.365 14.3344 0.365 14.3344 C0.365 14.3344 1.411 10.9634 1.411 10.9634 C1.411 10.9634 3.066 7.9154 3.066 7.9154 C3.066 7.9154 5.258 5.2574 5.258 5.2574 C5.258 5.2574 7.915 3.0654 7.915 3.0654 C7.915 3.0654 10.964 1.4102 10.964 1.4102 C10.964 1.4102 14.334 0.3643 14.334 0.3643 C14.334 0.3643 17.953 0 17.953 0 C17.953 0 21.57 0.3643 21.57 0.3643 C21.57 0.3643 24.94 1.4102 24.94 1.4102 C24.94 1.4102 27.989 3.0654 27.989 3.0654 C27.989 3.0654 30.646 5.2574 30.646 5.2574 C30.646 5.2574 32.838 7.9154 32.838 7.9154 C32.838 7.9154 34.494 10.9634 34.494 10.9634 C34.494 10.9634 35.539 14.3344 35.539 14.3344 C35.539 14.3344 35.905 17.9524 35.905 17.9524 " />
 </g>
 <g transform="translate(189.892, 222.57)" style="fill:none; stroke:#000000; stroke-width:0.472425; stroke-linecap:butt; stroke-linejoin:miter; stroke-dasharray:none;" >
  <path d="M35.904 17.952 C35.904 17.952 35.539 21.57 35.539 21.57 C35.539 21.57 34.493 24.94 34.493 24.94 C34.493 24.94 32.837 27.989 32.837 27.989 C32.837 27.989 30.645 30.646 30.645 30.646 C30.645 30.646 27.988 32.838 27.988 32.838 C27.988 32.838 24.939 34.493 24.939 34.493 C24.939 34.493 21.569 35.539 21.569 35.539 C21.569 35.539 17.952 35.905 17.952 35.905 C17.952 35.905 14.334 35.539 14.334 35.539 C14.334 35.539 10.963 34.493 10.963 34.493 C10.963 34.493 7.915 32.838 7.915 32.838 C7.915 32.838 5.257 30.646 5.257 30.646 C5.257 30.646 3.065 27.989 3.065 27.989 C3.065 27.989 1.41 24.94 1.41 24.94 C1.41 24.94 0.364 21.57 0.364 21.57 C0.364 21.57 0 17.952 0 17.952 C0 17.952 0.364 14.334 0.364 14.334 C0.364 14.334 1.41 10.964 1.41 10.964 C1.41 10.964 3.065 7.915 3.065 7.915 C3.065 7.915 5.257 5.258 5.257 5.258 C5.257 5.258 7.915 3.066 7.915 3.066 C7.915 3.066 10.963 1.41 10.963 1.41 C10.963 1.41 14.334 0.365 14.334 0.365 C14.334 0.365 17.952 0 17.952 0 C17.952 0 21.569 0.365 21.569 0.365 C21.569 0.365 24.939 1.41 24.939 1.41 C24.939 1.41 27.988 3.066 27.988 3.066 C27.988 3.066 30.645 5.258 30.645 5.258 C30.645 5.258 32.837 7.915 32.837 7.915 C32.837 7.915 34.493 10.964 34.493 10.964 C34.493 10.964 35.539 14.334 35.539 14.334 C35.539 14.334 35.904 17.952 35.904 17.952 " />
 </g>
 <g transform="translate(280.598, 97.8496)" style="fill:none; stroke:#000000; stroke-width:0.472425; stroke-linecap:butt; stroke-linejoin:miter; stroke-dasharray:none;" >
  <path d="M35.904 17.9524 C35.904 17.9524 35.539 21.5694 35.539 21.5694 C35.539 21.5694 34.493 24.9394 34.493 24.9394 C34.493 24.9394 32.838 27.9884 32.838 27.9884 C32.838 27.9884 30.645 30.6454 30.645 30.6454 C30.645 30.6454 27.988 32.8384 27.988 32.8384 C27.988 32.8384 24.939 34.4934 24.939 34.4934 C24.939 34.4934 21.569 35.5394 21.569 35.5394 C21.569 35.5394 17.952 35.9044 17.952 35.9044 C17.952 35.9044 14.334 35.5394 14.334 35.5394 C14.334 35.5394 10.964 34.4934 10.964 34.4934 C10.964 34.4934 7.915 32.8384 7.915 32.8384 C7.915 32.8384 5.257 30.6454 5.257 30.6454 C5.257 30.6454 3.065 27.9884 3.065 27.9884 C3.065 27.9884 1.41 24.9394 1.41 24.9394 C1.41 24.9394 0.364 21.5694 0.364 21.5694 C0.364 21.5694 0 17.9524 0 17.9524 C0 17.9524 0.364 14.3344 0.364 14.3344 C0.364 14.3344 1.41 10.9634 1.41 10.9634 C1.41 10.9634 3.065 7.9154 3.065 7.9154 C3.065 7.9154 5.257 5.2574 5.257 5.2574 C5.257 5.2574 7.915 3.0654 7.915 3.0654 C7.915 3.0654 10.964 1.4102 10.964 1.4102 C10.964 1.4102 14.334 0.3643 14.334 0.3643 C14.334 0.3643 17.952 0 17.952 0 C17.952 0 21.569 0.3643 21.569 0.3643 C21.569 0.3643 24.939 1.4102 24.939 1.4102 C24.939 1.4102 27.988 3.0654 27.988 3.0654 C27.988 3.0654 30.645 5.2574 30.645 5.2574 C30.645 5.2574 32.838 7.9154 32.838 7.9154 C32.838 7.9154 34.493 10.9634 34.493 10.9634 C34.493 10.9634 35.539 14.3344 35.539 14.3344 C35.539 14.3344 35.904 17.9524 35.904 17.9524 " />
 </g>
 <g transform="translate(63.2822, 76.1182)" style="fill:none; stroke:#000000; stroke-width:0.472425; stroke-linecap:butt; stroke-linejoin:miter; stroke-dasharray:none;" >
  <path d="M0 0 C0 0 269.282 0 269.282 0 C269.282 0 269.282 99.2098 269.282 99.2098 C269.282 99.2098 0 99.2098 0 99.2098 C0 99.2098 0 0 0 0 " />
 </g>
 <g transform="translate(216.348, 36.4346)" style="fill:none; stroke:#000000; stroke-width:0.472425; stroke-linecap:butt; stroke-linejoin:miter; stroke-dasharray:none;" >
  <path d="M0 0 C0 0 0 62.3603 0 62.3603 " />
 </g>
 <g transform="translate(214.458, 90.2285)" style="fill:#000000; fill-rule:evenodd; stroke:#000000; stroke-width:0.472425; stroke-linecap:butt; stroke-linejoin:miter; stroke-dasharray:none;" >
  <path d="M0 0 C0 0 1.89 7.5586 1.89 7.5586 C1.89 7.5586 3.779 0 3.779 0 C3.779 0 0 0 0 0 Z" />
 </g>
 <g transform="translate(136.98, 36.4346)" style="fill:none; stroke:#000000; stroke-width:0.472425; stroke-linecap:butt; stroke-linejoin:miter; stroke-dasharray:none;" >
  <path d="M68.03 0 C68.03 0 0 65.1954 0 65.1954 " />
 </g>
 <g transform="translate(197.451, 37.1279)" style="fill:#000000; fill-rule:evenodd; stroke:#000000; stroke-width:0.472425; stroke-linecap:butt; stroke-linejoin:miter; stroke-dasharray:none;" >
  <path d="M2.646 6.5508 C2.646 6.5508 6.803 0 6.803 0 C6.803 0 0 3.8418 0 3.8418 C0 3.8418 2.646 6.5508 2.646 6.5508 Z" />
 </g>
 <g transform="translate(137.736, 94.3223)" style="fill:#000000; fill-rule:evenodd; stroke:#000000; stroke-width:0.472425; stroke-linecap:butt; stroke-linejoin:miter; stroke-dasharray:none;" >
  <path d="M4.094 0 C4.094 0 0 6.6147 0 6.6147 C0 6.6147 6.741 2.7089 6.741 2.7089 C6.741 2.7089 4.094 0 4.094 0 Z" />
 </g>
 <g transform="translate(227.686, 30.7656)" style="fill:none; stroke:#000000; stroke-width:0.472425; stroke-linecap:butt; stroke-linejoin:miter; stroke-dasharray:none;" >
  <path d="M0 0 C0 0 62.36 68.0293 62.36 68.0293 " />
 </g>
 <g transform="translate(282.802, 91.1729)" style="fill:#000000; fill-rule:evenodd; stroke:#000000; stroke-width:0.472425; stroke-linecap:butt; stroke-linejoin:miter; stroke-dasharray:none;" >
  <path d="M0 2.5195 C0 2.5195 6.552 6.8662 6.552 6.8662 C6.552 6.8662 2.835 0 2.835 0 C2.835 0 0 2.5195 0 2.5195 Z" />
 </g>
 <g transform="translate(210.679, 178.162)" style="fill:none; stroke:#000000; stroke-width:0.472425; stroke-linecap:butt; stroke-linejoin:miter; stroke-dasharray:none;" >
  <path d="M0 0 C0 0 0 45.354 0 45.354 " />
 </g>
 <g transform="translate(208.789, 214.948)" style="fill:#000000; fill-rule:evenodd; stroke:#000000; stroke-width:0.472425; stroke-linecap:butt; stroke-linejoin:miter; stroke-dasharray:none;" >
  <path d="M0 0 C0 0 1.89 7.559 1.89 7.559 C1.89 7.559 3.779 0 3.779 0 C3.779 0 0 0 0 0 Z" />
 </g>
 <g transform="translate(145.484, 118.637)" style="fill:none; stroke:#000000; stroke-width:0.472425; stroke-linecap:butt; stroke-linejoin:miter; stroke-dasharray:none;" >
  <path d="M0 0 C0 0 48.187 0 48.187 0 " />
 </g>
 <g transform="translate(146.492, 116.747)" style="fill:#000000; fill-rule:evenodd; stroke:#000000; stroke-width:0.472425; stroke-linecap:butt; stroke-linejoin:miter; stroke-dasharray:none;" >
  <path d="M7.559 0 C7.559 0 0 1.89 0 1.89 C0 1.89 7.559 3.779 7.559 3.779 C7.559 3.779 7.559 0 7.559 0 Z" />
 </g>
 <g transform="translate(230.52, 118.637)" style="fill:none; stroke:#000000; stroke-width:0.472425; stroke-linecap:butt; stroke-linejoin:miter; stroke-dasharray:none;" >
  <path d="M0 0 C0 0 48.188 0 48.188 0 " />
 </g>
 <g transform="translate(270.142, 116.747)" style="fill:#000000; fill-rule:evenodd; stroke:#000000; stroke-width:0.472425; stroke-linecap:butt; stroke-linejoin:miter; stroke-dasharray:none;" >
  <path d="M0 3.779 C0 3.779 7.558 1.89 7.558 1.89 C7.558 1.89 0 0 0 0 C0 0 0 3.779 0 3.779 Z" />
 </g>
 <g transform="translate(222.017, 19.4277)" style="fill:none; stroke:#000000; stroke-width:0.472425; stroke-linecap:butt; stroke-linejoin:bevel; stroke-dasharray:none;" >
  <path d="M11.338 0 C11.338 0 11.401 0 11.401 0 C11.401 0 11.527 0 11.527 0 C11.527 0 11.779 0.0625 11.779 0.0625 C11.779 0.0625 12.22 0.126 12.22 0.126 C12.22 0.126 12.787 0.1885 12.787 0.1885 C12.787 0.1885 13.543 0.252 13.543 0.252 C13.543 0.252 14.55 0.378 14.55 0.378 C14.55 0.378 15.81 0.5664 15.81 0.5664 C15.81 0.5664 17.322 0.7559 17.322 0.7559 C17.322 0.7559 19.023 1.0078 19.023 1.0078 C19.023 1.0078 20.975 1.2598 20.975 1.2598 C20.975 1.2598 23.243 1.5743 23.243 1.5743 C23.243 1.5743 25.636 1.9522 25.636 1.9522 C25.636 1.9522 28.345 2.3936 28.345 2.3936 C28.345 2.3936 31.18 2.834 31.18 2.834 C31.18 2.834 34.204 3.3379 34.204 3.3379 C34.204 3.3379 37.416 3.9053 37.416 3.9053 C37.416 3.9053 40.754 4.5352 40.754 4.5352 C40.754 4.5352 44.218 5.2276 44.218 5.2276 C44.218 5.2276 47.809 5.9209 47.809 5.9209 C47.809 5.9209 51.462 6.6768 51.462 6.6768 C51.462 6.6768 55.179 7.5586 55.179 7.5586 C55.179 7.5586 58.959 8.4405 58.959 8.4405 C58.959 8.4405 62.738 9.3858 62.738 9.3858 C62.738 9.3858 66.581 10.3936 66.581 10.3936 C66.581 10.3936 70.422 11.5274 70.422 11.5274 C70.422 11.5274 74.265 12.6612 74.265 12.6612 C74.265 12.6612 78.107 13.9834 78.107 13.9834 C78.107 13.9834 81.95 15.3067 81.95 15.3067 C81.95 15.3067 85.793 16.7549 85.793 16.7549 C85.793 16.7549 89.634 18.3301 89.634 18.3301 C89.634 18.3301 93.414 19.9678 93.414 19.9678 C93.414 19.9678 97.193 21.794 97.193 21.794 C97.193 21.794 100.91 23.7471 100.91 23.7471 C100.91 23.7471 104.689 25.8262 104.689 25.8262 C104.689 25.8262 108.406 28.0303 108.406 28.0303 C108.406 28.0303 112.059 30.4873 112.059 30.4873 C112.059 30.4873 115.712 33.0694 115.712 33.0694 C115.712 33.0694 119.303 35.8409 119.303 35.8409 C119.303 35.8409 122.831 38.8643 122.831 38.8643 C122.831 38.8643 126.295 42.0137 126.295 42.0137 C126.295 42.0137 129.696 45.4161 129.696 45.4161 C129.696 45.4161 132.909 49.0059 132.909 49.0059 C132.909 49.0059 135.996 52.7852 135.996 52.7852 C135.996 52.7852 138.893 56.6905 138.893 56.6905 C138.893 56.6905 141.413 60.5957 141.413 60.5957 C141.413 60.5957 143.743 64.502 143.743 64.502 C143.743 64.502 145.884 68.4698 145.884 68.4698 C145.884 68.4698 147.774 72.4385 147.774 72.4385 C147.774 72.4385 149.538 76.2803 149.538 76.2803 C149.538 76.2803 151.049 79.9971 151.049 79.9971 C151.049 79.9971 152.435 83.5883 152.435 83.5883 C152.435 83.5883 153.632 87.0513 153.632 87.0513 C153.632 87.0513 154.766 90.3273 154.766 90.3273 C154.766 90.3273 155.712 93.4143 155.712 93.4143 C155.712 93.4143 156.53 96.3743 156.53 96.3743 C156.53 96.3743 157.286 99.1463 157.286 99.1463 C157.286 99.1463 157.916 101.728 157.916 101.728 C157.916 101.728 158.483 104.185 158.483 104.185 C158.483 104.185 158.987 106.515 158.987 106.515 C158.987 106.515 159.365 108.657 159.365 108.657 C159.365 108.657 159.743 110.673 159.743 110.673 C159.743 110.673 160.057 112.626 160.057 112.626 C160.057 112.626 160.309 114.452 160.309 114.452 C160.309 114.452 160.561 116.153 160.561 116.153 C160.561 116.153 160.751 117.854 160.751 117.854 C160.751 117.854 160.877 119.428 160.877 119.428 C160.877 119.428 161.003 121.004 161.003 121.004 C161.003 121.004 161.129 122.578 161.129 122.578 C161.129 122.578 161.129 124.153 161.129 124.153 C161.129 124.153 161.129 125.727 161.129 125.727 C161.129 125.727 161.129 127.302 161.129 127.302 C161.129 127.302 161.065 128.94 161.065 128.94 C161.065 128.94 160.939 130.704 160.939 130.704 C160.939 130.704 160.813 132.468 160.813 132.468 C160.813 132.468 160.561 134.295 160.561 134.295 C160.561 134.295 160.309 136.31 160.309 136.31 C160.309 136.31 159.995 138.388 159.995 138.388 C159.995 138.388 159.553 140.593 159.553 140.593 C159.553 140.593 159.049 142.924 159.049 142.924 C159.049 142.924 158.419 145.443 158.419 145.443 C158.419 145.443 157.727 148.026 157.727 148.026 C157.727 148.026 156.908 150.798 156.908 150.798 C156.908 150.798 155.9 153.759 155.9 153.759 C155.9 153.759 154.83 156.844 154.83 156.844 C154.83 156.844 153.506 160.057 153.506 160.057 C153.506 160.057 152.057 163.395 152.057 163.395 C152.057 163.395 150.42 166.797 150.42 166.797 C150.42 166.797 148.593 170.325 148.593 170.325 C148.593 170.325 146.514 173.852 146.514 173.852 C146.514 173.852 144.184 177.38 144.184 177.38 C144.184 177.38 141.665 180.843 141.665 180.843 C141.665 180.843 138.893 184.245 138.893 184.245 C138.893 184.245 135.744 187.584 135.744 187.584 C135.744 187.584 132.405 190.733 132.405 190.733 C132.405 190.733 128.878 193.694 128.878 193.694 C128.878 193.694 125.224 196.402 125.224 196.402 C125.224 196.402 121.445 198.922 121.445 198.922 C121.445 198.922 117.602 201.189 117.602 201.189 C117.602 201.189 113.633 203.205 113.633 203.205 C113.633 203.205 109.666 205.095 109.666 205.095 C109.666 205.095 105.697 206.796 105.697 206.796 C105.697 206.796 101.666 208.307 101.666 208.307 C101.666 208.307 97.571 209.631 97.571 209.631 C97.571 209.631 93.477 210.827 93.477 210.827 C93.477 210.827 89.382 211.835 89.382 211.835 C89.382 211.835 85.225 212.78 85.225 212.78 C85.225 212.78 81.068 213.536 81.068 213.536 C81.068 213.536 76.911 214.228 76.911 214.228 C76.911 214.228 72.754 214.858 72.754 214.858 C72.754 214.858 68.533 215.3 68.533 215.3 C68.533 215.3 64.376 215.74 64.376 215.74 C64.376 215.74 60.155 216.055 60.155 216.055 C60.155 216.055 55.998 216.307 55.998 216.307 C55.998 216.307 51.84 216.496 51.84 216.496 C51.84 216.496 47.747 216.685 47.747 216.685 C47.747 216.685 43.714 216.748 43.714 216.748 C43.714 216.748 39.683 216.811 39.683 216.811 C39.683 216.811 35.841 216.811 35.841 216.811 C35.841 216.811 32.062 216.748 32.062 216.748 C32.062 216.748 28.409 216.748 28.409 216.748 C28.409 216.748 24.944 216.622 24.944 216.622 C24.944 216.622 21.605 216.559 21.605 216.559 C21.605 216.559 18.519 216.433 18.519 216.433 C18.519 216.433 15.622 216.307 15.622 216.307 C15.622 216.307 12.913 216.181 12.913 216.181 C12.913 216.181 10.519 216.055 10.519 216.055 C10.519 216.055 8.378 215.992 8.378 215.992 C8.378 215.992 6.488 215.866 6.488 215.866 C6.488 215.866 4.85 215.74 4.85 215.74 C4.85 215.74 3.527 215.677 3.527 215.677 C3.527 215.677 2.457 215.614 2.457 215.614 C2.457 215.614 1.575 215.551 1.575 215.551 C1.575 215.551 0.945 215.488 0.945 215.488 C0.945 215.488 0 215.426 0 215.426 " />
 </g>
 <g transform="translate(223.024, 233.53)" style="fill:#000000; fill-rule:evenodd; stroke:#000000; stroke-width:0.472425; stroke-linecap:butt; stroke-linejoin:miter; stroke-dasharray:none;" >
  <path d="M7.622 0 C7.622 0 0 1.386 0 1.386 C0 1.386 7.371 3.717 7.371 3.717 C7.371 3.717 7.622 0 7.622 0 Z" />
 </g>
 <g transform="translate(191.056, 143.584)" style="fill:#000000; fill-rule:evenodd; stroke:none; stroke-width:0.472425; stroke-linecap:butt; stroke-linejoin:miter; stroke-dasharray:none;" >
  <path d="M0 0 C0 0 0 0.343 0 0.343 C1.512 0.433 1.728 0.631 1.728 1.962 C1.728 1.962 1.728 9.954 1.728 9.954 C1.728 11.286 1.494 11.52 0 11.574 C0 11.574 0 11.916 0 11.916 C0 11.916 6.011 11.916 6.011 11.916 C7.416 11.916 8.694 11.538 9.36 10.926 C10.007 10.35 10.368 9.54 10.368 8.676 C10.368 7.884 10.044 7.164 9.486 6.643 C8.946 6.156 8.46 5.94 7.29 5.652 C8.225 5.418 8.604 5.238 9.036 4.86 C9.486 4.464 9.756 3.798 9.756 3.061 C9.756 1.044 8.154 0 5.04 0 C5.04 0 0 0 0 0 Z M3.564 6.048 C5.31 6.048 6.137 6.139 6.786 6.408 C7.812 6.84 8.298 7.561 8.298 8.694 C8.298 9.666 7.92 10.368 7.2 10.782 C6.624 11.106 5.885 11.25 4.698 11.25 C3.816 11.25 3.564 11.088 3.564 10.512 C3.564 10.512 3.564 6.048 3.564 6.048 Z M3.564 5.328 C3.564 5.328 3.564 1.206 3.564 1.206 C3.564 0.828 3.69 0.666 3.96 0.666 C3.96 0.666 4.752 0.666 4.752 0.666 C6.822 0.666 7.92 1.53 7.92 3.133 C7.92 4.536 6.965 5.328 5.274 5.328 C5.274 5.328 3.564 5.328 3.564 5.328 Z" />
 </g>
 <g transform="translate(203.092, 143.206)" style="fill:#000000; fill-rule:evenodd; stroke:none; stroke-width:0.472425; stroke-linecap:butt; stroke-linejoin:miter; stroke-dasharray:none;" >
  <path d="M0 1.08 C0 1.08 0.108 1.08 0.108 1.08 C0.306 1.063 0.522 1.044 0.666 1.044 C1.242 1.044 1.422 1.296 1.422 2.143 C1.422 2.143 1.422 10.728 1.422 10.728 C1.422 11.7 1.17 11.934 0.036 12.024 C0.036 12.024 0.036 12.294 0.036 12.294 C0.036 12.294 4.284 12.294 4.284 12.294 C4.284 12.294 4.284 12.024 4.284 12.024 C3.15 11.952 2.934 11.772 2.934 10.782 C2.934 10.782 2.934 0.036 2.934 0.036 C2.934 0.036 2.862 0 2.862 0 C1.926 0.307 1.242 0.486 0 0.792 C0 0.792 0 1.08 0 1.08 Z" />
 </g>
 <g transform="translate(208.272, 147.221)" style="fill:#000000; fill-rule:evenodd; stroke:none; stroke-width:0.472425; stroke-linecap:butt; stroke-linejoin:miter; stroke-dasharray:none;" >
  <path d="M3.978 0 C1.638 0 0 1.727 0 4.212 C0 6.641 1.674 8.459 3.942 8.459 C6.209 8.459 7.938 6.551 7.938 4.067 C7.938 1.71 6.282 0 3.978 0 Z M3.744 0.504 C5.255 0.504 6.318 2.231 6.318 4.697 C6.318 6.731 5.508 7.955 4.158 7.955 C3.456 7.955 2.79 7.523 2.412 6.803 C1.908 5.867 1.62 4.607 1.62 3.329 C1.62 1.619 2.466 0.504 3.744 0.504 Z" />
 </g>
 <g transform="translate(217.2, 147.221)" style="fill:#000000; fill-rule:evenodd; stroke:none; stroke-width:0.472425; stroke-linecap:butt; stroke-linejoin:miter; stroke-dasharray:none;" >
  <path d="M6.714 5.471 C5.85 6.731 5.201 7.163 4.176 7.163 C2.538 7.163 1.386 5.723 1.386 3.653 C1.386 1.8 2.376 0.521 3.834 0.521 C4.482 0.521 4.716 0.719 4.896 1.385 C4.896 1.385 5.004 1.781 5.004 1.781 C5.148 2.285 5.472 2.609 5.85 2.609 C6.318 2.609 6.714 2.267 6.714 1.853 C6.714 0.845 5.453 0 3.942 0 C3.06 0 2.142 0.359 1.404 1.008 C0.504 1.8 0 3.023 0 4.445 C0 6.785 1.422 8.459 3.42 8.459 C4.23 8.459 4.949 8.171 5.598 7.613 C6.084 7.181 6.426 6.695 6.966 5.633 C6.966 5.633 6.714 5.471 6.714 5.471 Z" />
 </g>
 <g transform="translate(224.876, 143.206)" style="fill:#000000; fill-rule:evenodd; stroke:none; stroke-width:0.472425; stroke-linecap:butt; stroke-linejoin:miter; stroke-dasharray:none;" >
  <path d="M0 1.08 C0.234 1.063 0.396 1.044 0.576 1.044 C1.17 1.044 1.35 1.278 1.35 2.143 C1.35 2.143 1.35 10.818 1.35 10.818 C1.35 11.754 1.296 11.808 0 12.024 C0 12.024 0 12.294 0 12.294 C0 12.294 4.212 12.294 4.212 12.294 C4.212 12.294 4.212 12.024 4.212 12.024 C4.212 12.024 3.852 12.006 3.852 12.006 C3.132 11.97 2.862 11.718 2.862 11.088 C2.862 11.088 2.862 7.776 2.862 7.776 C2.862 7.776 5.382 11.142 5.382 11.142 C5.382 11.142 5.436 11.214 5.436 11.214 C5.472 11.268 5.508 11.322 5.562 11.376 C5.706 11.556 5.76 11.664 5.76 11.754 C5.76 11.916 5.598 12.024 5.382 12.024 C5.382 12.024 5.04 12.024 5.04 12.024 C5.04 12.024 5.04 12.294 5.04 12.294 C5.04 12.294 8.964 12.294 8.964 12.294 C8.964 12.294 8.964 12.024 8.964 12.024 C8.172 11.97 7.614 11.628 6.857 10.71 C6.857 10.71 4.103 7.218 4.103 7.218 C4.103 7.218 4.626 6.732 4.626 6.732 C5.904 5.544 7.02 4.716 7.542 4.572 C7.812 4.5 8.063 4.464 8.37 4.464 C8.37 4.464 8.514 4.464 8.514 4.464 C8.514 4.464 8.514 4.194 8.514 4.194 C8.514 4.194 4.842 4.194 4.842 4.194 C4.842 4.194 4.842 4.446 4.842 4.446 C5.544 4.464 5.742 4.536 5.742 4.788 C5.742 4.933 5.58 5.185 5.328 5.4 C5.328 5.4 2.862 7.596 2.862 7.596 C2.862 7.596 2.862 0.036 2.862 0.036 C2.862 0.036 2.79 0 2.79 0 C2.105 0.217 1.584 0.36 0.54 0.648 C0.54 0.648 0 0.792 0 0.792 C0 0.792 0 1.08 0 1.08 Z" />
 </g>
 <g transform="translate(234.2, 147.221)" style="fill:#000000; fill-rule:evenodd; stroke:none; stroke-width:0.472425; stroke-linecap:butt; stroke-linejoin:miter; stroke-dasharray:none;" >
  <path d="M6.894 5.327 C6.029 6.695 5.256 7.217 4.104 7.217 C3.078 7.217 2.304 6.695 1.781 5.669 C1.458 4.985 1.332 4.391 1.296 3.294 C1.296 3.294 6.84 3.294 6.84 3.294 C6.696 2.123 6.516 1.601 6.066 1.025 C5.526 0.378 4.697 0 3.762 0 C2.862 0 2.016 0.323 1.332 0.935 C0.486 1.674 0 2.951 0 4.427 C0 6.911 1.296 8.459 3.365 8.459 C5.075 8.459 6.426 7.397 7.182 5.453 C7.182 5.453 6.894 5.327 6.894 5.327 Z M1.332 2.717 C1.529 1.313 2.142 0.647 3.239 0.647 C4.338 0.647 4.77 1.151 5.004 2.717 C5.004 2.717 1.332 2.717 1.332 2.717 Z" />
 </g>
 <g transform="translate(242.236, 143.206)" style="fill:#000000; fill-rule:evenodd; stroke:none; stroke-width:0.472425; stroke-linecap:butt; stroke-linejoin:miter; stroke-dasharray:none;" >
  <path d="M5.705 12.474 C5.705 12.474 8.352 11.538 8.352 11.538 C8.352 11.538 8.352 11.25 8.352 11.25 C8.028 11.268 7.992 11.268 7.938 11.268 C7.289 11.268 7.146 11.07 7.146 10.242 C7.146 10.242 7.146 0.036 7.146 0.036 C7.146 0.036 7.056 0 7.056 0 C6.192 0.307 5.562 0.486 4.41 0.792 C4.41 0.792 4.41 1.08 4.41 1.08 C4.554 1.063 4.661 1.063 4.806 1.063 C5.472 1.063 5.634 1.242 5.634 1.981 C5.634 1.981 5.634 4.788 5.634 4.788 C4.95 4.212 4.464 4.015 3.743 4.015 C1.674 4.015 0 6.048 0 8.605 C0 10.908 1.35 12.474 3.329 12.474 C4.338 12.474 5.022 12.114 5.634 11.268 C5.634 11.268 5.634 12.42 5.634 12.42 C5.634 12.42 5.705 12.474 5.705 12.474 Z M5.634 10.458 C5.634 10.584 5.508 10.8 5.327 10.998 C5.004 11.358 4.554 11.538 4.032 11.538 C2.537 11.538 1.548 10.098 1.548 7.884 C1.548 5.851 2.43 4.519 3.798 4.519 C4.752 4.519 5.634 5.364 5.634 6.318 C5.634 6.318 5.634 10.458 5.634 10.458 Z" />
 </g>
 <g transform="translate(145.77, 15.8682)" style="fill:#000000; fill-rule:evenodd; stroke:none; stroke-width:0.472425; stroke-linecap:butt; stroke-linejoin:miter; stroke-dasharray:none;" >
  <path d="M12.438 11.79 C11.627 11.7363 11.448 11.5556 10.818 10.2236 C10.818 10.2236 6.335 0 6.335 0 C6.335 0 5.976 0 5.976 0 C5.976 0 2.232 8.8379 2.232 8.8379 C1.08 11.4658 0.864 11.7539 0 11.79 C0 11.79 0 12.1318 0 12.1318 C0 12.1318 3.564 12.1318 3.564 12.1318 C3.564 12.1318 3.564 11.79 3.564 11.79 C2.7 11.79 2.34 11.5556 2.34 11.0517 C2.34 10.8359 2.394 10.5839 2.484 10.3496 C2.484 10.3496 3.312 8.2441 3.312 8.2441 C3.312 8.2441 8.028 8.2441 8.028 8.2441 C8.028 8.2441 8.766 9.9716 8.766 9.9716 C8.982 10.458 9.108 10.9257 9.108 11.1777 C9.108 11.6279 8.801 11.7714 7.848 11.79 C7.848 11.79 7.848 12.1318 7.848 12.1318 C7.848 12.1318 12.438 12.1318 12.438 12.1318 C12.438 12.1318 12.438 11.79 12.438 11.79 Z M3.618 7.5058 C3.618 7.5058 5.688 2.5566 5.688 2.5566 C5.688 2.5566 7.776 7.5058 7.776 7.5058 C7.776 7.5058 3.618 7.5058 3.618 7.5058 Z" />
 </g>
 <g transform="translate(158.95, 19.7207)" style="fill:#000000; fill-rule:evenodd; stroke:none; stroke-width:0.472425; stroke-linecap:butt; stroke-linejoin:miter; stroke-dasharray:none;" >
  <path d="M6.714 5.4717 C5.85 6.7314 5.201 7.1631 4.176 7.1631 C2.538 7.1631 1.386 5.7236 1.386 3.6533 C1.386 1.7998 2.376 0.5215 3.834 0.5215 C4.482 0.5215 4.716 0.7197 4.896 1.3857 C4.896 1.3857 5.004 1.7813 5.004 1.7813 C5.148 2.2852 5.472 2.6094 5.85 2.6094 C6.318 2.6094 6.714 2.2676 6.714 1.8535 C6.714 0.8457 5.453 0 3.942 0 C3.06 0 2.142 0.3594 1.404 1.0078 C0.504 1.7998 0 3.0234 0 4.4453 C0 6.7852 1.422 8.459 3.42 8.459 C4.23 8.459 4.949 8.1709 5.598 7.6133 C6.084 7.1816 6.426 6.6953 6.966 5.6338 C6.966 5.6338 6.714 5.4717 6.714 5.4717 Z" />
 </g>
 <g transform="translate(166.734, 17.5781)" style="fill:#000000; fill-rule:evenodd; stroke:none; stroke-width:0.472425; stroke-linecap:butt; stroke-linejoin:miter; stroke-dasharray:none;" >
  <path d="M4.356 2.3223 C4.356 2.3223 2.537 2.3223 2.537 2.3223 C2.537 2.3223 2.537 0.2344 2.537 0.2344 C2.537 0.0547 2.52 0 2.412 0 C2.286 0.1621 2.178 0.3242 2.052 0.5039 C1.368 1.4942 0.594 2.3584 0.306 2.4297 C0.108 2.5567 0 2.6826 0 2.7725 C0 2.8262 0.018 2.8623 0.072 2.8985 C0.072 2.8985 1.026 2.8985 1.026 2.8985 C1.026 2.8985 1.026 8.3164 1.026 8.3164 C1.026 9.8281 1.566 10.6016 2.628 10.6016 C3.51 10.6016 4.194 10.1699 4.787 9.2344 C4.787 9.2344 4.554 9.0362 4.554 9.0362 C4.176 9.4864 3.87 9.666 3.474 9.666 C2.808 9.666 2.537 9.1797 2.537 8.0459 C2.537 8.0459 2.537 2.8985 2.537 2.8985 C2.537 2.8985 4.356 2.8985 4.356 2.8985 C4.356 2.8985 4.356 2.3223 4.356 2.3223 Z" />
 </g>
 <g transform="translate(171.788, 15.7061)" style="fill:#000000; fill-rule:evenodd; stroke:none; stroke-width:0.472425; stroke-linecap:butt; stroke-linejoin:miter; stroke-dasharray:none;" >
  <path d="M2.861 4.0146 C2.861 4.0146 0.072 5.0039 0.072 5.0039 C0.072 5.0039 0.072 5.2744 0.072 5.2744 C0.072 5.2744 0.216 5.2558 0.216 5.2558 C0.432 5.2197 0.666 5.2021 0.828 5.2021 C1.26 5.2021 1.422 5.4902 1.422 6.2822 C1.422 6.2822 1.422 10.458 1.422 10.458 C1.422 11.7539 1.242 11.9521 0 12.0244 C0 12.0244 0 12.2939 0 12.2939 C0 12.2939 4.266 12.2939 4.266 12.2939 C4.266 12.2939 4.266 12.0244 4.266 12.0244 C3.078 11.9335 2.934 11.7539 2.934 10.458 C2.934 10.458 2.934 4.0683 2.934 4.0683 C2.934 4.0683 2.861 4.0146 2.861 4.0146 Z M2.016 0 C1.53 0 1.116 0.414 1.116 0.9179 C1.116 1.4218 1.512 1.8359 2.016 1.8359 C2.538 1.8359 2.952 1.4404 2.952 0.9179 C2.952 0.414 2.538 0 2.016 0 Z" />
 </g>
 <g transform="translate(176.842, 19.9004)" style="fill:#000000; fill-rule:evenodd; stroke:none; stroke-width:0.472425; stroke-linecap:butt; stroke-linejoin:miter; stroke-dasharray:none;" >
  <path d="M8.244 0 C8.244 0 5.742 0 5.742 0 C5.742 0 5.742 0.2695 5.742 0.2695 C6.318 0.3242 6.588 0.5039 6.588 0.8457 C6.588 1.0254 6.552 1.206 6.479 1.3857 C6.479 1.3857 4.698 6.0478 4.698 6.0478 C4.698 6.0478 2.862 1.4394 2.862 1.4394 C2.754 1.1875 2.7 0.9355 2.7 0.7734 C2.7 0.4502 2.898 0.3242 3.528 0.2695 C3.528 0.2695 3.528 0 3.528 0 C3.528 0 0 0 0 0 C0 0 0 0.2695 0 0.2695 C0.684 0.3057 0.81 0.4863 1.637 2.3398 C1.637 2.3398 3.798 7.5058 3.798 7.5058 C3.834 7.6133 3.887 7.7392 3.942 7.8838 C4.05 8.208 4.158 8.3516 4.265 8.3516 C4.374 8.3516 4.5 8.1172 4.77 7.4512 C4.77 7.4512 7.074 1.6738 7.074 1.6738 C7.596 0.4502 7.704 0.3242 8.244 0.2695 C8.244 0.2695 8.244 0 8.244 0 Z" />
 </g>
 <g transform="translate(185.95, 19.7207)" style="fill:#000000; fill-rule:evenodd; stroke:none; stroke-width:0.472425; stroke-linecap:butt; stroke-linejoin:miter; stroke-dasharray:none;" >
  <path d="M6.894 5.3272 C6.029 6.6953 5.256 7.2178 4.104 7.2178 C3.078 7.2178 2.304 6.6953 1.781 5.6689 C1.458 4.9854 1.332 4.3916 1.296 3.2939 C1.296 3.2939 6.84 3.2939 6.84 3.2939 C6.696 2.1231 6.516 1.6016 6.066 1.0254 C5.526 0.3779 4.697 0 3.762 0 C2.862 0 2.016 0.3232 1.332 0.9355 C0.486 1.6738 0 2.9512 0 4.4277 C0 6.9111 1.296 8.459 3.365 8.459 C5.075 8.459 6.426 7.3975 7.182 5.4531 C7.182 5.4531 6.894 5.3272 6.894 5.3272 Z M1.332 2.7178 C1.529 1.3135 2.142 0.6475 3.239 0.6475 C4.338 0.6475 4.77 1.1514 5.004 2.7178 C5.004 2.7178 1.332 2.7178 1.332 2.7178 Z" />
 </g>
 <g transform="translate(1.28809, 115.334)" style="fill:#000000; fill-rule:evenodd; stroke:none; stroke-width:0.472425; stroke-linecap:butt; stroke-linejoin:miter; stroke-dasharray:none;" >
  <path d="M3.34765 6.678 C3.81543 6.714 4.12207 6.732 4.58984 6.732 C5.99414 6.732 6.96582 6.552 7.73925 6.12 C8.81931 5.544 9.46781 4.446 9.46781 3.259 C9.46781 2.502 9.21581 1.818 8.72951 1.297 C8.00976 0.505 6.44336 0 4.75195 0 C4.75195 0 0 0 0 0 C0 0 0 0.343 0 0.343 C1.33203 0.486 1.51171 0.666 1.51171 1.962 C1.51171 1.962 1.51171 9.756 1.51171 9.756 C1.51171 11.268 1.36816 11.448 0 11.574 C0 11.574 0 11.916 0 11.916 C0 11.916 5.04003 11.916 5.04003 11.916 C5.04003 11.916 5.04003 11.574 5.04003 11.574 C3.61816 11.52 3.34765 11.268 3.34765 9.954 C3.34765 9.954 3.34765 6.678 3.34765 6.678 Z M3.34765 1.278 C3.34765 0.792 3.47363 0.666 3.95996 0.666 C6.38964 0.666 7.50586 1.513 7.50586 3.366 C7.50586 5.112 6.44336 6.013 4.37402 6.013 C4.01367 6.013 3.76171 5.994 3.34765 5.958 C3.34765 5.958 3.34765 1.278 3.34765 1.278 Z" />
 </g>
 <g transform="translate(11.666, 118.971)" style="fill:#000000; fill-rule:evenodd; stroke:none; stroke-width:0.472425; stroke-linecap:butt; stroke-linejoin:miter; stroke-dasharray:none;" >
  <path d="M7.2901 7.091 C6.9834 7.343 6.7676 7.433 6.4981 7.433 C6.084 7.433 5.958 7.181 5.958 6.389 C5.958 6.389 5.958 2.88 5.958 2.88 C5.958 1.943 5.8682 1.422 5.5977 0.989 C5.2022 0.341 4.4278 0 3.3662 0 C1.6738 0 0.3418 0.882 0.3418 2.015 C0.3418 2.429 0.7022 2.789 1.1162 2.789 C1.5479 2.789 1.9258 2.429 1.9258 2.033 C1.9258 1.962 1.9082 1.871 1.8897 1.745 C1.8535 1.584 1.836 1.439 1.836 1.313 C1.836 0.827 2.4121 0.431 3.1319 0.431 C4.0137 0.431 4.5 0.953 4.5 1.925 C4.5 1.925 4.5 3.023 4.5 3.023 C1.7276 4.139 1.4219 4.283 0.6475 4.967 C0.252 5.327 0 5.939 0 6.533 C0 7.667 0.792 8.459 1.8897 8.459 C2.6817 8.459 3.4199 8.081 4.5176 7.145 C4.6074 8.081 4.9317 8.459 5.6699 8.459 C6.2822 8.459 6.6602 8.243 7.2901 7.559 C7.2901 7.559 7.2901 7.091 7.2901 7.091 Z M4.5 6.065 C4.5 6.623 4.4102 6.785 4.0322 7.001 C3.5996 7.253 3.0957 7.415 2.7178 7.415 C2.0879 7.415 1.584 6.803 1.584 6.029 C1.584 6.029 1.584 5.957 1.584 5.957 C1.584 4.895 2.3223 4.247 4.5 3.455 C4.5 3.455 4.5 6.065 4.5 6.065 Z" />
 </g>
 <g transform="translate(19.918, 118.988)" style="fill:#000000; fill-rule:evenodd; stroke:none; stroke-width:0.472425; stroke-linecap:butt; stroke-linejoin:miter; stroke-dasharray:none;" >
  <path d="M4.7519 2.611 C4.7519 2.611 4.6797 0.162 4.6797 0.162 C4.6797 0.162 4.4814 0.162 4.4814 0.162 C4.4814 0.162 4.4463 0.199 4.4463 0.199 C4.2841 0.324 4.2656 0.342 4.1943 0.342 C4.0859 0.342 3.9062 0.306 3.708 0.216 C3.3115 0.073 2.916 0 2.4482 0 C1.0263 0 0 0.918 0 2.214 C0 3.222 0.5761 3.942 2.1054 4.806 C2.1054 4.806 3.1494 5.4 3.1494 5.4 C3.7802 5.76 4.0859 6.192 4.0859 6.75 C4.0859 7.542 3.5097 8.046 2.5918 8.046 C1.9795 8.046 1.4218 7.812 1.08 7.416 C0.7021 6.966 0.54 6.552 0.3056 5.526 C0.3056 5.526 0.0175 5.526 0.0175 5.526 C0.0175 5.526 0.0175 8.334 0.0175 8.334 C0.0175 8.334 0.2519 8.334 0.2519 8.334 C0.3779 8.154 0.4502 8.118 0.666 8.118 C0.8281 8.118 1.08 8.154 1.4941 8.262 C1.998 8.37 2.4843 8.442 2.8076 8.442 C4.1943 8.442 5.3457 7.398 5.3457 6.138 C5.3457 5.239 4.914 4.644 3.834 3.996 C3.834 3.996 1.8896 2.844 1.8896 2.844 C1.3857 2.556 1.1162 2.106 1.1162 1.62 C1.1162 0.901 1.6738 0.397 2.5019 0.397 C3.5283 0.397 4.0674 1.008 4.4814 2.611 C4.4814 2.611 4.7519 2.611 4.7519 2.611 Z" />
 </g>
 <g transform="translate(26.918, 118.988)" style="fill:#000000; fill-rule:evenodd; stroke:none; stroke-width:0.472425; stroke-linecap:butt; stroke-linejoin:miter; stroke-dasharray:none;" >
  <path d="M4.7519 2.611 C4.7519 2.611 4.6797 0.162 4.6797 0.162 C4.6797 0.162 4.4814 0.162 4.4814 0.162 C4.4814 0.162 4.4463 0.199 4.4463 0.199 C4.2841 0.324 4.2656 0.342 4.1943 0.342 C4.0859 0.342 3.9062 0.306 3.708 0.216 C3.3115 0.073 2.916 0 2.4482 0 C1.0263 0 0 0.918 0 2.214 C0 3.222 0.5761 3.942 2.1054 4.806 C2.1054 4.806 3.1494 5.4 3.1494 5.4 C3.7802 5.76 4.0859 6.192 4.0859 6.75 C4.0859 7.542 3.5097 8.046 2.5918 8.046 C1.9795 8.046 1.4218 7.812 1.08 7.416 C0.7021 6.966 0.54 6.552 0.3056 5.526 C0.3056 5.526 0.0175 5.526 0.0175 5.526 C0.0175 5.526 0.0175 8.334 0.0175 8.334 C0.0175 8.334 0.2519 8.334 0.2519 8.334 C0.3779 8.154 0.4502 8.118 0.666 8.118 C0.8281 8.118 1.08 8.154 1.4941 8.262 C1.998 8.37 2.4843 8.442 2.8076 8.442 C4.1943 8.442 5.3457 7.398 5.3457 6.138 C5.3457 5.239 4.914 4.644 3.834 3.996 C3.834 3.996 1.8896 2.844 1.8896 2.844 C1.3857 2.556 1.1162 2.106 1.1162 1.62 C1.1162 0.901 1.6738 0.397 2.5019 0.397 C3.5283 0.397 4.0674 1.008 4.4814 2.611 C4.4814 2.611 4.7519 2.611 4.7519 2.611 Z" />
 </g>
 <g transform="translate(33.2881, 114.956)" style="fill:#000000; fill-rule:evenodd; stroke:none; stroke-width:0.472425; stroke-linecap:butt; stroke-linejoin:miter; stroke-dasharray:none;" >
  <path d="M2.8613 4.015 C2.8613 4.015 0.0723 5.004 0.0723 5.004 C0.0723 5.004 0.0723 5.274 0.0723 5.274 C0.0723 5.274 0.2158 5.256 0.2158 5.256 C0.4316 5.22 0.666 5.202 0.8281 5.202 C1.2598 5.202 1.4219 5.49 1.4219 6.282 C1.4219 6.282 1.4219 10.458 1.4219 10.458 C1.4219 11.754 1.2422 11.952 0 12.024 C0 12.024 0 12.294 0 12.294 C0 12.294 4.2656 12.294 4.2656 12.294 C4.2656 12.294 4.2656 12.024 4.2656 12.024 C3.0781 11.934 2.9336 11.754 2.9336 10.458 C2.9336 10.458 2.9336 4.068 2.9336 4.068 C2.9336 4.068 2.8613 4.015 2.8613 4.015 Z M2.0156 0 C1.5303 0 1.1162 0.414 1.1162 0.918 C1.1162 1.422 1.5117 1.836 2.0156 1.836 C2.5381 1.836 2.9521 1.44 2.9521 0.918 C2.9521 0.414 2.5381 0 2.0156 0 Z" />
 </g>
 <g transform="translate(38.3418, 119.15)" style="fill:#000000; fill-rule:evenodd; stroke:none; stroke-width:0.472425; stroke-linecap:butt; stroke-linejoin:miter; stroke-dasharray:none;" >
  <path d="M8.2441 0 C8.2441 0 5.7422 0 5.7422 0 C5.7422 0 5.7422 0.27 5.7422 0.27 C6.3184 0.325 6.5879 0.504 6.5879 0.846 C6.5879 1.026 6.5518 1.206 6.4795 1.386 C6.4795 1.386 4.6982 6.048 4.6982 6.048 C4.6982 6.048 2.8623 1.44 2.8623 1.44 C2.7539 1.188 2.7002 0.936 2.7002 0.774 C2.7002 0.451 2.8984 0.325 3.5283 0.27 C3.5283 0.27 3.5283 0 3.5283 0 C3.5283 0 0 0 0 0 C0 0 0 0.27 0 0.27 C0.6846 0.306 0.8105 0.487 1.6377 2.34 C1.6377 2.34 3.7978 7.506 3.7978 7.506 C3.834 7.614 3.8877 7.74 3.9424 7.884 C4.0498 8.208 4.1582 8.352 4.2656 8.352 C4.374 8.352 4.5 8.118 4.7705 7.452 C4.7705 7.452 7.0742 1.674 7.0742 1.674 C7.5957 0.451 7.7041 0.325 8.2441 0.27 C8.2441 0.27 8.2441 0 8.2441 0 Z" />
 </g>
 <g transform="translate(47.4502, 118.971)" style="fill:#000000; fill-rule:evenodd; stroke:none; stroke-width:0.472425; stroke-linecap:butt; stroke-linejoin:miter; stroke-dasharray:none;" >
  <path d="M6.8936 5.327 C6.0293 6.695 5.2559 7.217 4.1035 7.217 C3.0781 7.217 2.3037 6.695 1.7812 5.669 C1.458 4.985 1.332 4.391 1.2959 3.294 C1.2959 3.294 6.8398 3.294 6.8398 3.294 C6.6953 2.123 6.5156 1.601 6.0654 1.025 C5.5254 0.378 4.6973 0 3.7617 0 C2.8613 0 2.0156 0.323 1.332 0.935 C0.4853 1.674 0 2.951 0 4.427 C0 6.911 1.2959 8.459 3.3652 8.459 C5.0752 8.459 6.4258 7.397 7.1816 5.453 C7.1816 5.453 6.8936 5.327 6.8936 5.327 Z M1.332 2.717 C1.5293 1.313 2.1416 0.647 3.2393 0.647 C4.3379 0.647 4.7695 1.151 5.0039 2.717 C5.0039 2.717 1.332 2.717 1.332 2.717 Z" />
 </g>
 <g transform="translate(143.362, 234.334)" style="fill:#000000; fill-rule:evenodd; stroke:none; stroke-width:0.472425; stroke-linecap:butt; stroke-linejoin:miter; stroke-dasharray:none;" >
  <path d="M6.822 0.343 C7.037 0.36 7.218 0.36 7.289 0.36 C7.829 0.396 8.046 0.54 8.046 0.9 C8.046 1.297 7.632 1.836 6.642 2.754 C6.642 2.754 3.455 5.652 3.455 5.652 C3.455 5.652 3.455 1.962 3.455 1.962 C3.455 0.648 3.654 0.45 5.112 0.343 C5.112 0.343 5.112 0 5.112 0 C5.112 0 0 0 0 0 C0 0 0 0.343 0 0.343 C1.404 0.45 1.619 0.685 1.619 1.962 C1.619 1.962 1.619 9.756 1.619 9.756 C1.619 11.25 1.422 11.484 0 11.574 C0 11.574 0 11.916 0 11.916 C0 11.916 5.076 11.916 5.076 11.916 C5.076 11.916 5.076 11.574 5.076 11.574 C3.672 11.484 3.455 11.268 3.455 9.954 C3.455 9.954 3.455 6.588 3.455 6.588 C3.455 6.588 3.924 6.21 3.924 6.21 C3.924 6.21 5.831 8.101 5.831 8.101 C7.2 9.45 8.172 10.728 8.172 11.16 C8.172 11.412 7.919 11.538 7.415 11.556 C7.326 11.556 7.128 11.556 6.911 11.574 C6.911 11.574 6.911 11.916 6.911 11.916 C6.911 11.916 12.402 11.916 12.402 11.916 C12.402 11.916 12.402 11.574 12.402 11.574 C11.465 11.556 11.213 11.376 9.576 9.63 C9.576 9.63 5.382 5.13 5.382 5.13 C5.382 5.13 8.802 1.746 8.802 1.746 C10.026 0.576 10.314 0.433 11.537 0.343 C11.537 0.343 11.537 0 11.537 0 C11.537 0 6.822 0 6.822 0 C6.822 0 6.822 0.343 6.822 0.343 Z" />
 </g>
 <g transform="translate(156.038, 233.956)" style="fill:#000000; fill-rule:evenodd; stroke:none; stroke-width:0.472425; stroke-linecap:butt; stroke-linejoin:miter; stroke-dasharray:none;" >
  <path d="M2.861 4.015 C2.861 4.015 0.072 5.004 0.072 5.004 C0.072 5.004 0.072 5.274 0.072 5.274 C0.072 5.274 0.216 5.256 0.216 5.256 C0.432 5.22 0.666 5.202 0.828 5.202 C1.26 5.202 1.422 5.49 1.422 6.282 C1.422 6.282 1.422 10.458 1.422 10.458 C1.422 11.754 1.242 11.952 0 12.024 C0 12.024 0 12.294 0 12.294 C0 12.294 4.266 12.294 4.266 12.294 C4.266 12.294 4.266 12.024 4.266 12.024 C3.078 11.934 2.934 11.754 2.934 10.458 C2.934 10.458 2.934 4.068 2.934 4.068 C2.934 4.068 2.861 4.015 2.861 4.015 Z M2.016 0 C1.53 0 1.116 0.414 1.116 0.918 C1.116 1.422 1.512 1.836 2.016 1.836 C2.538 1.836 2.952 1.44 2.952 0.918 C2.952 0.414 2.538 0 2.016 0 Z" />
 </g>
 <g transform="translate(161.092, 233.956)" style="fill:#000000; fill-rule:evenodd; stroke:none; stroke-width:0.472425; stroke-linecap:butt; stroke-linejoin:miter; stroke-dasharray:none;" >
  <path d="M0 1.08 C0 1.08 0.108 1.08 0.108 1.08 C0.306 1.063 0.522 1.044 0.666 1.044 C1.242 1.044 1.422 1.296 1.422 2.143 C1.422 2.143 1.422 10.728 1.422 10.728 C1.422 11.7 1.17 11.934 0.036 12.024 C0.036 12.024 0.036 12.294 0.036 12.294 C0.036 12.294 4.284 12.294 4.284 12.294 C4.284 12.294 4.284 12.024 4.284 12.024 C3.15 11.952 2.934 11.772 2.934 10.782 C2.934 10.782 2.934 0.036 2.934 0.036 C2.934 0.036 2.862 0 2.862 0 C1.926 0.307 1.242 0.486 0 0.792 C0 0.792 0 1.08 0 1.08 Z" />
 </g>
 <g transform="translate(166.092, 233.956)" style="fill:#000000; fill-rule:evenodd; stroke:none; stroke-width:0.472425; stroke-linecap:butt; stroke-linejoin:miter; stroke-dasharray:none;" >
  <path d="M0 1.08 C0 1.08 0.108 1.08 0.108 1.08 C0.306 1.063 0.522 1.044 0.666 1.044 C1.242 1.044 1.422 1.296 1.422 2.143 C1.422 2.143 1.422 10.728 1.422 10.728 C1.422 11.7 1.17 11.934 0.036 12.024 C0.036 12.024 0.036 12.294 0.036 12.294 C0.036 12.294 4.284 12.294 4.284 12.294 C4.284 12.294 4.284 12.024 4.284 12.024 C3.15 11.952 2.934 11.772 2.934 10.782 C2.934 10.782 2.934 0.036 2.934 0.036 C2.934 0.036 2.862 0 2.862 0 C1.926 0.307 1.242 0.486 0 0.792 C0 0.792 0 1.08 0 1.08 Z" />
 </g>
 <g transform="translate(171.2, 237.971)" style="fill:#000000; fill-rule:evenodd; stroke:none; stroke-width:0.472425; stroke-linecap:butt; stroke-linejoin:miter; stroke-dasharray:none;" >
  <path d="M6.894 5.327 C6.029 6.695 5.256 7.217 4.104 7.217 C3.078 7.217 2.304 6.695 1.781 5.669 C1.458 4.985 1.332 4.391 1.296 3.294 C1.296 3.294 6.84 3.294 6.84 3.294 C6.696 2.123 6.516 1.601 6.066 1.025 C5.526 0.378 4.697 0 3.762 0 C2.862 0 2.016 0.323 1.332 0.935 C0.486 1.674 0 2.951 0 4.427 C0 6.911 1.296 8.459 3.365 8.459 C5.075 8.459 6.426 7.397 7.182 5.453 C7.182 5.453 6.894 5.327 6.894 5.327 Z M1.332 2.717 C1.529 1.313 2.142 0.647 3.239 0.647 C4.338 0.647 4.77 1.151 5.004 2.717 C5.004 2.717 1.332 2.717 1.332 2.717 Z" />
 </g>
 <g transform="translate(179.236, 233.956)" style="fill:#000000; fill-rule:evenodd; stroke:none; stroke-width:0.472425; stroke-linecap:butt; stroke-linejoin:miter; stroke-dasharray:none;" >
  <path d="M5.705 12.474 C5.705 12.474 8.352 11.538 8.352 11.538 C8.352 11.538 8.352 11.25 8.352 11.25 C8.028 11.268 7.992 11.268 7.938 11.268 C7.289 11.268 7.146 11.07 7.146 10.242 C7.146 10.242 7.146 0.036 7.146 0.036 C7.146 0.036 7.056 0 7.056 0 C6.192 0.307 5.562 0.486 4.41 0.792 C4.41 0.792 4.41 1.08 4.41 1.08 C4.554 1.063 4.661 1.063 4.806 1.063 C5.472 1.063 5.634 1.242 5.634 1.981 C5.634 1.981 5.634 4.788 5.634 4.788 C4.95 4.212 4.464 4.015 3.743 4.015 C1.674 4.015 0 6.048 0 8.605 C0 10.908 1.35 12.474 3.329 12.474 C4.338 12.474 5.022 12.114 5.634 11.268 C5.634 11.268 5.634 12.42 5.634 12.42 C5.634 12.42 5.705 12.474 5.705 12.474 Z M5.634 10.458 C5.634 10.584 5.508 10.8 5.327 10.998 C5.004 11.358 4.554 11.538 4.032 11.538 C2.537 11.538 1.548 10.098 1.548 7.884 C1.548 5.851 2.43 4.519 3.798 4.519 C4.752 4.519 5.634 5.364 5.634 6.318 C5.634 6.318 5.634 10.458 5.634 10.458 Z" />
 </g>
 <g transform="translate(276.092, 143.584)" style="fill:#000000; fill-rule:evenodd; stroke:none; stroke-width:0.472425; stroke-linecap:butt; stroke-linejoin:miter; stroke-dasharray:none;" >
  <path d="M3.42 5.454 C3.42 5.454 3.42 1.962 3.42 1.962 C3.42 0.666 3.618 0.469 5.004 0.343 C5.004 0.343 5.004 0 5.004 0 C5.004 0 0 0 0 0 C0 0 0 0.343 0 0.343 C1.386 0.469 1.584 0.666 1.584 1.962 C1.584 1.962 1.584 9.756 1.584 9.756 C1.584 11.268 1.404 11.484 0 11.574 C0 11.574 0 11.916 0 11.916 C0 11.916 5.004 11.916 5.004 11.916 C5.004 11.916 5.004 11.574 5.004 11.574 C3.654 11.466 3.42 11.232 3.42 9.954 C3.42 9.954 3.42 6.246 3.42 6.246 C3.42 6.246 8.874 6.246 8.874 6.246 C8.874 6.246 8.874 9.756 8.874 9.756 C8.874 11.268 8.694 11.484 7.29 11.574 C7.29 11.574 7.29 11.916 7.29 11.916 C7.29 11.916 12.294 11.916 12.294 11.916 C12.294 11.916 12.294 11.574 12.294 11.574 C10.943 11.466 10.71 11.232 10.71 9.954 C10.71 9.954 10.71 1.962 10.71 1.962 C10.71 0.666 10.908 0.469 12.294 0.343 C12.294 0.343 12.294 0 12.294 0 C12.294 0 7.29 0 7.29 0 C7.29 0 7.29 0.343 7.29 0.343 C8.676 0.469 8.874 0.666 8.874 1.962 C8.874 1.962 8.874 5.454 8.874 5.454 C8.874 5.454 3.42 5.454 3.42 5.454 Z" />
 </g>
 <g transform="translate(289.416, 147.221)" style="fill:#000000; fill-rule:evenodd; stroke:none; stroke-width:0.472425; stroke-linecap:butt; stroke-linejoin:miter; stroke-dasharray:none;" >
  <path d="M7.29 7.091 C6.983 7.343 6.768 7.433 6.498 7.433 C6.084 7.433 5.958 7.181 5.958 6.389 C5.958 6.389 5.958 2.88 5.958 2.88 C5.958 1.943 5.868 1.422 5.598 0.989 C5.202 0.341 4.428 0 3.366 0 C1.674 0 0.342 0.882 0.342 2.015 C0.342 2.429 0.702 2.789 1.116 2.789 C1.548 2.789 1.926 2.429 1.926 2.033 C1.926 1.962 1.908 1.871 1.89 1.745 C1.854 1.584 1.836 1.439 1.836 1.313 C1.836 0.827 2.412 0.431 3.132 0.431 C4.014 0.431 4.5 0.953 4.5 1.925 C4.5 1.925 4.5 3.023 4.5 3.023 C1.728 4.139 1.422 4.283 0.647 4.967 C0.252 5.327 0 5.939 0 6.533 C0 7.667 0.792 8.459 1.89 8.459 C2.682 8.459 3.42 8.081 4.518 7.145 C4.607 8.081 4.932 8.459 5.67 8.459 C6.282 8.459 6.66 8.243 7.29 7.559 C7.29 7.559 7.29 7.091 7.29 7.091 Z M4.5 6.065 C4.5 6.623 4.41 6.785 4.032 7.001 C3.6 7.253 3.096 7.415 2.718 7.415 C2.088 7.415 1.584 6.803 1.584 6.029 C1.584 6.029 1.584 5.957 1.584 5.957 C1.584 4.895 2.322 4.247 4.5 3.455 C4.5 3.455 4.5 6.065 4.5 6.065 Z" />
 </g>
 <g transform="translate(297.092, 143.206)" style="fill:#000000; fill-rule:evenodd; stroke:none; stroke-width:0.472425; stroke-linecap:butt; stroke-linejoin:miter; stroke-dasharray:none;" >
  <path d="M0 1.08 C0 1.08 0.108 1.08 0.108 1.08 C0.306 1.063 0.522 1.044 0.666 1.044 C1.242 1.044 1.422 1.296 1.422 2.143 C1.422 2.143 1.422 10.728 1.422 10.728 C1.422 11.7 1.17 11.934 0.036 12.024 C0.036 12.024 0.036 12.294 0.036 12.294 C0.036 12.294 4.284 12.294 4.284 12.294 C4.284 12.294 4.284 12.024 4.284 12.024 C3.15 11.952 2.934 11.772 2.934 10.782 C2.934 10.782 2.934 0.036 2.934 0.036 C2.934 0.036 2.862 0 2.862 0 C1.926 0.307 1.242 0.486 0 0.792 C0 0.792 0 1.08 0 1.08 Z" />
 </g>
 <g transform="translate(301.984, 145.078)" style="fill:#000000; fill-rule:evenodd; stroke:none; stroke-width:0.472425; stroke-linecap:butt; stroke-linejoin:miter; stroke-dasharray:none;" >
  <path d="M4.356 2.322 C4.356 2.322 2.537 2.322 2.537 2.322 C2.537 2.322 2.537 0.234 2.537 0.234 C2.537 0.055 2.52 0 2.411 0 C2.286 0.162 2.178 0.324 2.052 0.504 C1.368 1.494 0.594 2.359 0.306 2.43 C0.108 2.557 0 2.683 0 2.773 C0 2.826 0.018 2.862 0.072 2.899 C0.072 2.899 1.026 2.899 1.026 2.899 C1.026 2.899 1.026 8.317 1.026 8.317 C1.026 9.828 1.566 10.602 2.628 10.602 C3.51 10.602 4.194 10.17 4.787 9.234 C4.787 9.234 4.554 9.036 4.554 9.036 C4.176 9.486 3.87 9.666 3.474 9.666 C2.808 9.666 2.537 9.18 2.537 8.046 C2.537 8.046 2.537 2.899 2.537 2.899 C2.537 2.899 4.356 2.899 4.356 2.899 C4.356 2.899 4.356 2.322 4.356 2.322 Z" />
 </g>
 <g transform="translate(307.2, 147.221)" style="fill:#000000; fill-rule:evenodd; stroke:none; stroke-width:0.472425; stroke-linecap:butt; stroke-linejoin:miter; stroke-dasharray:none;" >
  <path d="M6.894 5.327 C6.029 6.695 5.256 7.217 4.104 7.217 C3.078 7.217 2.304 6.695 1.781 5.669 C1.458 4.985 1.332 4.391 1.296 3.294 C1.296 3.294 6.84 3.294 6.84 3.294 C6.696 2.123 6.516 1.601 6.066 1.025 C5.526 0.378 4.697 0 3.762 0 C2.862 0 2.016 0.323 1.332 0.935 C0.486 1.674 0 2.951 0 4.427 C0 6.911 1.296 8.459 3.365 8.459 C5.075 8.459 6.426 7.397 7.182 5.453 C7.182 5.453 6.894 5.327 6.894 5.327 Z M1.332 2.717 C1.529 1.313 2.142 0.647 3.239 0.647 C4.338 0.647 4.77 1.151 5.004 2.717 C5.004 2.717 1.332 2.717 1.332 2.717 Z" />
 </g>
 <g transform="translate(315.236, 143.206)" style="fill:#000000; fill-rule:evenodd; stroke:none; stroke-width:0.472425; stroke-linecap:butt; stroke-linejoin:miter; stroke-dasharray:none;" >
  <path d="M5.705 12.474 C5.705 12.474 8.352 11.538 8.352 11.538 C8.352 11.538 8.352 11.25 8.352 11.25 C8.028 11.268 7.992 11.268 7.938 11.268 C7.289 11.268 7.146 11.07 7.146 10.242 C7.146 10.242 7.146 0.036 7.146 0.036 C7.146 0.036 7.056 0 7.056 0 C6.192 0.307 5.562 0.486 4.41 0.792 C4.41 0.792 4.41 1.08 4.41 1.08 C4.554 1.063 4.661 1.063 4.806 1.063 C5.472 1.063 5.634 1.242 5.634 1.981 C5.634 1.981 5.634 4.788 5.634 4.788 C4.95 4.212 4.464 4.015 3.743 4.015 C1.674 4.015 0 6.048 0 8.605 C0 10.908 1.35 12.474 3.329 12.474 C4.338 12.474 5.022 12.114 5.634 11.268 C5.634 11.268 5.634 12.42 5.634 12.42 C5.634 12.42 5.705 12.474 5.705 12.474 Z M5.634 10.458 C5.634 10.584 5.508 10.8 5.327 10.998 C5.004 11.358 4.554 11.538 4.032 11.538 C2.537 11.538 1.548 10.098 1.548 7.884 C1.548 5.851 2.43 4.519 3.798 4.519 C4.752 4.519 5.634 5.364 5.634 6.318 C5.634 6.318 5.634 10.458 5.634 10.458 Z" />
 </g>
 <g transform="translate(103.288, 143.584)" style="fill:#000000; fill-rule:evenodd; stroke:none; stroke-width:0.472425; stroke-linecap:butt; stroke-linejoin:miter; stroke-dasharray:none;" >
  <path d="M3.348 6.678 C3.816 6.714 4.122 6.732 4.59 6.732 C5.994 6.732 6.966 6.552 7.739 6.12 C8.819 5.544 9.468 4.446 9.468 3.259 C9.468 2.502 9.216 1.818 8.73 1.297 C8.01 0.505 6.443 0 4.752 0 C4.752 0 0 0 0 0 C0 0 0 0.343 0 0.343 C1.332 0.486 1.512 0.666 1.512 1.962 C1.512 1.962 1.512 9.756 1.512 9.756 C1.512 11.268 1.368 11.448 0 11.574 C0 11.574 0 11.916 0 11.916 C0 11.916 5.04 11.916 5.04 11.916 C5.04 11.916 5.04 11.574 5.04 11.574 C3.618 11.52 3.348 11.268 3.348 9.954 C3.348 9.954 3.348 6.678 3.348 6.678 Z M3.348 1.278 C3.348 0.792 3.474 0.666 3.96 0.666 C6.39 0.666 7.506 1.513 7.506 3.366 C7.506 5.112 6.443 6.013 4.374 6.013 C4.014 6.013 3.762 5.994 3.348 5.958 C3.348 5.958 3.348 1.278 3.348 1.278 Z" />
 </g>
 <g transform="translate(113.45, 147.221)" style="fill:#000000; fill-rule:evenodd; stroke:none; stroke-width:0.472425; stroke-linecap:butt; stroke-linejoin:miter; stroke-dasharray:none;" >
  <path d="M6.894 5.327 C6.029 6.695 5.256 7.217 4.104 7.217 C3.078 7.217 2.304 6.695 1.781 5.669 C1.458 4.985 1.332 4.391 1.296 3.294 C1.296 3.294 6.84 3.294 6.84 3.294 C6.696 2.123 6.516 1.601 6.066 1.025 C5.526 0.378 4.697 0 3.762 0 C2.862 0 2.016 0.323 1.332 0.935 C0.486 1.674 0 2.951 0 4.427 C0 6.911 1.296 8.459 3.365 8.459 C5.075 8.459 6.426 7.397 7.182 5.453 C7.182 5.453 6.894 5.327 6.894 5.327 Z M1.332 2.717 C1.529 1.313 2.142 0.647 3.239 0.647 C4.338 0.647 4.77 1.151 5.004 2.717 C5.004 2.717 1.332 2.717 1.332 2.717 Z" />
 </g>
 <g transform="translate(121.288, 147.221)" style="fill:#000000; fill-rule:evenodd; stroke:none; stroke-width:0.472425; stroke-linecap:butt; stroke-linejoin:miter; stroke-dasharray:none;" >
  <path d="M0 1.115 C0.108 1.061 0.288 1.044 0.486 1.044 C0.99 1.044 1.152 1.313 1.152 2.195 C1.152 2.195 1.152 6.659 1.152 6.659 C1.152 7.685 0.954 7.937 0.036 8.009 C0.036 8.009 0.036 8.279 0.036 8.279 C0.036 8.279 3.852 8.279 3.852 8.279 C3.852 8.279 3.852 8.009 3.852 8.009 C2.934 7.937 2.664 7.721 2.664 7.073 C2.664 7.073 2.664 2.015 2.664 2.015 C3.527 1.205 3.924 0.989 4.518 0.989 C5.4 0.989 5.832 1.548 5.832 2.735 C5.832 2.735 5.832 6.497 5.832 6.497 C5.832 7.631 5.598 7.937 4.697 8.009 C4.697 8.009 4.697 8.279 4.697 8.279 C4.697 8.279 8.441 8.279 8.441 8.279 C8.441 8.279 8.441 8.009 8.441 8.009 C7.56 7.919 7.344 7.703 7.344 6.821 C7.344 6.821 7.344 2.699 7.344 2.699 C7.344 1.008 6.552 0 5.22 0 C4.392 0 3.834 0.305 2.609 1.458 C2.609 1.458 2.609 0.035 2.609 0.035 C2.609 0.035 2.483 0 2.483 0 C1.602 0.323 0.99 0.521 0 0.809 C0 0.809 0 1.115 0 1.115 Z" />
 </g>
 <g transform="translate(130.486, 143.206)" style="fill:#000000; fill-rule:evenodd; stroke:none; stroke-width:0.472425; stroke-linecap:butt; stroke-linejoin:miter; stroke-dasharray:none;" >
  <path d="M5.705 12.474 C5.705 12.474 8.352 11.538 8.352 11.538 C8.352 11.538 8.352 11.25 8.352 11.25 C8.028 11.268 7.992 11.268 7.938 11.268 C7.289 11.268 7.146 11.07 7.146 10.242 C7.146 10.242 7.146 0.036 7.146 0.036 C7.146 0.036 7.056 0 7.056 0 C6.192 0.307 5.562 0.486 4.41 0.792 C4.41 0.792 4.41 1.08 4.41 1.08 C4.554 1.063 4.661 1.063 4.806 1.063 C5.472 1.063 5.634 1.242 5.634 1.981 C5.634 1.981 5.634 4.788 5.634 4.788 C4.95 4.212 4.464 4.015 3.743 4.015 C1.674 4.015 0 6.048 0 8.605 C0 10.908 1.35 12.474 3.329 12.474 C4.338 12.474 5.022 12.114 5.634 11.268 C5.634 11.268 5.634 12.42 5.634 12.42 C5.634 12.42 5.705 12.474 5.705 12.474 Z M5.634 10.458 C5.634 10.584 5.508 10.8 5.327 10.998 C5.004 11.358 4.554 11.538 4.032 11.538 C2.537 11.538 1.548 10.098 1.548 7.884 C1.548 5.851 2.43 4.519 3.798 4.519 C4.752 4.519 5.634 5.364 5.634 6.318 C5.634 6.318 5.634 10.458 5.634 10.458 Z" />
 </g>
 <g transform="translate(139.288, 143.206)" style="fill:#000000; fill-rule:evenodd; stroke:none; stroke-width:0.472425; stroke-linecap:butt; stroke-linejoin:miter; stroke-dasharray:none;" >
  <path d="M2.861 4.015 C2.861 4.015 0.072 5.004 0.072 5.004 C0.072 5.004 0.072 5.274 0.072 5.274 C0.072 5.274 0.216 5.256 0.216 5.256 C0.432 5.22 0.666 5.202 0.828 5.202 C1.26 5.202 1.422 5.49 1.422 6.282 C1.422 6.282 1.422 10.458 1.422 10.458 C1.422 11.754 1.242 11.952 0 12.024 C0 12.024 0 12.294 0 12.294 C0 12.294 4.266 12.294 4.266 12.294 C4.266 12.294 4.266 12.024 4.266 12.024 C3.078 11.934 2.934 11.754 2.934 10.458 C2.934 10.458 2.934 4.068 2.934 4.068 C2.934 4.068 2.861 4.015 2.861 4.015 Z M2.016 0 C1.53 0 1.116 0.414 1.116 0.918 C1.116 1.422 1.512 1.836 2.016 1.836 C2.538 1.836 2.952 1.44 2.952 0.918 C2.952 0.414 2.538 0 2.016 0 Z" />
 </g>
 <g transform="translate(144.288, 147.221)" style="fill:#000000; fill-rule:evenodd; stroke:none; stroke-width:0.472425; stroke-linecap:butt; stroke-linejoin:miter; stroke-dasharray:none;" >
  <path d="M0 1.115 C0.108 1.061 0.288 1.044 0.486 1.044 C0.99 1.044 1.152 1.313 1.152 2.195 C1.152 2.195 1.152 6.659 1.152 6.659 C1.152 7.685 0.954 7.937 0.036 8.009 C0.036 8.009 0.036 8.279 0.036 8.279 C0.036 8.279 3.852 8.279 3.852 8.279 C3.852 8.279 3.852 8.009 3.852 8.009 C2.934 7.937 2.664 7.721 2.664 7.073 C2.664 7.073 2.664 2.015 2.664 2.015 C3.527 1.205 3.924 0.989 4.518 0.989 C5.4 0.989 5.832 1.548 5.832 2.735 C5.832 2.735 5.832 6.497 5.832 6.497 C5.832 7.631 5.598 7.937 4.697 8.009 C4.697 8.009 4.697 8.279 4.697 8.279 C4.697 8.279 8.441 8.279 8.441 8.279 C8.441 8.279 8.441 8.009 8.441 8.009 C7.56 7.919 7.344 7.703 7.344 6.821 C7.344 6.821 7.344 2.699 7.344 2.699 C7.344 1.008 6.552 0 5.22 0 C4.392 0 3.834 0.305 2.609 1.458 C2.609 1.458 2.609 0.035 2.609 0.035 C2.609 0.035 2.483 0 2.483 0 C1.602 0.323 0.99 0.521 0 0.809 C0 0.809 0 1.115 0 1.115 Z" />
 </g>
 <g transform="translate(153.504, 147.221)" style="fill:#000000; fill-rule:evenodd; stroke:none; stroke-width:0.472425; stroke-linecap:butt; stroke-linejoin:miter; stroke-dasharray:none;" >
  <path d="M7.956 1.296 C7.956 1.296 7.956 0.593 7.956 0.593 C7.956 0.593 6.57 0.593 6.57 0.593 C6.21 0.593 5.939 0.54 5.58 0.414 C5.58 0.414 5.184 0.269 5.184 0.269 C4.698 0.09 4.212 0 3.744 0 C2.07 0 0.738 1.296 0.738 2.933 C0.738 4.067 1.224 4.751 2.412 5.345 C2.07 5.669 1.746 5.975 1.638 6.065 C1.044 6.587 0.809 6.947 0.809 7.307 C0.809 7.685 1.026 7.901 1.764 8.261 C0.486 9.197 0 9.791 0 10.457 C0 11.411 1.404 12.203 3.114 12.203 C4.464 12.203 5.868 11.735 6.804 10.979 C7.488 10.421 7.794 9.845 7.794 9.161 C7.794 8.045 6.948 7.289 5.616 7.235 C5.616 7.235 3.294 7.127 3.294 7.127 C2.34 7.091 1.89 6.929 1.89 6.641 C1.89 6.281 2.484 5.651 2.97 5.508 C3.132 5.525 3.258 5.543 3.311 5.543 C3.654 5.579 3.888 5.597 3.996 5.597 C4.662 5.597 5.382 5.327 5.939 4.841 C6.534 4.338 6.804 3.707 6.804 2.807 C6.804 2.285 6.714 1.871 6.462 1.296 C6.462 1.296 7.956 1.296 7.956 1.296 Z M2.142 8.315 C2.736 8.441 4.176 8.549 5.058 8.549 C6.696 8.549 7.29 8.783 7.29 9.431 C7.29 10.475 5.922 11.176 3.888 11.176 C2.304 11.176 1.26 10.655 1.26 9.863 C1.26 9.449 1.386 9.215 2.142 8.315 Z M2.232 2.195 C2.232 1.133 2.736 0.504 3.563 0.504 C4.122 0.504 4.59 0.809 4.878 1.349 C5.202 1.979 5.418 2.807 5.418 3.509 C5.418 4.517 4.895 5.147 4.068 5.147 C2.988 5.147 2.232 3.977 2.232 2.25 C2.232 2.25 2.232 2.195 2.232 2.195 Z" />
 </g>
</svg>
